<svg width="50" height="50" viewBox="0 0 50 50" fill="none" xmlns="http://www.w3.org/2000/svg">
<mask id="mask0_1993_14134" style="mask-type:alpha" maskUnits="userSpaceOnUse" x="0" y="0" width="50" height="50">
<rect width="50" height="50" fill="#D9D9D9"/>
</mask>
<g mask="url(#mask0_1993_14134)">
<path d="M14.5807 41.6663C13.0182 41.6663 11.6554 41.1715 10.4922 40.182C9.32899 39.1924 8.64323 37.9163 8.4349 36.3538C7.11545 35.6594 6.07378 34.6698 5.3099 33.3851C4.54601 32.1004 4.16406 30.6941 4.16406 29.1663C4.16406 27.3261 4.69358 25.6854 5.7526 24.2445C6.81163 22.8035 8.22656 21.8052 9.9974 21.2497L6.2474 17.4997L5.6224 18.1247C5.24045 18.5066 4.75434 18.6976 4.16406 18.6976C3.57378 18.6976 3.08767 18.5066 2.70573 18.1247C2.32378 17.7427 2.13281 17.2566 2.13281 16.6663C2.13281 16.0761 2.32378 15.59 2.70573 15.208L6.8724 11.0413C7.25434 10.6594 7.74045 10.4684 8.33073 10.4684C8.92101 10.4684 9.40712 10.6594 9.78906 11.0413C10.171 11.4233 10.362 11.9094 10.362 12.4997C10.362 13.09 10.171 13.5761 9.78906 13.958L9.16406 14.583L12.0807 17.4997L13.7474 12.6038C14.1641 11.3191 14.9193 10.2861 16.013 9.50488C17.1068 8.72363 18.3307 8.33301 19.6849 8.33301H30.3099C31.6641 8.33301 32.888 8.72363 33.9818 9.50488C35.0755 10.2861 35.8307 11.3191 36.2474 12.6038L39.0599 21.0413C41.0391 21.4233 42.6623 22.3781 43.9297 23.9059C45.197 25.4337 45.8307 27.1872 45.8307 29.1663C45.8307 30.6941 45.4488 32.1004 44.6849 33.3851C43.921 34.6698 42.8793 35.6594 41.5599 36.3538C41.3516 37.9163 40.6658 39.1924 39.5026 40.182C38.3394 41.1715 36.9766 41.6663 35.4141 41.6663C34.0946 41.6663 32.9054 41.2844 31.8464 40.5205C30.7873 39.7566 30.0321 38.7497 29.5807 37.4997H20.4141C19.9627 38.7497 19.2075 39.7566 18.1484 40.5205C17.0894 41.2844 15.9002 41.6663 14.5807 41.6663ZM15.4141 20.833H22.9141V12.4997H19.6849C19.2335 12.4997 18.8342 12.6299 18.487 12.8903C18.1398 13.1507 17.8793 13.5066 17.7057 13.958L15.4141 20.833ZM27.0807 20.833H34.5807L32.2891 13.958C32.1155 13.5066 31.855 13.1507 31.5078 12.8903C31.1606 12.6299 30.7613 12.4997 30.3099 12.4997H27.0807V20.833ZM20.4141 33.333H29.5807C30.0321 32.083 30.7873 31.0761 31.8464 30.3122C32.9054 29.5483 34.0946 29.1663 35.4141 29.1663C36.4557 29.1663 37.4279 29.4094 38.3307 29.8955C39.2335 30.3816 39.9974 31.0413 40.6224 31.8747C40.9349 31.4927 41.1866 31.0674 41.3776 30.5986C41.5686 30.1299 41.6641 29.6525 41.6641 29.1663C41.6641 28.0205 41.2561 27.0396 40.4401 26.2236C39.6241 25.4077 38.6432 24.9997 37.4974 24.9997H12.4974C11.3516 24.9997 10.3707 25.4077 9.55469 26.2236C8.73871 27.0396 8.33073 28.0205 8.33073 29.1663C8.33073 29.6525 8.42621 30.1299 8.61719 30.5986C8.80816 31.0674 9.0599 31.4927 9.3724 31.8747C9.9974 31.0413 10.7613 30.3816 11.6641 29.8955C12.5668 29.4094 13.5391 29.1663 14.5807 29.1663C15.9002 29.1663 17.0894 29.5483 18.1484 30.3122C19.2075 31.0761 19.9627 32.083 20.4141 33.333ZM14.5807 37.4997C15.171 37.4997 15.6658 37.3 16.0651 36.9007C16.4644 36.5014 16.6641 36.0066 16.6641 35.4163C16.6641 34.8261 16.4644 34.3313 16.0651 33.932C15.6658 33.5327 15.171 33.333 14.5807 33.333C13.9905 33.333 13.4957 33.5327 13.0964 33.932C12.697 34.3313 12.4974 34.8261 12.4974 35.4163C12.4974 36.0066 12.697 36.5014 13.0964 36.9007C13.4957 37.3 13.9905 37.4997 14.5807 37.4997ZM35.4141 37.4997C36.0043 37.4997 36.4991 37.3 36.8984 36.9007C37.2977 36.5014 37.4974 36.0066 37.4974 35.4163C37.4974 34.8261 37.2977 34.3313 36.8984 33.932C36.4991 33.5327 36.0043 33.333 35.4141 33.333C34.8238 33.333 34.329 33.5327 33.9297 33.932C33.5304 34.3313 33.3307 34.8261 33.3307 35.4163C33.3307 36.0066 33.5304 36.5014 33.9297 36.9007C34.329 37.3 34.8238 37.4997 35.4141 37.4997Z" fill="#1C1B1F"/>
</g>
</svg>
