<svg width="100" height="51" viewBox="0 0 100 51" fill="none" xmlns="http://www.w3.org/2000/svg">
<mask id="mask0_1993_14162" style="mask-type:alpha" maskUnits="userSpaceOnUse" x="50" y="0" width="50" height="51">
<rect x="50" y="0.269531" width="50" height="50" fill="#D9D9D9"/>
</mask>
<g mask="url(#mask0_1993_14162)">
<path d="M58.334 32.5615V12.7699C58.334 10.9296 58.8114 9.46257 59.7663 8.36882C60.7211 7.27507 61.9798 6.44173 63.5423 5.86882C65.1048 5.2959 66.8843 4.91395 68.8809 4.72298C70.8774 4.53201 72.9173 4.43652 75.0007 4.43652C77.2923 4.43652 79.4538 4.53201 81.485 4.72298C83.5163 4.91395 85.2871 5.2959 86.7975 5.86882C88.3079 6.44173 89.4972 7.27507 90.3652 8.36882C91.2333 9.46257 91.6673 10.9296 91.6673 12.7699V32.5615C91.6673 34.6101 90.9642 36.3376 89.5579 37.7438C88.1517 39.1501 86.4243 39.8532 84.3757 39.8532L87.5006 42.9782V44.0199H83.334L79.1673 39.8532H70.834L66.6673 44.0199H62.5007V42.9782L65.6257 39.8532C63.577 39.8532 61.8496 39.1501 60.4434 37.7438C59.0371 36.3376 58.334 34.6101 58.334 32.5615ZM75.0007 8.60319C71.3201 8.60319 68.6291 8.8202 66.9277 9.25423C65.2263 9.68826 64.0632 10.1657 63.4382 10.6865H86.7715C86.2507 10.0962 85.1309 9.60145 83.4121 9.20215C81.6934 8.80284 78.8895 8.60319 75.0007 8.60319ZM62.5007 21.1032H72.9173V14.8532H62.5007V21.1032ZM77.084 21.1032H87.5006V14.8532H77.084V21.1032ZM67.709 33.6032C68.6118 33.6032 69.3583 33.3081 69.9486 32.7178C70.5388 32.1275 70.834 31.381 70.834 30.4782C70.834 29.5754 70.5388 28.8289 69.9486 28.2386C69.3583 27.6483 68.6118 27.3532 67.709 27.3532C66.8062 27.3532 66.0597 27.6483 65.4694 28.2386C64.8791 28.8289 64.584 29.5754 64.584 30.4782C64.584 31.381 64.8791 32.1275 65.4694 32.7178C66.0597 33.3081 66.8062 33.6032 67.709 33.6032ZM82.2923 33.6032C83.1951 33.6032 83.9416 33.3081 84.5319 32.7178C85.1222 32.1275 85.4173 31.381 85.4173 30.4782C85.4173 29.5754 85.1222 28.8289 84.5319 28.2386C83.9416 27.6483 83.1951 27.3532 82.2923 27.3532C81.3895 27.3532 80.643 27.6483 80.0527 28.2386C79.4625 28.8289 79.1673 29.5754 79.1673 30.4782C79.1673 31.381 79.4625 32.1275 80.0527 32.7178C80.643 33.3081 81.3895 33.6032 82.2923 33.6032ZM65.6257 35.6865H84.3757C85.2784 35.6865 86.025 35.3914 86.6152 34.8011C87.2055 34.2108 87.5006 33.4643 87.5006 32.5615V25.2699H62.5007V32.5615C62.5007 33.4643 62.7958 34.2108 63.3861 34.8011C63.9763 35.3914 64.7229 35.6865 65.6257 35.6865Z" fill="black"/>
</g>
<mask id="mask1_1993_14162" style="mask-type:alpha" maskUnits="userSpaceOnUse" x="0" y="0" width="50" height="50">
<rect width="50" height="50" fill="#D9D9D9"/>
</mask>
<g mask="url(#mask1_1993_14162)">
<path d="M12.5007 43.7503C11.9104 43.7503 11.4156 43.5507 11.0163 43.1514C10.617 42.7521 10.4173 42.2573 10.4173 41.667V37.3962C9.79232 36.7017 9.28885 35.9291 8.9069 35.0785C8.52496 34.2278 8.33398 33.2989 8.33398 32.292V12.5003C8.33398 9.61838 9.67079 7.50901 12.3444 6.1722C15.018 4.8354 19.2368 4.16699 25.0007 4.16699C30.9729 4.16699 35.2437 4.80935 37.8132 6.09408C40.3826 7.3788 41.6673 9.51421 41.6673 12.5003V32.292C41.6673 33.2989 41.4763 34.2278 41.0944 35.0785C40.7125 35.9291 40.209 36.7017 39.584 37.3962V41.667C39.584 42.2573 39.3843 42.7521 38.985 43.1514C38.5857 43.5507 38.0909 43.7503 37.5006 43.7503H35.4173C34.827 43.7503 34.3322 43.5507 33.9329 43.1514C33.5336 42.7521 33.334 42.2573 33.334 41.667V39.5837H16.6673V41.667C16.6673 42.2573 16.4677 42.7521 16.0684 43.1514C15.6691 43.5507 15.1743 43.7503 14.584 43.7503H12.5007ZM12.5007 20.8337H37.5006V14.5837H12.5007V20.8337ZM17.709 33.3337C18.577 33.3337 19.3149 33.0298 19.9225 32.4222C20.5302 31.8146 20.834 31.0767 20.834 30.2087C20.834 29.3406 20.5302 28.6028 19.9225 27.9951C19.3149 27.3875 18.577 27.0837 17.709 27.0837C16.8409 27.0837 16.1031 27.3875 15.4954 27.9951C14.8878 28.6028 14.584 29.3406 14.584 30.2087C14.584 31.0767 14.8878 31.8146 15.4954 32.4222C16.1031 33.0298 16.8409 33.3337 17.709 33.3337ZM32.2923 33.3337C33.1604 33.3337 33.8982 33.0298 34.5059 32.4222C35.1135 31.8146 35.4173 31.0767 35.4173 30.2087C35.4173 29.3406 35.1135 28.6028 34.5059 27.9951C33.8982 27.3875 33.1604 27.0837 32.2923 27.0837C31.4243 27.0837 30.6864 27.3875 30.0788 27.9951C29.4711 28.6028 29.1673 29.3406 29.1673 30.2087C29.1673 31.0767 29.4711 31.8146 30.0788 32.4222C30.6864 33.0298 31.4243 33.3337 32.2923 33.3337ZM13.4382 10.417H36.7715C36.2507 9.82671 35.1309 9.33192 33.4121 8.93262C31.6934 8.53331 28.9243 8.33366 25.1048 8.33366C21.3895 8.33366 18.6725 8.55067 16.9538 8.9847C15.235 9.41873 14.0632 9.89616 13.4382 10.417ZM16.6673 35.417H33.334C34.4798 35.417 35.4607 35.009 36.2767 34.193C37.0927 33.3771 37.5006 32.3962 37.5006 31.2503V25.0003H12.5007V31.2503C12.5007 32.3962 12.9086 33.3771 13.7246 34.193C14.5406 35.009 15.5215 35.417 16.6673 35.417Z" fill="#040403"/>
</g>
</svg>
