<svg width="80" height="147" viewBox="0 0 80 147" fill="none" xmlns="http://www.w3.org/2000/svg">
<path d="M15.8454 105.097C7.0424 105.097 0 111.937 0 120.486C0 129.036 7.0424 135.876 15.8454 146.136C24.6484 135.876 31.6908 129.036 31.6908 120.486C31.6908 111.937 24.6484 105.097 15.8454 105.097ZM15.8454 115.357C18.7677 115.357 21.1272 117.648 21.1272 120.486C21.1272 123.325 18.7677 125.616 15.8454 125.616C12.923 125.616 10.5636 123.325 10.5636 120.486C10.5636 117.648 12.923 115.357 15.8454 115.357Z" fill="#F88B23"/>
<path d="M63.9492 0C55.0603 0 47.9492 6.79871 47.9492 15.2971C47.9492 23.7955 55.0603 30.5942 63.9492 40.7923C72.8381 30.5942 79.9492 23.7955 79.9492 15.2971C79.9492 6.79871 72.8381 0 63.9492 0ZM63.9492 10.1981C66.9001 10.1981 69.2826 12.4759 69.2826 15.2971C69.2826 18.1183 66.9001 20.3961 63.9492 20.3961C60.9984 20.3961 58.6159 18.1183 58.6159 15.2971C58.6159 12.4759 60.9984 10.1981 63.9492 10.1981Z" fill="#F88B23"/>
</svg>
