<svg width="242" height="43" viewBox="0 0 242 43" fill="none" xmlns="http://www.w3.org/2000/svg">
<path d="M97.9794 0.178711H108.974L117.728 22.1029L126.913 0.178711H138.016L144.587 41.1889H133.43L130.252 17.5843H130.131L119.867 41.1889H115.428L105.537 17.5843H105.425L101.879 41.1889H90.7734L97.9794 0.178711Z" fill="#0B499E"/>
<path d="M181.335 41.1889H193.243L176.98 0.178711H164.782L148.34 41.1889H160.19L170.791 12.844H170.911L181.335 41.1889Z" fill="#0B499E"/>
<path d="M27.2723 0.178711V15.8344H11.2512V0.178711H0V41.1889H11.2512V24.3605H27.2723V41.1889H38.5173V0.178711H27.2723Z" fill="#0B499E"/>
<path d="M84.788 27.8447C84.8278 26.9906 84.7996 0.178711 84.7996 0.178711H84.788H73.6935V23.5472L73.6708 23.711C73.6852 29.0346 73.2913 33.6487 66.1198 33.6487C58.9482 33.6487 58.5371 29.0353 58.5255 23.7116L58.4856 0.178711H58.4168H47.3086V28.1033C47.4997 31.9921 48.4345 35.2322 51.8921 38.4306C55.4844 41.8029 61.1286 42.9996 66.1335 42.9996C71.148 42.9996 76.7805 41.8029 80.3667 38.4306C83.8016 35.2322 84.5969 31.9921 84.777 28.1033H84.7886L84.788 27.8447Z" fill="#0B499E"/>
<path d="M241.127 0.000682284H226.587L218.267 10.8082L218.247 10.7796C218.135 10.9126 218.025 11.0498 217.913 11.1814L209.692 0H196.153L210.942 19.0751L211.233 19.4667C211.025 19.7382 210.815 20.0043 210.606 20.2786C204.563 28.2132 199.597 35.8667 195.624 42.2608L195.629 42.2635C195.592 42.3365 195.567 42.4586 195.567 42.503C195.558 42.6367 195.706 42.7677 195.9 42.7731C196.017 42.7766 196.173 42.6933 196.262 42.5814L196.267 42.5842C201.687 36.433 207.619 29.8677 213.411 22.3833L213.878 23.0056C208.75 29.957 204.451 36.6035 200.934 42.2621L200.937 42.2649C200.905 42.3379 200.88 42.46 200.877 42.5043C200.874 42.6381 201.016 42.769 201.21 42.7745C201.327 42.7779 201.481 42.6947 201.572 42.5828L201.578 42.5855C206.144 37.3977 211.081 31.913 215.991 25.8355L216.464 26.4728C212.515 32.0509 209.112 37.3431 206.232 41.9715L206.239 41.9749C206.204 42.0459 206.178 42.1673 206.175 42.2157C206.173 42.3454 206.321 42.4757 206.511 42.4818C206.628 42.488 206.785 42.4027 206.876 42.2922L206.879 42.2935C210.529 38.1475 214.416 33.8083 218.336 29.1322L226.822 41.2995H240.645L224.989 20.75L241.127 0.000682284Z" fill="#0B499E"/>
</svg>
