<svg width="285" height="38" viewBox="0 0 285 38" fill="none" xmlns="http://www.w3.org/2000/svg">
<path d="M42.6424 0.921875H34.7344V36.8674H42.6424V0.921875Z" fill="#FF8300"/>
<path d="M0.945312 0.921875H8.83996V15.7339H20.3665V0.921875H28.2639V36.8674H20.3665V22.1765H8.83996V36.8674H0.945312V0.921875Z" fill="#FF8300"/>
<path d="M84.1726 6.75044C83.1083 4.90715 81.6205 3.47557 79.7091 2.45571C77.8004 1.43315 75.5741 0.921875 73.0274 0.921875H66.0389H62.2705H58.4531V36.8674H66.0416V25.5574H73.0301C75.5768 25.5574 77.8031 25.0515 79.7118 24.0263C81.6204 23.0037 83.111 21.5748 84.1753 19.7288C85.2396 17.8855 85.7717 15.7355 85.7717 13.2813V13.2275C85.769 10.7546 85.2369 8.59643 84.1726 6.75044ZM78.0529 13.3056C78.0529 15.3318 77.4502 16.898 76.2447 18.0012C75.0365 19.1045 73.345 19.6535 71.1676 19.6535H66.0389V6.90383H71.1676C73.345 6.90383 75.0365 7.4474 76.2447 8.53184C77.4502 9.62167 78.0529 11.1932 78.0529 13.2517V13.3056Z" fill="#FF8300"/>
<path d="M112.206 36.8674H120.285L107.526 0.921875H98.506L85.7773 36.8647H93.8313L96.5763 28.1467H109.464L112.206 36.8674ZM98.3523 22.5204L102.953 7.89895H103.107L107.696 22.5204H98.3523Z" fill="#FF8300"/>
<path d="M125.32 0.921875H140.16C142.85 0.921875 145.152 1.38199 147.07 2.30222C148.988 3.22784 150.456 4.54091 151.478 6.25491C152.498 7.96353 153.006 10.0219 153.006 12.4301V12.4813C153.006 14.8545 152.423 16.9613 151.252 18.7964C150.082 20.6315 148.501 21.9392 146.508 22.7195L154.077 36.8674H145.537L138.863 23.8658H138.68H138.492H132.841V36.8674H125.32V0.921875ZM139.339 18.1345C141.195 18.1345 142.656 17.634 143.721 16.6385C144.786 15.6402 145.316 14.2625 145.316 12.5028V12.4517C145.316 10.7269 144.762 9.35733 143.662 8.34292C142.559 7.33121 141.082 6.82535 139.24 6.82535H132.841V18.1345H139.339Z" fill="#FF8300"/>
<path d="M206.548 0.921875H199.359V36.8674H206.548V0.921875Z" fill="#FF8300"/>
<path d="M237.223 0.921875V24.289H237.057L220.973 0.921875H214.457V36.8674H221.891V13.3522H222.043L238.183 36.8674H244.651V0.921875H237.223Z" fill="#FF8300"/>
<path d="M259.341 35.3322C256.711 33.8282 254.684 31.675 253.261 28.8699C251.835 26.0648 251.125 22.7052 251.125 18.7802V18.7559C251.125 14.8823 251.832 11.5659 253.245 8.8014C254.665 6.03958 256.678 3.91343 259.289 2.43108C261.904 0.940619 264.987 0.202148 268.544 0.202148C271.477 0.202148 274.064 0.716102 276.307 1.75483C278.549 2.79085 280.374 4.19205 281.783 5.97466C283.193 7.75186 284.094 9.77521 284.499 12.0447L284.575 12.4207H276.891L276.812 12.1448C276.208 10.4082 275.195 9.05026 273.783 8.07646C272.362 7.09995 270.631 6.61304 268.577 6.61304C266.566 6.61304 264.843 7.08642 263.403 8.03588C261.961 8.99075 260.855 10.3649 260.087 12.1692C259.322 13.9707 258.94 16.1482 258.94 18.7045V18.7288C258.94 21.3148 259.341 23.541 260.15 25.4048C260.961 27.2659 262.108 28.6941 263.592 29.6841C265.075 30.6769 266.828 31.1746 268.847 31.1746C270.5 31.1746 271.961 30.8717 273.226 30.263C274.49 29.649 275.493 28.7942 276.233 27.6824C276.976 26.5734 277.375 25.2723 277.427 23.7899L277.451 23.2895H269.535V17.6306H284.914V21.7828C284.914 25.0748 284.266 27.8961 282.977 30.2468C281.688 32.6002 279.839 34.4125 277.429 35.6839C275.018 36.9525 272.119 37.5855 268.73 37.5855C265.097 37.5855 261.972 36.8335 259.341 35.3322Z" fill="#FF8300"/>
<path d="M176.359 0.921875L166.371 18.1344L176.359 36.8674H168.378L158.387 18.1344L168.378 0.921875H176.359Z" fill="#FF8300"/>
<path d="M191.453 0.921875L181.463 18.1344L191.453 36.8674H183.47L173.48 18.1344L183.47 0.921875H191.453Z" fill="#FF8300"/>
</svg>
