<svg width="593" height="476" viewBox="0 0 593 476" fill="none" xmlns="http://www.w3.org/2000/svg">
<path d="M412.888 307.35L409.951 308.515L397.222 306.045L394.908 303.308V289.833L373.007 291.194L364.893 301.694L363.2 302.746L315.697 312.628L314.322 312.586L299.915 308.698L289.746 312.123L286.347 310.93L275.744 294.044L252.151 303.42L250.155 303.49L215.381 292.387L213.486 290.352L212.213 285.004L213.471 282.028L220.66 277.593L211.909 259.626H207.801L205.327 258.264L202.377 253.478L188.794 253.843L186.725 253.057L173.779 240.915L160.167 253.478L157.231 254.095L150.562 251.836L134.766 269.03L120.591 301.202L125.089 306.466L125.668 307.575L128.257 317.639L131.136 323.998L131.179 326.145L120.186 353.292L122.471 376.537L128.257 377.744L130.528 380.467V389.507L141.58 396.904L142.708 398.434L146.946 412.835L146.02 415.755L133.653 425.623L131.96 433.736L141.276 439.575L145.095 432.009L166.561 421.37L178.162 424.921L188.027 408.4L192.801 412.106L188.345 424.458L191.687 438.494L224.132 441.428L232.392 434.48L237.165 437.568L228.096 444.67L234.142 450.229L242.257 445.751L244.485 449.457L233.028 461.178L234.778 464.42L240.507 464.883L244.325 476L255.608 470.751L251.963 457.472L257.677 442.509L252.759 442.972L252.122 431.392L263.405 420.906V416.583L261.177 409.326L275.657 404.694L277.885 414.885L287.258 409.172L281.863 391.275L284.553 390.658L289.804 399.304L298.874 399.459L297.919 409.481L313.816 411.488L324.318 416.12L341.806 408.709L348.966 422.605L370.433 407.628L390.959 390.658L397.309 372.143L411.629 361.335V347.607L421.958 337.726L428.481 341.277L434.643 308.642L417.82 300.332L412.888 307.35Z" fill="#FFCE87"/>
<path d="M442.8 288.19L461.402 223.833L458.538 219.201L439.935 237.111L426.729 226.766L426.888 220.436L430.866 213.81L431.184 167.658L445.664 139.571L445.982 134.49L442.8 125.534L449.15 93.4325L446.922 35.714L434.482 9.81641L423.156 11.6131L409.356 27.3481L405.856 28.0219L388.194 19.1788L378.979 23.4319L375.956 23.081L368.203 17.1014L362.909 17.312L357.846 23.1652L353.492 23.2214L344.928 13.8168L337.406 15.5153L337.84 20.6807L335.439 23.6565L326.688 25.0461L324.402 24.4566L317.719 19.1367L301.851 23.6425L292.883 34.956L290.959 36.0228L282.482 37.0474L279.358 44.8237L282.989 51.7438L283.119 53.9896L278.909 64.7978L274.613 66.1172L270.708 63.5626L264.401 68.4473L260.495 68.1666L247.26 54.2002L246.768 55.6179L242.631 60.8676L238.667 61.4431L229.467 55.0704L226.054 58.2146V66.5805L221.251 68.6579L217.432 65.3452L215.928 67.0998L219.53 72.4618L219.978 74.3848L218.705 83.0314L213.961 84.7298L207.133 78.9467H192.827L189.486 82.0067L194.925 88.9688L194.867 92.4219L187.866 100.76L184.51 101.56L174.558 97.4049L172.258 99.9314L180.185 106.43L181.183 108.339L184.047 142.589L183.729 144.119L176.67 157.089V160.542L191.598 165.258L202.678 163.517L206.005 166.268V181.709L204.038 184.348L195.069 187.253L191.612 201.486L191.279 202.3L183.324 214.947L179.924 216.141L176.106 214.863L178.695 221.699L178.839 223.061L176.858 236.044L189.847 248.228L203.893 247.849L206.453 249.211L209.433 254.039H213.729L216.333 255.64L226.936 277.424L225.88 280.976L218.271 285.678L218.72 287.573L250.948 297.876L275.828 287.966L279.387 289.103L290.048 306.115L298.886 303.139L300.593 303.097L315.174 307.028L360.941 297.511L369.201 286.829L371.313 285.706L397.596 284.064L400.663 286.857V301.02L409.211 302.676L414.491 295.153L418.18 294.24L435.726 302.915L436.435 299.139L442.8 288.19Z" fill="#FFCE87"/>
<path d="M359.564 369.831H63.1282V149.328V126H0" stroke="#F88B23" stroke-width="3"/>
<path d="M413.734 251.967L413.734 1.49998L593 1.5" stroke="#F88B23" stroke-width="3"/>
<circle cx="357.646" cy="369" r="8" fill="#F88B23"/>
<circle cx="377" cy="385" r="8" fill="#F88B23"/>
<circle cx="413.6" cy="253.5" r="8" fill="#F88B23"/>
<line x1="377" y1="385.461" x2="506" y2="385.461" stroke="#F88B23" stroke-width="3"/>
</svg>
