<svg width="161" height="177" viewBox="0 0 161 177" fill="none" xmlns="http://www.w3.org/2000/svg">
<path fill-rule="evenodd" clip-rule="evenodd" d="M-127.409 129C-122.844 118.972 -112.736 112 -101 112C-96.665 112 -92.5521 112.951 -88.8587 114.656C-87.3105 93.6726 -73.1891 76.1855 -53.9994 69.6998C-53.8376 31.1779 -22.5598 0 16 0C54.6599 0 86 31.3401 86 70C86 70.9001 85.983 71.7962 85.9493 72.6881C93.0073 69.0525 101.014 67 109.5 67C137.943 67 161 90.0573 161 118.5C161 122.098 160.631 125.61 159.929 129H161V177H-130V141V129H-127.409ZM59.0712 129H53.6858C55.3357 127.944 56.9384 126.821 58.4901 125.634C58.6473 126.768 58.8414 127.891 59.0712 129Z" fill="url(#paint0_linear_466_3930)"/>
<defs>
<linearGradient id="paint0_linear_466_3930" x1="15.5" y1="0" x2="15.5" y2="177" gradientUnits="userSpaceOnUse">
<stop stop-color="#D8F3F9"/>
<stop offset="1" stop-color="white" stop-opacity="0"/>
</linearGradient>
</defs>
</svg>
