<svg width="1920" height="202" viewBox="0 0 1920 202" fill="none" xmlns="http://www.w3.org/2000/svg">
<path fill-rule="evenodd" clip-rule="evenodd" d="M-77.4085 129C-72.8445 118.972 -62.7364 112 -51 112C-46.665 112 -42.5521 112.951 -38.8587 114.656C-37.3105 93.6726 -23.1891 76.1855 -3.99937 69.6998C-3.83762 31.1779 27.4402 0 66 0C104.66 0 136 31.3401 136 70C136 70.9001 135.983 71.7962 135.949 72.6881C143.007 69.0525 151.014 67 159.5 67C187.943 67 211 90.0573 211 118.5C211 122.098 210.631 125.61 209.929 129H211V177H-80V141V129H-77.4085ZM109.071 129H103.686C105.336 127.944 106.938 126.821 108.49 125.634C108.647 126.768 108.841 127.891 109.071 129Z" fill="url(#paint0_linear_1353_5619)"/>
<path fill-rule="evenodd" clip-rule="evenodd" d="M333.698 157.867C331.404 152.823 326.32 149.316 320.418 149.316C318.238 149.316 316.171 149.795 314.314 150.652C313.536 140.1 306.435 131.307 296.786 128.045C296.704 108.676 280.977 93 261.588 93C242.149 93 226.391 108.759 226.391 128.198C226.391 128.65 226.399 129.099 226.416 129.547C222.867 127.719 218.842 126.688 214.575 126.688C200.273 126.688 188.68 138.281 188.68 152.583C188.68 154.394 188.866 156.161 189.219 157.867H188.68V182.003H335.002V157.867H333.698ZM239.931 157.867H242.643C241.812 157.335 241.005 156.77 240.224 156.172C240.145 156.743 240.047 157.309 239.931 157.867Z" fill="url(#paint1_linear_1353_5619)"/>
<path fill-rule="evenodd" clip-rule="evenodd" d="M1241.04 111.523C1237.59 103.942 1229.95 98.6719 1221.07 98.6719C1217.8 98.6719 1214.69 99.3907 1211.9 100.679C1210.72 84.8174 1200.05 71.5986 1185.54 66.6945C1185.42 37.5712 1161.78 14 1132.62 14C1103.4 14 1079.7 37.6935 1079.7 66.921C1079.7 67.6016 1079.72 68.2793 1079.74 68.9537C1074.41 66.2045 1068.35 64.6523 1061.93 64.6523C1040.43 64.6523 1023 82.084 1023 103.587C1023 106.307 1023.28 108.961 1023.81 111.523H1023V147.812H1243V111.523H1241.04ZM1100.06 111.523H1104.13C1102.88 110.725 1101.67 109.876 1100.5 108.979C1100.38 109.837 1100.23 110.685 1100.06 111.523Z" fill="url(#paint2_linear_1353_5619)"/>
<path fill-rule="evenodd" clip-rule="evenodd" d="M1917.41 154C1912.84 143.972 1902.74 137 1891 137C1886.66 137 1882.55 137.951 1878.86 139.656C1877.31 118.673 1863.19 101.186 1844 94.6998C1843.84 56.1779 1812.56 25 1774 25C1735.34 25 1704 56.3401 1704 95C1704 95.9001 1704.02 96.7962 1704.05 97.6881C1696.99 94.0525 1688.99 92 1680.5 92C1652.06 92 1629 115.057 1629 143.5C1629 147.098 1629.37 150.61 1630.07 154H1629V202H1920V166V154H1917.41ZM1730.93 154H1736.31C1734.66 152.944 1733.06 151.821 1731.51 150.634C1731.35 151.768 1731.16 152.891 1730.93 154Z" fill="url(#paint3_linear_1353_5619)"/>
<defs>
<linearGradient id="paint0_linear_1353_5619" x1="65.5" y1="0" x2="65.5" y2="177" gradientUnits="userSpaceOnUse">
<stop stop-color="#D8F3F9"/>
<stop offset="1" stop-color="white" stop-opacity="0"/>
</linearGradient>
<linearGradient id="paint1_linear_1353_5619" x1="261.841" y1="93" x2="261.841" y2="182.003" gradientUnits="userSpaceOnUse">
<stop stop-color="#D8F3F9"/>
<stop offset="1" stop-color="white" stop-opacity="0"/>
</linearGradient>
<linearGradient id="paint2_linear_1353_5619" x1="1133" y1="14" x2="1133" y2="147.812" gradientUnits="userSpaceOnUse">
<stop stop-color="#D8F1F9"/>
<stop offset="1" stop-color="white" stop-opacity="0"/>
</linearGradient>
<linearGradient id="paint3_linear_1353_5619" x1="1774.5" y1="25" x2="1774.5" y2="202" gradientUnits="userSpaceOnUse">
<stop stop-color="#D8F3F9"/>
<stop offset="1" stop-color="white" stop-opacity="0"/>
</linearGradient>
</defs>
</svg>
