<svg width="156" height="156" viewBox="0 0 156 156" fill="none" xmlns="http://www.w3.org/2000/svg">
<g filter="url(#filter0_i_466_4493)">
<path d="M52.2415 24.5562C57.5362 32.1809 55.8351 42.5237 55.8351 42.5237C55.8351 42.5237 45.5496 40.5046 40.2549 32.8799C34.9602 25.2552 36.6613 14.9124 36.6613 14.9124C36.6613 14.9124 46.9468 16.9315 52.2415 24.5562Z" fill="#8EE26B"/>
</g>
<g filter="url(#filter1_i_466_4493)">
<path d="M55.8359 17.623H79.2193V156H55.8359V17.623Z" fill="#B95E1A"/>
</g>
<path d="M55.8359 85.6621H78.9943V108.414H55.8359V85.6621Z" fill="#8B4613"/>
<path d="M55.8359 38.709H78.9943V61.461H55.8359V38.709Z" fill="#8B4613"/>
<g filter="url(#filter2_ii_466_4493)">
<path d="M0.308594 49.9083C0.308594 45.5223 3.86412 41.9668 8.25008 41.9668H13.5328C14.4628 41.9668 15.3838 42.1339 16.2719 42.41C17.7902 42.8821 20.3054 43.5627 22.2013 43.5684C24.1329 43.5742 26.7009 42.8831 28.2389 42.4069C29.1242 42.1329 30.0427 41.9668 30.9693 41.9668H123.539C125.457 41.9668 127.311 42.661 128.757 43.9211L153.277 65.2888C156.909 68.4539 156.909 74.0979 153.277 77.2631L128.757 98.6307C127.311 99.8909 125.457 100.585 123.539 100.585H86.3678C85.2443 100.585 84.1335 100.347 83.1089 99.8856L81.7989 99.2961C79.5641 98.2904 76.9901 98.3728 74.8242 99.5195L74.5548 99.6621C73.41 100.268 72.1343 100.585 70.839 100.585H8.25008C3.86413 100.585 0.308594 97.0295 0.308594 92.6436V49.9083Z" fill="#FFB65F"/>
</g>
<path fill-rule="evenodd" clip-rule="evenodd" d="M74.954 53.1818C49.265 52.4265 19.7683 52.8108 0.445184 53.398L0.431783 52.957C19.7604 52.3697 49.2663 51.9852 74.967 52.7408C87.8167 53.1185 99.7198 53.7814 108.926 54.8472C113.528 55.3801 117.462 56.0142 120.505 56.7655C122.026 57.1411 123.33 57.5471 124.385 57.9862C125.437 58.4242 126.256 58.9011 126.797 59.4254C127.071 59.6908 127.259 59.9685 127.344 60.2601C127.43 60.5567 127.405 60.8515 127.279 61.1351C127.035 61.6852 126.419 62.1831 125.544 62.6459C123.779 63.5789 120.774 64.4619 116.826 65.2982C108.919 66.9729 97.141 68.4773 83.6946 69.7894C56.7979 72.4139 23.1919 74.2719 0.44728 75.1796L0.429688 74.7388C23.1702 73.8313 56.7669 71.9736 83.6517 69.3503C97.0959 68.0384 108.853 66.5358 116.734 64.8665C120.68 64.0308 123.632 63.1575 125.338 62.2558C126.198 61.8012 126.696 61.3621 126.876 60.9563C126.962 60.762 126.976 60.5741 126.921 60.3833C126.864 60.1877 126.729 59.9734 126.49 59.7423C126.007 59.2736 125.245 58.8224 124.215 58.3936C123.188 57.9659 121.908 57.5662 120.399 57.1938C117.382 56.449 113.469 55.8174 108.875 55.2855C99.6877 54.2218 87.7992 53.5594 74.954 53.1818Z" fill="#FF8C3C"/>
<path fill-rule="evenodd" clip-rule="evenodd" d="M67.8413 75.7033C99.309 75.3238 134.584 76.0839 153.908 76.6711L153.922 76.2301C134.595 75.6428 99.3125 74.8825 67.836 75.2621C52.0983 75.4519 37.3079 75.9267 25.9373 76.8511C20.2527 77.3133 15.4174 77.8882 11.7439 78.5974C9.90731 78.9519 8.35593 79.341 7.13169 79.7682C5.91337 80.1934 4.99524 80.6643 4.44733 81.1951C4.17336 81.4605 3.98529 81.7382 3.90047 82.0299C3.81424 82.3264 3.83965 82.6212 3.96544 82.9049C4.20935 83.4549 4.82524 83.9528 5.70068 84.4156C7.46575 85.3486 10.471 86.2317 14.4189 87.0679C22.3255 88.7426 34.1036 90.247 47.5501 91.5591C74.4467 94.1836 108.053 96.0417 130.797 96.9493L130.815 96.5085C108.074 95.601 74.4777 93.7433 47.5929 91.12C34.1487 89.8081 22.3914 88.3055 14.5103 86.6363C10.5644 85.8005 7.61272 84.9273 5.90685 84.0255C5.0468 83.5709 4.54872 83.1319 4.36876 82.726C4.28262 82.5317 4.26864 82.3438 4.32412 82.1531C4.38102 81.9574 4.51576 81.7431 4.75431 81.512C5.23141 81.0498 6.07471 80.6044 7.27707 80.1848C8.47351 79.7672 10.0021 79.3829 11.8275 79.0306C15.4779 78.3259 20.2948 77.7525 25.9731 77.2909C37.3284 76.3677 52.1069 75.893 67.8413 75.7033Z" fill="#FF8C3C"/>
<path fill-rule="evenodd" clip-rule="evenodd" d="M102.089 81.1633C118.812 80.9616 137.56 81.3656 147.83 81.6777L147.844 81.2367C137.57 80.9246 118.816 80.5204 102.084 80.7222C93.718 80.8231 85.8539 81.0755 79.8067 81.5671C76.7837 81.8128 74.2094 82.1188 72.2515 82.4968C71.2727 82.6857 70.4428 82.8936 69.7856 83.123C69.1343 83.3503 68.6287 83.6066 68.3209 83.9048C68.167 84.0539 68.0546 84.2163 68.0029 84.3938C67.9499 84.5762 67.9661 84.7579 68.0422 84.9296C68.1869 85.2558 68.5418 85.5342 69.0107 85.7821C69.9628 86.2853 71.5726 86.757 73.6715 87.2015C77.8799 88.0929 84.145 88.893 91.2925 89.5904C105.591 90.9857 123.455 91.9733 135.545 92.4558L135.563 92.015C123.477 91.5327 105.622 90.5454 91.3354 89.1513C84.1901 88.4541 77.9458 87.6559 73.7629 86.7699C71.6661 86.3258 70.1097 85.864 69.2169 85.392C68.7634 85.1523 68.5262 84.9327 68.4456 84.7508C68.4091 84.6685 68.4043 84.5936 68.4266 84.517C68.4503 84.4355 68.5094 84.3364 68.6279 84.2216C68.8649 83.9921 69.2956 83.7613 69.9309 83.5395C70.5604 83.3199 71.3675 83.1168 72.3351 82.93C74.2699 82.5564 76.8259 82.2521 79.8425 82.0068C85.8744 81.5164 93.7266 81.2642 102.089 81.1633Z" fill="#FF8C3C"/>
<path fill-rule="evenodd" clip-rule="evenodd" d="M62.042 55.1794C40.805 54.5551 16.4199 54.8728 0.445184 55.3582L0.431783 54.9172C16.4119 54.4316 40.8063 54.1137 62.055 54.7384C72.6787 55.0508 82.5207 55.5988 90.1331 56.4801C93.9387 56.9207 97.1927 57.4453 99.7108 58.0669C100.97 58.3777 102.049 58.7139 102.924 59.078C103.796 59.4409 104.478 59.8373 104.93 60.2756C105.16 60.498 105.32 60.733 105.393 60.9825C105.467 61.2368 105.445 61.4898 105.337 61.732C105.13 62.1993 104.611 62.616 103.886 62.9993C102.421 63.7734 99.932 64.5043 96.6679 65.1957C90.129 66.5807 80.3899 67.8246 69.273 68.9094C47.0356 71.0792 19.2514 72.6154 0.44728 73.3658L0.429688 72.925C19.2298 72.1747 47.0045 70.639 69.2301 68.4702C80.3448 67.3857 90.0632 66.1436 96.5765 64.764C99.8385 64.0731 102.274 63.352 103.679 62.6093C104.389 62.2341 104.791 61.8762 104.934 61.5532C105.002 61.4003 105.012 61.2542 104.969 61.1057C104.924 60.9523 104.818 60.7806 104.623 60.5925C104.228 60.2098 103.604 59.839 102.754 59.4853C101.907 59.1327 100.851 58.8028 99.605 58.4952C97.1129 57.88 93.8797 57.3581 90.0823 56.9184C82.4886 56.0392 72.6612 55.4916 62.042 55.1794Z" fill="#FF8C3C"/>
<path fill-rule="evenodd" clip-rule="evenodd" d="M37.8504 58.5418C24.9262 58.1618 10.0855 58.3552 0.363153 58.6506L0.349752 58.2096C10.0775 57.914 24.9276 57.7205 37.8633 58.1008C44.3306 58.2909 50.324 58.6246 54.9611 59.1615C57.2791 59.4298 59.2638 59.7496 60.8016 60.1292C61.5704 60.319 62.232 60.5249 62.7698 60.7487C63.3046 60.9714 63.7314 61.2178 64.018 61.4954C64.1647 61.6375 64.2726 61.7929 64.3222 61.9636C64.3732 62.1391 64.3576 62.3139 64.2844 62.4789C64.1458 62.7915 63.8066 63.0567 63.3623 63.2916C62.4594 63.7689 60.9338 64.2157 58.9466 64.6366C54.9616 65.4807 49.0296 66.2382 42.2626 66.8985C28.7249 68.2194 11.8116 69.1545 0.365249 69.6113L0.347656 69.1705C11.79 68.7139 28.6939 67.7792 42.2197 66.4594C48.9845 65.7993 54.8957 65.0436 58.8552 64.205C60.8403 63.7845 62.3124 63.3475 63.1561 62.9015C63.5851 62.6748 63.8064 62.4685 63.8811 62.3001C63.9146 62.2245 63.9188 62.1565 63.8985 62.0868C63.8768 62.0122 63.8223 61.9201 63.711 61.8123C63.4818 61.5903 63.1131 61.3696 62.6002 61.156C62.0901 60.9437 61.4517 60.7442 60.6958 60.5575C59.184 60.1843 57.2201 59.8671 54.9103 59.5997C50.2919 59.065 44.3131 58.7318 37.8504 58.5418Z" fill="#FF8C3C"/>
<g filter="url(#filter3_i_466_4493)">
<path d="M87.1366 12.9132C83.9234 17.0885 78.0367 17.9476 78.0367 17.9476C78.0367 17.9476 77.3595 12.0371 80.5727 7.86182C83.7858 3.68651 89.6726 2.82744 89.6726 2.82744C89.6726 2.82744 90.3498 8.73788 87.1366 12.9132Z" fill="#8EE26B"/>
</g>
<g filter="url(#filter4_i_466_4493)">
<path d="M82.1416 48.2733C78.6998 44.2844 79.0451 38.3453 79.0451 38.3453C79.0451 38.3453 84.9707 38.8735 88.4125 42.8624C91.8544 46.8513 91.5091 52.7904 91.5091 52.7904C91.5091 52.7904 85.5835 52.2622 82.1416 48.2733Z" fill="#00A763"/>
</g>
<g filter="url(#filter5_i_466_4493)">
<path d="M78.7549 143.422C81.7221 139.069 87.5496 137.872 87.5496 137.872C87.5496 137.872 88.5663 143.733 85.5991 148.087C82.6319 152.44 76.8045 153.637 76.8045 153.637C76.8045 153.637 75.7878 147.776 78.7549 143.422Z" fill="#00A763"/>
</g>
<g filter="url(#filter6_i_466_4493)">
<path d="M51.6918 143.202C57.2894 145.41 60.0918 151.6 60.0918 151.6C60.0918 151.6 53.8188 154.21 48.2212 152.002C42.6237 149.795 39.8212 143.605 39.8212 143.605C39.8212 143.605 46.0943 140.995 51.6918 143.202Z" fill="#8EE26B"/>
</g>
<defs>
<filter id="filter0_i_466_4493" x="36.4023" y="14.9121" width="19.6914" height="27.6113" filterUnits="userSpaceOnUse" color-interpolation-filters="sRGB">
<feFlood flood-opacity="0" result="BackgroundImageFix"/>
<feBlend mode="normal" in="SourceGraphic" in2="BackgroundImageFix" result="shape"/>
<feColorMatrix in="SourceAlpha" type="matrix" values="0 0 0 0 0 0 0 0 0 0 0 0 0 0 0 0 0 0 127 0" result="hardAlpha"/>
<feOffset dx="8" dy="4"/>
<feComposite in2="hardAlpha" operator="arithmetic" k2="-1" k3="1"/>
<feColorMatrix type="matrix" values="0 0 0 0 0 0 0 0 0 0.654902 0 0 0 0 0.388235 0 0 0 1 0"/>
<feBlend mode="normal" in2="shape" result="effect1_innerShadow_466_4493"/>
</filter>
<filter id="filter1_i_466_4493" x="55.8359" y="17.623" width="23.3828" height="138.377" filterUnits="userSpaceOnUse" color-interpolation-filters="sRGB">
<feFlood flood-opacity="0" result="BackgroundImageFix"/>
<feBlend mode="normal" in="SourceGraphic" in2="BackgroundImageFix" result="shape"/>
<feColorMatrix in="SourceAlpha" type="matrix" values="0 0 0 0 0 0 0 0 0 0 0 0 0 0 0 0 0 0 127 0" result="hardAlpha"/>
<feOffset dx="11" dy="-4"/>
<feComposite in2="hardAlpha" operator="arithmetic" k2="-1" k3="1"/>
<feColorMatrix type="matrix" values="0 0 0 0 0 0 0 0 0 0 0 0 0 0 0 0 0 0 0.25 0"/>
<feBlend mode="normal" in2="shape" result="effect1_innerShadow_466_4493"/>
</filter>
<filter id="filter2_ii_466_4493" x="0.308594" y="41.9668" width="155.691" height="58.6182" filterUnits="userSpaceOnUse" color-interpolation-filters="sRGB">
<feFlood flood-opacity="0" result="BackgroundImageFix"/>
<feBlend mode="normal" in="SourceGraphic" in2="BackgroundImageFix" result="shape"/>
<feColorMatrix in="SourceAlpha" type="matrix" values="0 0 0 0 0 0 0 0 0 0 0 0 0 0 0 0 0 0 127 0" result="hardAlpha"/>
<feOffset dx="1" dy="-3"/>
<feComposite in2="hardAlpha" operator="arithmetic" k2="-1" k3="1"/>
<feColorMatrix type="matrix" values="0 0 0 0 0 0 0 0 0 0 0 0 0 0 0 0 0 0 0.25 0"/>
<feBlend mode="normal" in2="shape" result="effect1_innerShadow_466_4493"/>
<feColorMatrix in="SourceAlpha" type="matrix" values="0 0 0 0 0 0 0 0 0 0 0 0 0 0 0 0 0 0 127 0" result="hardAlpha"/>
<feOffset dy="18"/>
<feComposite in2="hardAlpha" operator="arithmetic" k2="-1" k3="1"/>
<feColorMatrix type="matrix" values="0 0 0 0 1 0 0 0 0 0.54902 0 0 0 0 0.235294 0 0 0 1 0"/>
<feBlend mode="normal" in2="effect1_innerShadow_466_4493" result="effect2_innerShadow_466_4493"/>
</filter>
<filter id="filter3_i_466_4493" x="77.9766" y="2.82715" width="11.7539" height="15.1201" filterUnits="userSpaceOnUse" color-interpolation-filters="sRGB">
<feFlood flood-opacity="0" result="BackgroundImageFix"/>
<feBlend mode="normal" in="SourceGraphic" in2="BackgroundImageFix" result="shape"/>
<feColorMatrix in="SourceAlpha" type="matrix" values="0 0 0 0 0 0 0 0 0 0 0 0 0 0 0 0 0 0 127 0" result="hardAlpha"/>
<feOffset dx="3" dy="-1"/>
<feComposite in2="hardAlpha" operator="arithmetic" k2="-1" k3="1"/>
<feColorMatrix type="matrix" values="0 0 0 0 0 0 0 0 0 0.654902 0 0 0 0 0.388235 0 0 0 1 0"/>
<feBlend mode="normal" in2="shape" result="effect1_innerShadow_466_4493"/>
</filter>
<filter id="filter4_i_466_4493" x="79.0352" y="38.3457" width="12.4844" height="14.4443" filterUnits="userSpaceOnUse" color-interpolation-filters="sRGB">
<feFlood flood-opacity="0" result="BackgroundImageFix"/>
<feBlend mode="normal" in="SourceGraphic" in2="BackgroundImageFix" result="shape"/>
<feColorMatrix in="SourceAlpha" type="matrix" values="0 0 0 0 0 0 0 0 0 0 0 0 0 0 0 0 0 0 127 0" result="hardAlpha"/>
<feOffset dx="-1" dy="-3"/>
<feComposite in2="hardAlpha" operator="arithmetic" k2="-1" k3="1"/>
<feColorMatrix type="matrix" values="0 0 0 0 0 0 0 0 0 0 0 0 0 0 0 0 0 0 0.25 0"/>
<feBlend mode="normal" in2="shape" result="effect1_innerShadow_466_4493"/>
</filter>
<filter id="filter5_i_466_4493" x="76.6367" y="137.872" width="11.082" height="15.7656" filterUnits="userSpaceOnUse" color-interpolation-filters="sRGB">
<feFlood flood-opacity="0" result="BackgroundImageFix"/>
<feBlend mode="normal" in="SourceGraphic" in2="BackgroundImageFix" result="shape"/>
<feColorMatrix in="SourceAlpha" type="matrix" values="0 0 0 0 0 0 0 0 0 0 0 0 0 0 0 0 0 0 127 0" result="hardAlpha"/>
<feOffset dx="3"/>
<feComposite in2="hardAlpha" operator="arithmetic" k2="-1" k3="1"/>
<feColorMatrix type="matrix" values="0 0 0 0 0 0 0 0 0 0 0 0 0 0 0 0 0 0 0.25 0"/>
<feBlend mode="normal" in2="shape" result="effect1_innerShadow_466_4493"/>
</filter>
<filter id="filter6_i_466_4493" x="39.8203" y="142.315" width="20.2734" height="10.5732" filterUnits="userSpaceOnUse" color-interpolation-filters="sRGB">
<feFlood flood-opacity="0" result="BackgroundImageFix"/>
<feBlend mode="normal" in="SourceGraphic" in2="BackgroundImageFix" result="shape"/>
<feColorMatrix in="SourceAlpha" type="matrix" values="0 0 0 0 0 0 0 0 0 0 0 0 0 0 0 0 0 0 127 0" result="hardAlpha"/>
<feOffset dx="7"/>
<feComposite in2="hardAlpha" operator="arithmetic" k2="-1" k3="1"/>
<feColorMatrix type="matrix" values="0 0 0 0 0 0 0 0 0 0.654902 0 0 0 0 0.388235 0 0 0 1 0"/>
<feBlend mode="normal" in2="shape" result="effect1_innerShadow_466_4493"/>
</filter>
</defs>
</svg>
