<svg width="12" height="72" viewBox="0 0 12 72" fill="none" xmlns="http://www.w3.org/2000/svg">
<path d="M5.99864 0.666667C8.94416 0.666667 11.3326 3.05448 11.3333 6C11.3341 8.94552 8.94688 11.3333 6.00136 11.3333C3.05584 11.3333 0.667417 8.94552 0.666667 6C0.665916 3.05448 3.05312 0.666667 5.99864 0.666667ZM6.01393 60.6667C8.95945 60.6667 11.3479 63.0545 11.3486 66C11.3494 68.9455 8.96216 71.3333 6.01664 71.3333C3.07113 71.3333 0.682702 68.9455 0.681952 66C0.681202 63.0545 3.06841 60.6667 6.01393 60.6667ZM7.00076 9C7.0009 9.55228 6.5533 10 6.00102 10C5.44873 10 5.0009 9.55228 5.00076 9L7.00076 9ZM5.00229 15C5.00215 14.4477 5.44975 14 6.00204 14C6.55432 14 7.00215 14.4477 7.00229 15L5.00229 15ZM7.00382 21C7.00396 21.5523 6.55636 22 6.00408 22C5.45179 22 5.00396 21.5523 5.00382 21L7.00382 21ZM5.00535 27C5.00521 26.4477 5.45281 26 6.0051 26C6.55738 26 7.00521 26.4477 7.00535 27L5.00535 27ZM7.00688 33C7.00702 33.5523 6.55942 34 6.00713 34C5.45485 34 5.00702 33.5523 5.00688 33L7.00688 33ZM5.00841 39C5.00827 38.4477 5.45587 38 6.00815 38C6.56044 38 7.00827 38.4477 7.00841 39L5.00841 39ZM7.00994 45C7.01008 45.5523 6.56247 46 6.01019 46C5.45791 46 5.01008 45.5523 5.00994 45L7.00994 45ZM5.01146 51C5.01132 50.4477 5.45892 50 6.01121 50C6.56349 50 7.01132 50.4477 7.01146 51L5.01146 51ZM7.01299 57C7.01313 57.5523 6.56553 58 6.01325 58C5.46096 58 5.01313 57.5523 5.01299 57L7.01299 57ZM5.01452 63C5.01438 62.4477 5.46198 62 6.01427 62C6.56655 62 7.01438 62.4477 7.01452 63L5.01452 63ZM7 6L7.00076 9L5.00076 9L5 6L7 6ZM7.00229 15L7.00382 21L5.00382 21L5.00229 15L7.00229 15ZM7.00535 27L7.00688 33L5.00688 33L5.00535 27L7.00535 27ZM7.00841 39L7.00994 45L5.00994 45L5.00841 39L7.00841 39ZM7.01146 51L7.01299 57L5.01299 57L5.01146 51L7.01146 51ZM7.01452 63L7.01529 66L5.01529 66L5.01452 63L7.01452 63Z" fill="#F88B23"/>
</svg>
