<svg width="31" height="30" viewBox="0 0 31 30" fill="none" xmlns="http://www.w3.org/2000/svg">
<g clip-path="url(#clip0_1797_819)">
<path d="M15.4313 2.74425C19.5123 2.74425 19.9913 2.76205 21.6043 2.83327C23.0961 2.89855 23.9026 3.14188 24.4423 3.34961C25.1578 3.62261 25.6672 3.9431 26.2008 4.46537C26.7344 4.98764 27.0679 5.48617 27.3408 6.18649C27.547 6.71469 27.8017 7.50403 27.8684 8.96402C27.9411 10.5427 27.9593 11.0116 27.9593 15.0057C27.9593 18.9999 27.9411 19.4688 27.8684 21.0475C27.8017 22.5074 27.553 23.2968 27.3408 23.825C27.0619 24.5253 26.7344 25.0238 26.2008 25.5461C25.6672 26.0684 25.1578 26.3948 24.4423 26.6619C23.9026 26.8637 23.0961 27.1129 21.6043 27.1782C19.9913 27.2494 19.5123 27.2672 15.4313 27.2672C11.3502 27.2672 10.8712 27.2494 9.25819 27.1782C7.76647 27.1129 6.95997 26.8696 6.42028 26.6619C5.70474 26.3889 5.19537 26.0684 4.66174 25.5461C4.12812 25.0238 3.7946 24.5253 3.52173 23.825C3.31555 23.2968 3.06087 22.5074 2.99416 21.0475C2.9214 19.4688 2.90321 18.9999 2.90321 15.0057C2.90321 11.0116 2.9214 10.5427 2.99416 8.96402C3.06087 7.50403 3.30949 6.71469 3.52173 6.18649C3.80067 5.48617 4.12812 4.98764 4.66174 4.46537C5.19537 3.9431 5.70474 3.61668 6.42028 3.34961C6.95997 3.14782 7.76647 2.89855 9.25819 2.83327C10.8712 2.75612 11.3563 2.74425 15.4313 2.74425ZM15.4313 0.0498047C11.2835 0.0498047 10.762 0.0676094 9.13085 0.138828C7.50572 0.210047 6.39602 0.465247 5.4258 0.833211C4.41919 1.21304 3.57024 1.72938 2.72129 2.56027C1.87234 3.39115 1.35084 4.22797 0.956687 5.20723C0.580724 6.15681 0.319976 7.2429 0.247209 8.83938C0.174442 10.4299 0.15625 10.9403 0.15625 14.9998C0.15625 19.0593 0.174442 19.5697 0.247209 21.1662C0.319976 22.7567 0.580724 23.8428 0.956687 24.7983C1.34478 25.7835 1.87234 26.6144 2.72129 27.4453C3.57024 28.2762 4.42525 28.7866 5.4258 29.1723C6.39602 29.5403 7.50572 29.7955 9.13692 29.8667C10.7681 29.9379 11.2835 29.9557 15.4373 29.9557C19.5911 29.9557 20.1065 29.9379 21.7377 29.8667C23.3629 29.7955 24.4726 29.5403 25.4489 29.1723C26.4555 28.7925 27.3044 28.2762 28.1534 27.4453C29.0023 26.6144 29.5238 25.7776 29.918 24.7983C30.2939 23.8487 30.5547 22.7626 30.6274 21.1662C30.7002 19.5697 30.7184 19.0652 30.7184 14.9998C30.7184 10.9344 30.7002 10.4299 30.6274 8.83345C30.5547 7.2429 30.2939 6.15681 29.918 5.20129C29.5299 4.2161 29.0023 3.38522 28.1534 2.55433C27.3044 1.72345 26.4494 1.21304 25.4489 0.827276C24.4786 0.459312 23.3689 0.204112 21.7377 0.132893C20.1005 0.0676094 19.579 0.0498047 15.4313 0.0498047Z" fill="white"/>
<path d="M15.4317 7.32617C11.102 7.32617 7.58496 10.7625 7.58496 15.0059C7.58496 19.2494 11.096 22.6857 15.4317 22.6857C19.7674 22.6857 23.2784 19.2494 23.2784 15.0059C23.2784 10.7625 19.7674 7.32617 15.4317 7.32617ZM15.4317 19.9853C12.618 19.9853 10.338 17.7538 10.338 15C10.338 12.2462 12.618 10.0147 15.4317 10.0147C18.2453 10.0147 20.5254 12.2462 20.5254 15C20.5254 17.7538 18.2453 19.9853 15.4317 19.9853Z" fill="white"/>
<path d="M23.5872 8.80929C24.5986 8.80929 25.4185 8.00683 25.4185 7.01695C25.4185 6.02707 24.5986 5.22461 23.5872 5.22461C22.5758 5.22461 21.7559 6.02707 21.7559 7.01695C21.7559 8.00683 22.5758 8.80929 23.5872 8.80929Z" fill="white"/>
</g>
<defs>
<clipPath id="clip0_1797_819">
<rect width="30.55" height="29.9" fill="white" transform="translate(0.15625 0.0498047)"/>
</clipPath>
</defs>
</svg>
