<svg width="14" height="14" viewBox="0 0 14 14" fill="none" xmlns="http://www.w3.org/2000/svg">
<path d="M11.2553 6.66929L6.30529 1.71929C6.12313 1.53069 6.02234 1.27808 6.02461 1.01589C6.02689 0.75369 6.13206 0.502878 6.31747 0.31747C6.50288 0.132062 6.75369 0.0268926 7.01589 0.0246142C7.27808 0.0223357 7.53069 0.12313 7.71929 0.305288L13.3763 5.96229C13.5638 6.14982 13.6691 6.40412 13.6691 6.66929C13.6691 6.93445 13.5638 7.18876 13.3763 7.37629L7.71929 13.0333C7.53069 13.2154 7.27808 13.3162 7.01589 13.314C6.75369 13.3117 6.50288 13.2065 6.31747 13.0211C6.13206 12.8357 6.02689 12.5849 6.02461 12.3227C6.02234 12.0605 6.12313 11.8079 6.30529 11.6193L11.2553 6.66929V6.66929ZM5.25529 6.66929L0.305288 1.71929C0.209778 1.62704 0.133596 1.5167 0.0811868 1.39469C0.0287778 1.27269 0.00119157 1.14147 3.77567e-05 1.00869C-0.00111606 0.87591 0.0241857 0.744231 0.0744665 0.621334C0.124747 0.498438 0.199001 0.386786 0.292893 0.292893C0.386786 0.199001 0.498438 0.124747 0.621334 0.0744665C0.744231 0.0241856 0.87591 -0.00111606 1.00869 3.77568e-05C1.14147 0.00119157 1.27269 0.0287778 1.39469 0.0811868C1.5167 0.133596 1.62704 0.209778 1.71929 0.305288L7.37629 5.96229C7.56376 6.14982 7.66907 6.40412 7.66907 6.66929C7.66907 6.93445 7.56376 7.18876 7.37629 7.37629L1.71929 13.0333C1.53069 13.2154 1.27808 13.3162 1.01589 13.314C0.75369 13.3117 0.502878 13.2065 0.31747 13.0211C0.132062 12.8357 0.0268926 12.5849 0.0246142 12.3227C0.0223357 12.0605 0.12313 11.8079 0.305288 11.6193L5.25529 6.66929V6.66929Z" fill="#0F172A"/>
</svg>
