<svg width="14" height="14" viewBox="0 0 14 14" fill="none" xmlns="http://www.w3.org/2000/svg">
<path d="M8.41379 6.66929L13.3638 11.6193C13.4593 11.7115 13.5355 11.8219 13.5879 11.9439C13.6403 12.0659 13.6679 12.1971 13.669 12.3299C13.6702 12.4627 13.6449 12.5943 13.5946 12.7172C13.5443 12.8401 13.4701 12.9518 13.3762 13.0457C13.2823 13.1396 13.1706 13.2138 13.0477 13.2641C12.9248 13.3144 12.7932 13.3397 12.6604 13.3385C12.5276 13.3374 12.3964 13.3098 12.2744 13.2574C12.1524 13.205 12.042 13.1288 11.9498 13.0333L6.29279 7.37629C6.10532 7.18876 6 6.93445 6 6.66929C6 6.40412 6.10532 6.14982 6.29279 5.96229L11.9498 0.305288C12.1384 0.12313 12.391 0.0223357 12.6532 0.0246142C12.9154 0.0268926 13.1662 0.132062 13.3516 0.31747C13.537 0.502878 13.6422 0.75369 13.6445 1.01589C13.6467 1.27808 13.5459 1.53069 13.3638 1.71929L8.41379 6.66929ZM2.41379 6.66929L7.36379 11.6193C7.4593 11.7115 7.53548 11.8219 7.58789 11.9439C7.6403 12.0659 7.66788 12.1971 7.66904 12.3299C7.67019 12.4627 7.64489 12.5943 7.59461 12.7172C7.54433 12.8401 7.47007 12.9518 7.37618 13.0457C7.28229 13.1396 7.17064 13.2138 7.04774 13.2641C6.92484 13.3144 6.79316 13.3397 6.66039 13.3385C6.52761 13.3374 6.39639 13.3098 6.27438 13.2574C6.15238 13.205 6.04203 13.1288 5.94979 13.0333L0.292786 7.37629C0.105315 7.18876 0 6.93445 0 6.66929C0 6.40412 0.105315 6.14982 0.292786 5.96229L5.94979 0.305288C6.04203 0.209778 6.15238 0.133596 6.27438 0.0811868C6.39639 0.0287778 6.52761 0.00119157 6.66039 3.77568e-05C6.79316 -0.00111606 6.92484 0.0241856 7.04774 0.0744665C7.17064 0.124747 7.28229 0.199001 7.37618 0.292893C7.47007 0.386786 7.54433 0.498438 7.59461 0.621334C7.64489 0.744231 7.67019 0.87591 7.66904 1.00869C7.66788 1.14147 7.6403 1.27269 7.58789 1.39469C7.53548 1.5167 7.4593 1.62704 7.36379 1.71929L2.41379 6.66929Z" fill="#0F172A"/>
</svg>
