<svg width="70" height="96" viewBox="0 0 70 96" fill="none" xmlns="http://www.w3.org/2000/svg">
<path d="M23.8006 36.1999C23.8006 36.1999 21.0006 30.8999 18.5006 28.2999C16.0006 25.6999 8.40055 18.9999 8.60055 16.2999C8.80055 13.5999 18.1006 12.2999 22.5006 17.1999C26.8006 21.9999 33.7006 34.7999 33.7006 34.7999L23.8006 36.1999Z" fill="#FFA47C"/>
<path d="M16.7007 26.3002C16.7007 26.3002 13.4007 24.9002 9.80066 22.1002C9.40066 21.8002 8.70066 21.6002 8.30066 21.3002C8.00066 21.1002 7.50066 20.4002 7.20066 20.1002C6.90066 19.9002 6.50066 19.9002 6.30066 19.6002C5.90066 19.3002 5.70065 18.6002 5.40065 18.3002C5.10065 18.1002 4.40066 17.8002 4.10066 17.6002C2.90066 16.8002 3.50066 16.0002 3.10066 15.7002C2.10066 14.9002 1.80066 14.6002 1.60066 14.4002C0.900659 13.4002 0.700654 7.60015 0.900654 6.70015C1.10065 5.80015 1.30066 0.400153 1.80066 0.300153C2.30066 0.200153 4.00066 1.30015 4.20066 4.20015C4.40066 7.10015 4.90066 10.7002 5.00066 10.0002C5.10066 9.40016 6.60065 6.00015 7.40065 4.80015C7.90065 4.00015 8.80066 4.50016 9.30066 5.10016C9.60066 5.50016 9.50066 8.20015 9.50066 8.20015C9.50066 8.20015 11.2007 7.50015 11.5007 7.80015C12.4007 8.80015 11.8007 10.8002 11.7007 11.5002C11.7007 12.1002 13.2007 10.6002 13.6007 11.1002C15.0007 12.9002 12.0007 17.6002 14.0007 18.6002C14.9007 19.2002 17.9007 23.1002 16.7007 26.3002Z" fill="#FFBD95"/>
<path d="M65.9006 94.3C57.8006 101.4 45.4006 82.5 39.8006 72.9C34.2006 63.3 20.6006 33.6 20.6006 33.6L30.0006 26.5C30.0006 26.5 64.2006 72.9 65.9006 75.6C67.6006 78.2 74.2006 87.1 65.9006 94.3Z" fill="#F6F6F6"/>
<path d="M18.2998 33.4997L24.0998 42.3997L35.1998 33.5997L29.3998 24.6997L18.2998 33.4997Z" fill="#CEE0FF"/>
</svg>
