<svg width="155" height="194" viewBox="0 0 155 194" fill="none" xmlns="http://www.w3.org/2000/svg">
<path d="M62.6725 83.4152C73.0244 88.0805 71.83 97.29 66.1895 106.257C60.4827 115.224 20.9995 155.576 17.4162 156.122C13.7665 156.606 -0.0360232 148.184 0.693917 143.398C1.42386 138.611 29.228 99.6529 35.3329 92.9882C41.4379 86.3235 50.5953 77.9622 62.6725 83.4152Z" fill="#B8D1FF"/>
<path d="M99.8357 36.6853C99.8357 36.6853 101.296 65.7916 103.22 67.1859C109.259 71.6013 131.024 75.2613 135.138 82.9301C140.115 92.1674 112.908 133.706 109.391 147.475C105.808 161.186 89.7099 164.577 92.0988 177.998C94.4877 191.476 69.9081 171.383 69.9081 171.383C68.1165 171.383 63.0895 182.413 60.1034 177.998C57.1173 173.582 47.4791 169.61 47.4791 160.779C47.4791 151.949 45.1565 121.099 44.692 119.066C41.6395 105.588 45.621 94.956 46.2182 92.1093C46.8155 89.2626 46.6164 84.4987 48.2754 82.6977C51.5269 79.0957 69.6427 74.2737 69.9081 72.4727C70.1736 70.6717 72.6952 45.3998 72.6952 45.3998L99.8357 36.6853Z" fill="#FFBD95"/>
<path d="M103.208 68.4937L74.0101 84.3679L68.5687 75.219C68.5687 75.219 50.652 80.8537 48.1967 84.6708C45.7415 88.4273 44.547 96.6673 43.6844 99.6968C42.8881 102.726 42.3572 116.783 43.6844 128.961C44.4143 136.111 44.2152 145.502 45.4097 157.68C46.405 168.101 48.1967 189.489 48.1967 189.489C48.1967 189.489 56.027 194.397 72.882 193.67C92.3913 192.821 113.891 190.156 114.754 189.489C118.536 186.702 111.502 159.013 112.232 155.923C112.896 152.894 136.918 99.9997 137.316 93.0926C137.714 86.1855 133.799 81.5808 128.092 78.9755C122.385 76.3702 103.208 68.4937 103.208 68.4937Z" fill="#CEE0FF"/>
<path d="M123.876 77.7012C123.876 77.7012 131.44 93.0301 125.335 100.604C119.231 108.177 94.0807 142.228 86.5823 143.561C79.0838 144.894 45.042 162.222 45.042 162.222C45.042 162.222 91.4928 176.218 94.5452 180.217C97.6641 184.216 91.161 191.062 91.161 191.062C91.161 191.062 113.192 193.122 116.908 188.215C120.558 183.368 111.467 154.467 114.453 147.075C117.439 139.683 132.436 103.633 132.569 98.0589C132.768 92.5454 123.876 77.7012 123.876 77.7012Z" fill="#B8D1FF"/>
<path d="M71.4961 60.8053L101.026 47.4758L101.755 63.4106L92.6644 68.5001L71.4961 60.8053Z" fill="#FFA47C"/>
<path d="M119.263 81.7761C129.615 77.1714 136.915 83.6544 141.162 93.2274C145.475 102.8 156.291 156.058 154.5 158.966C152.708 161.874 136.981 166.721 133.265 163.268C129.549 159.814 112.827 115.887 110.769 107.405C108.779 98.9227 107.12 87.1685 119.263 81.7761Z" fill="#CEE0FF"/>
<path d="M62.0476 10.5231C68.3517 3.49481 88.6573 -4.68465 100.734 7.06954C112.812 18.8237 110.091 32.2138 105.579 40.8174C102.062 47.5427 98.3456 51.481 90.449 56.0251C88.8564 56.9339 73.7267 61.3569 70.4751 60.751C68.2189 60.3269 64.6356 46.028 63.972 46.1492C63.3748 46.3309 61.5831 45.6645 61.3177 44.5133C60.9195 42.8168 61.4504 32.1532 60.8532 31.0626C60.256 29.972 54.8146 18.5814 62.0476 10.5231Z" fill="#FFBD95"/>
<path d="M58.6348 17.4835C58.6348 17.4835 69.5839 9.78879 85.9744 20.5736C89.4913 22.8759 85.1117 35.1148 86.0407 36.0236C87.0361 36.9931 96.5253 26.2083 96.3263 27.5412C93.9374 41.416 99.5778 48.202 100.905 48.1414C104.886 47.899 114.376 27.6624 106.28 13.1818C98.1843 -1.29892 80.6657 -0.693037 76.6179 0.639912C72.57 1.91227 60.161 4.27523 58.6348 17.4835Z" fill="#8D3B26"/>
<path d="M89.8126 31.4101C89.0163 35.8331 89.149 41.589 91.6706 42.0131C94.1922 42.3767 96.9129 39.1049 97.7092 34.7425C98.5718 30.259 97.1783 26.3813 94.5903 26.0178C92.0687 25.6542 90.6089 26.9872 89.8126 31.4101Z" fill="#FFBD95"/>
<path d="M75.3604 78.0627L74.0332 84.3639L89.4283 76.0632L75.3604 78.0627Z" fill="#B8D1FF"/>
<path d="M74.0141 84.3832L70.2981 77.1125L67.9092 79.1726L74.0141 84.3832Z" fill="#B8D1FF"/>
<path d="M1.3432 148.544C-5.22626 138.789 13.8849 132.609 24.4359 128.731C34.9868 124.914 57.1505 118.128 57.1505 118.128L63.5209 129.216C63.5209 129.216 40.1628 147.271 23.9714 154.905C21.1843 156.299 8.04538 158.48 1.3432 148.544Z" fill="#CEE0FF"/>
<ellipse cx="78.599" cy="109.106" rx="47.9564" ry="39.8514" fill="url(#paint0_radial_1130_3973)"/>
<path d="M86.682 115.029C86.0847 113.999 84.6912 113.635 83.5631 114.12L74.8038 118.301C73.6758 118.846 73.2112 120.118 73.8085 121.148C74.4057 122.178 75.7992 122.542 76.9273 121.996L85.6866 117.816C86.8147 117.331 87.2792 116.059 86.682 115.029Z" fill="#FFA47C"/>
<path d="M85.0355 111.343C84.4383 110.313 83.0447 109.889 81.9166 110.434L73.1574 114.615C72.0293 115.16 71.5648 116.433 72.162 117.463C72.7592 118.493 74.1527 118.856 75.2808 118.311L84.0401 114.13C85.1682 113.646 85.6327 112.373 85.0355 111.343Z" fill="#FFA47C"/>
<path d="M83.1644 107.89C82.5672 106.86 81.1736 106.496 80.0456 106.981L71.2863 111.161C70.1582 111.707 69.6937 112.979 70.2909 114.009C70.8881 115.039 72.2816 115.403 73.4097 114.857L82.169 110.677C83.2971 110.192 83.7616 108.92 83.1644 107.89Z" fill="#FFA47C"/>
<path d="M81.0511 104.671C80.4539 103.641 79.0604 103.217 77.9323 103.763L69.173 107.943C68.0449 108.488 67.5804 109.761 68.1776 110.791C68.7748 111.821 70.1684 112.184 71.2964 111.639L80.0557 107.458C81.1838 106.974 81.6483 105.701 81.0511 104.671Z" fill="#FFA47C"/>
<path d="M51.5723 121.882C51.5723 121.882 61.7251 110.188 64.313 108.492C66.901 106.856 78.8455 103.524 78.8455 103.524C78.8455 103.524 77.452 108.492 79.1109 110.613C80.7699 112.733 85.6804 117.823 85.6804 117.823C85.6804 117.823 77.7174 124.548 73.1387 126.426C68.56 128.304 63.5167 129.213 63.5167 129.213L51.5723 121.882Z" fill="#FFA47C"/>
<path d="M57.4864 113.833L46.8184 120.082L57.1742 134.82L67.8423 128.571L57.4864 113.833Z" fill="#E0F2FF"/>
<path d="M152.976 165.563C147.203 175.742 125.238 163.019 114.886 156.293C104.534 149.568 76.4648 127.271 76.4648 127.271L83.6979 116.608C83.6979 116.608 115.815 126.847 145.411 143.933C148.464 145.69 158.882 155.263 152.976 165.563Z" fill="#CEE0FF"/>
<path d="M55.7471 119.03C56.2116 117.94 57.5388 117.394 58.7333 117.819L67.8907 121.151C69.0851 121.575 69.6824 122.787 69.2179 123.877C68.7534 124.968 67.4262 125.453 66.2317 125.089L57.0079 121.757C55.8135 121.333 55.2826 120.121 55.7471 119.03Z" fill="#FFBD95"/>
<path d="M56.934 115.215C57.3985 114.125 58.7257 113.579 59.9202 114.003L69.1439 117.336C70.3384 117.76 70.9356 118.972 70.4711 120.062C70.0066 121.153 68.6794 121.637 67.485 121.213L58.2612 117.881C57.0667 117.517 56.4695 116.306 56.934 115.215Z" fill="#FFBD95"/>
<path d="M58.3295 111.576C58.794 110.485 60.1212 109.94 61.3157 110.364L70.5395 113.696C71.7339 114.12 72.3311 115.332 71.8666 116.423C71.4021 117.513 70.0749 117.998 68.8805 117.574L59.6567 114.242C58.4623 113.878 57.865 112.666 58.3295 111.576Z" fill="#FFBD95"/>
<path d="M60.0434 108.191C60.5079 107.1 61.8351 106.555 63.0295 106.979L72.2533 110.312C73.4478 110.736 74.045 111.947 73.5805 113.038C73.116 114.129 71.7888 114.613 70.5944 114.189L61.3706 110.857C60.1761 110.493 59.5789 109.282 60.0434 108.191Z" fill="#FFBD95"/>
<path d="M91.4019 122.431C91.4019 122.431 79.9219 111.767 77.1349 110.374C74.3478 108.98 62.0715 106.859 62.0715 106.859C62.0715 106.859 64.0623 111.646 62.6688 113.948C61.2752 116.19 57.0283 121.764 57.0283 121.764C57.0283 121.764 65.7213 127.641 70.5654 129.095C75.3432 130.489 80.4528 130.913 80.4528 130.913L91.4019 122.431Z" fill="#FFBD95"/>
<path d="M75.6452 129.904L86.5186 135.85L96.372 120.828L85.4986 114.883L75.6452 129.904Z" fill="#E0F2FF"/>
<defs>
<radialGradient id="paint0_radial_1130_3973" cx="0" cy="0" r="1" gradientUnits="userSpaceOnUse" gradientTransform="translate(78.599 109.106) rotate(90) scale(39.8514 47.9564)">
<stop stop-color="#43ED68"/>
<stop offset="1" stop-color="white" stop-opacity="0"/>
</radialGradient>
</defs>
</svg>
