<svg width="31" height="34" viewBox="0 0 31 34" fill="none" xmlns="http://www.w3.org/2000/svg">
<path d="M1.03613 29.857L2.46518 25.569C2.46518 25.569 0.270563 21.4852 1.03613 18.6776C1.80169 15.87 6.65025 3.77165 7.46685 3.7206C8.28346 3.66955 9.71251 3.36327 9.30421 6.11984C8.84487 8.92747 7.26271 13.9812 7.26271 13.9812C7.26271 13.9812 12.4685 13.0623 14.8163 10.4078C17.164 7.75337 19.6648 1.57659 20.4814 0.96402C21.298 0.351447 22.3698 0.657733 22.3698 1.4745C22.3698 2.29126 19.4097 9.99947 17.5213 12.654L18.4399 13.1644C18.4399 13.1644 24.7176 8.72328 25.6362 7.29394C26.5549 5.81356 27.6267 4.02688 28.1881 3.77164C28.8006 3.56745 30.2296 3.92479 29.6172 5.8646C29.0047 7.85547 27.2694 9.99947 26.6059 10.8673C25.9425 11.684 23.7989 13.726 23.7989 13.726C23.7989 13.726 27.7288 11.3778 28.3412 10.8673C28.9537 10.3568 29.9234 10.1016 30.1786 11.1736C30.3827 12.2456 29.2599 13.6749 28.4943 14.1854C27.7288 14.6959 20.6856 19.6475 20.6856 19.6475C20.6856 19.6475 23.0333 19.4433 23.6968 19.137C24.3603 18.8307 27.5757 16.7888 28.2391 16.942C28.9026 17.0951 29.1578 17.9119 28.7495 18.6776C28.3923 19.4433 23.2375 22.9145 21.8084 23.7313C20.3794 24.5481 13.6424 26.6921 13.6424 26.6921L9.25317 30.3165L8.79383 33.4304C8.79383 33.4814 2.66933 34.4513 1.03613 29.857Z" fill="#FFBD95"/>
</svg>
