<svg width="32" height="31" viewBox="0 0 32 31" fill="none" xmlns="http://www.w3.org/2000/svg">
<path d="M16.2048 30.699C24.661 30.699 31.5161 23.8425 31.5161 15.3846C31.5161 6.92677 24.661 0.0703125 16.2048 0.0703125C7.74864 0.0703125 0.893555 6.92677 0.893555 15.3846C0.893555 23.8425 7.74864 30.699 16.2048 30.699Z" fill="#FBC920"/>
<path d="M16.0526 19.7247C15.4912 19.7247 15.0319 19.2653 15.0319 18.7038V15.9472C15.0319 14.8241 15.6443 13.7521 16.614 13.1906C17.8389 12.4759 18.6555 11.1998 18.6555 10.0767C18.6555 9.36203 18.1962 8.80051 17.4306 8.44318C15.2871 7.42222 13.858 9.77042 13.7049 10.0257C13.3987 10.4851 12.7862 10.6893 12.3269 10.383C11.8165 10.0767 11.6634 9.46413 11.9696 9.0047C12.8373 7.52432 15.2871 5.12508 18.3493 6.60546C19.8294 7.32013 20.697 8.54527 20.7481 10.0257C20.7991 11.9144 19.5742 13.9053 17.6858 14.9773C17.3286 15.1815 17.1244 15.5388 17.1244 15.9472V18.7038C17.0734 19.2653 16.614 19.7247 16.0526 19.7247Z" fill="white"/>
<path d="M17.1231 22.4788C17.1231 23.0914 16.6128 23.6529 15.9493 23.6529C15.3368 23.6529 14.7754 23.1424 14.7754 22.4788C14.7754 21.8662 15.2858 21.3047 15.9493 21.3047C16.6128 21.3047 17.1231 21.8152 17.1231 22.4788Z" fill="white"/>
</svg>
