<svg width="299" height="346" viewBox="0 0 299 346" fill="none" xmlns="http://www.w3.org/2000/svg">
<path d="M211 46.2C211 65.2 201.5 81.7 188.1 88.7C184.6 90.6 182.5 94.7 182.5 99C182.5 100.7 182.8 102.3 183.5 103.9L180.1 101.3C172.7 95.5 164 92.4 155.2 92.4H131.7C121.3 92.4 111.9 87.2 105.1 78.8C98.3 70.4 94 58.8 94 46.1C94 45.1 94 44.1 94.1 43.1C95.3 19.1 111.7 0 131.7 0H173.2C178.5 0 183.6 1.4 188.2 3.9C192.6 6.2 196.5 9.5 199.8 13.6C206.7 21.9 211 33.5 211 46.2Z" fill="#F2F2F2"/>
<path d="M213 47.2998C213 66.5998 203.4 83.2998 189.7 90.4998C186.1 92.3998 184 96.5998 184 101C184 102.7 184.3 104.4 185 106L181.6 103.3C174 97.3998 165.3 94.2998 156.3 94.2998H132.4C121.8 94.2998 112.3 88.9998 105.3 80.4998C98.4 71.9998 94 60.1998 94 47.2998C94 46.2998 94 45.1998 94.1 44.1998C95.1 50.5998 97.7 56.2998 101.7 61.0998C104.4 64.2998 107.7 66.9998 111.2 68.7998C121.7 74.3998 133.6 73.8998 145 73.2998L169.1 72.0998C177.9 71.6998 187.6 70.7998 193.8 63.0998C199.3 56.2998 200.5 45.6998 199.7 36.0998C198.7 24.5998 195.6 14.2998 190.3 4.7998C194.7 7.1998 198.4 9.79981 201.8 13.8998C208.6 22.5998 213 34.3998 213 47.2998Z" fill="#E2E2E2"/>
<path d="M171.601 190.2C172.301 191.7 172.601 192.8 172.601 193.4C172.601 193.9 172.501 194.3 172.301 194.6C172.101 194.9 171.901 195.1 171.601 195.1C171.301 195.1 171.101 194.9 170.901 194.6C170.701 194.3 170.601 193.8 170.601 193.4C170.601 192.9 171.001 191.8 171.601 190.2Z" fill="#9DD9EA"/>
<path d="M248.4 314.7H235V345.3H248.4V314.7Z" fill="#99A2A9"/>
<path d="M281.1 286.6H273.7V315.8H281.1V286.6Z" fill="#99A2A9"/>
<path d="M279.701 324.9H194.001C193.201 324.9 192.601 324.2 192.601 323.4V305.2C192.601 304.4 193.201 303.7 194.001 303.7H279.701C280.501 303.7 281.101 304.4 281.101 305.2V323.4C281.101 324.2 280.401 324.9 279.701 324.9Z" fill="#303030"/>
<path d="M297.9 167.5L286.4 166C285.8 165.9 285.2 166.4 285.1 167.1L271.6 293.6C271.5 294.3 272 294.9 272.6 295L284.1 296.5C284.7 296.6 285.3 296.1 285.4 295.4L298.9 168.9C299 168.2 298.6 167.5 297.9 167.5Z" fill="#303030"/>
<path d="M289.5 170.2C288.3 170 287.1 171 287 172.4L274.7 287.1C274.6 288.5 275.4 289.7 276.7 289.8C277.9 290 279.1 289 279.2 287.6L291.5 172.9C291.6 171.6 290.7 170.4 289.5 170.2Z" fill="#424249"/>
<path d="M246.2 323.8H242.8V345.3H246.2V323.8Z" fill="#99A2A9"/>
<path d="M180.101 345.3C180.901 340.5 181.301 336.8 181.201 335.2C180.701 325.9 184.001 311.9 184.001 311.9C184.001 311.9 249.801 308.3 254.301 304C280.001 279.6 251.701 265.7 251.701 265.7L217.501 268.2L215.501 274.1C215.501 274.1 158.901 294.4 156.601 297.3C155.601 298.6 151.901 320.9 148.101 345.3H180.101Z" fill="#191919"/>
<path d="M239.1 162.4C244.5 170.6 239.9 177.9 232.2 183.3C224.5 188.6 182.6 208.1 177.4 205.7C174.7 204.4 167.9 195.2 170.4 191.4C172.9 187.6 208.6 166.2 215.6 163C222.6 159.9 232.8 152.8 239.1 162.4Z" fill="#F6F6F6"/>
<path d="M255.5 118C255.5 118 257.8 146.6 258.8 148.5C261.9 154.7 273.6 159 277 166.5C281.1 175.7 267.8 214.9 265.3 228.8C262.7 242.6 266.3 271.9 268.5 285.3C270.7 298.8 235 307.9 233.6 307.9C232.2 307.9 221.4 295.2 218.9 290.9C216.4 286.6 219.1 252.2 218.9 243.4C218.7 234.6 216.8 205.9 216.4 203.9C213.7 190.4 216 180.8 216.4 177.9C216.8 175 218.6 163.3 219.9 161.4C222.4 157.7 238.7 153.2 238.9 151.4C239.1 149.6 239.5 126.9 239.5 126.9L255.5 118Z" fill="#FFBD95"/>
<path d="M262.301 148L237.601 165.4L236.501 154C236.501 154 221.401 157.3 219.501 161C217.601 164.7 216.001 176.2 215.401 179.1C214.801 182 214.701 195.6 216.001 207.3C216.701 214.1 216.801 223.2 217.901 234.9C218.901 244.9 217.601 270.3 217.601 270.3C217.601 270.3 226.701 273.1 240.101 272.1C255.701 270.9 271.801 267.3 272.501 266.7C275.501 263.9 269.601 245.8 271.201 232C271.501 229 282.501 177.9 282.601 171.2C282.801 164.5 279.601 160.2 275.001 157.8C270.301 155.3 262.301 148 262.301 148Z" fill="#FBC920"/>
<path d="M250.601 202.6C259.001 154 272.301 157.9 272.301 157.9L274.401 157.3C274.601 157.4 274.801 157.5 275.001 157.6C279.601 160 282.801 164.3 282.601 171C282.401 177.7 271.501 228.8 271.201 231.8C269.601 245.6 275.501 263.7 272.501 266.5C271.901 267.1 258.801 271 244.901 271.6L221.401 271.4C219.801 270.6 217.501 270.1 217.501 270.1C217.501 270.1 218.801 244.7 217.801 234.7C217.101 228.2 216.901 222.6 216.601 217.7C216.601 217.8 245.701 231 250.601 202.6Z" fill="#FBC920"/>
<path d="M202.2 345.3C201.8 333.4 200.7 322.8 201.3 322.7C202.1 322.6 217.7 321.1 242.9 318.6C268.1 316.1 270.7 302.8 272.2 290.9C273.7 279.1 272.5 265.7 272.5 265.7L217.5 268.1C217.5 268.1 215.5 278.4 214.1 280.5C212.5 283.1 170.4 294.9 166.3 309.4C165.5 312.4 165.8 327.3 166.5 345.2H202.2V345.3Z" fill="#303030"/>
<path d="M270.8 160.7C279.8 158.7 284 166.7 285.1 177.1C286.2 187.4 282.5 241.5 280.5 243.9C278.5 246.3 263.7 248 261.6 243.8C259.5 239.6 261.1 194.1 261.4 185.4C261.8 176.7 260.2 163 270.8 160.7Z" fill="white"/>
<path d="M246.7 122.8L239.1 138.4L239 146.9L245.5 145.4L249 142.3L248 121.9L246.7 122.8Z" fill="#FFA47C"/>
<path d="M232.6 93.2999C239 87.4999 257.1 82.8999 265 96.5999C272.9 110.3 266.6 119 261.4 126.8C257.4 132.8 254.2 134.4 246.9 137.6C245.4 138.2 233.9 140.3 231.4 139.1C229.7 138.3 228.5 128.9 228 129C227.5 129 225.4 128.1 225.4 126.9C225.4 125.2 228.4 114.7 228.1 113.6C227.8 112.3 225.3 99.9999 232.6 93.2999Z" fill="#FFBD95"/>
<path d="M251.4 119.2C250 123 249.2 128.1 251.1 128.8C253.1 129.5 255.8 127.1 257.2 123.3C258.6 119.5 258.1 115.9 256.1 115.2C254.1 114.4 252.8 115.4 251.4 119.2Z" fill="#FFBD95"/>
<path d="M238.7 159.5L237.5 165.4L243.3 161.4L238.7 159.5Z" fill="#B8D1FF"/>
<path d="M237.6 165.4L237 159.2L235 161.9L237.6 165.4Z" fill="#B8D1FF"/>
<path d="M272.901 265.4V271.7L216.601 272.2L217.501 264.8L272.901 265.4Z" fill="#3B1B1D"/>
<path d="M219.9 272.3H221.6C223.5 272.3 225 270.6 225 268.6C225 266.6 223.5 264.9 221.6 264.9H219.9C218 264.9 216.5 266.6 216.5 268.6C216.5 270.6 218 272.3 219.9 272.3Z" fill="#722C1D"/>
<path d="M241.1 163.7L234.4 161.8L233.9 169L237.4 170.2L241.1 163.7Z" fill="#F88B23"/>
<path d="M264.6 149.1L261.1 142.6L238.7 159.5L241 166.7L264.6 149.1Z" fill="#E0F2FF"/>
<path d="M237 159.2V152.4L232.9 154.9L233.7 164.3L237 159.2Z" fill="#E0F2FF"/>
<path d="M219.1 271.7L206.9 273.5C206.9 273.5 196.9 279.9 196.3 281.6C195.7 283.2 191 289.1 190.9 290.2C190.8 291.3 194.4 290 194.9 289.9C195.4 289.8 201.8 287.1 206.3 286.1C210.7 285.2 214.4 285 216.8 283.6C222.2 280.4 219.1 271.7 219.1 271.7Z" fill="#FFA47C"/>
<path d="M279.901 241.1C285.401 250.3 267.201 261.2 258.001 266C248.801 270.8 220.901 281.9 220.901 281.9L215.601 271.3C215.601 271.3 260.601 240.6 263.201 239.2C265.601 237.6 274.301 231.8 279.901 241.1Z" fill="white"/>
<path d="M219 284.7L227.8 279.7L221.5 266.4L212.7 271.4L219 284.7Z" fill="#CEE0FF"/>
<path d="M228.601 99.6C228.601 99.6 230.301 96 241.901 109.5C244.401 112.4 247.301 121.6 247.901 122.7C248.601 123.9 249.401 163.2 248.901 164.5C244.501 177.8 269.801 160.8 270.901 161C274.201 161.5 272.601 119.3 268.401 103.6C264.301 87.9 249.701 85.4 246.201 86C242.701 86.6 232.101 86.8 228.601 99.6Z" fill="#8D3B26"/>
<path d="M27.5 238.4H15V345.3H27.5V238.4Z" fill="#79858E"/>
<path d="M174.2 238.4H161.7V345.3H174.2V238.4Z" fill="#79858E"/>
<path d="M172 242.3H16.7002V276.2H172V242.3Z" fill="#79858E"/>
<path d="M173.9 265.3L15 268.7V257.4L173.9 257.5V265.3Z" fill="#B9B9BD"/>
<path d="M189.8 237.9H0V257.6H189.9V237.9H189.8Z" fill="#99A2A9"/>
<path d="M254.4 113C255.3 106.3 254.5 98.2 246.5 91.6C244.7 90.1 242.2 88.7 239.4 87.5L236.9 88.5C239.9 89.7 242.5 91.1 244.4 92.7C251.7 98.7 252.6 106.9 251.9 113.3L248 129.2C248 129.2 248.1 129.2 248.2 129.2L236.2 138.1C235.5 137.7 234.4 137.7 233.7 138.1L227.6 141.8C226.9 142.2 226.9 142.9 227.6 143.4L228.9 144.2C229.6 144.6 230.7 144.6 231.5 144.2L237.6 140.5C238.1 140.2 238.2 139.8 238.1 139.4L251.9 129.1C256.4 128.8 258.9 127.2 259.7 123.3C260.4 119.2 259 114.6 254.4 113Z" fill="#455256"/>
<path d="M57.4006 230.3C57.6006 231 59.0006 238 59.5006 237.9L92.2006 240.6C92.7006 240.5 93.1006 239.8 92.9006 239L74.2006 156.7C73.7006 154.4 72.5006 153.8 71.2006 153.5L40.6006 151.9" fill="#151823"/>
<path d="M59.9005 235.1L63.6005 235C61.5005 235 59.6005 235.1 59.9005 235.1Z" fill="#151823"/>
<path d="M155.401 231.3H57.6006C59.7006 231.2 67.8006 235.6 67.7006 235.8L88.1006 239C87.7006 239.8 89.8006 239.5 90.6006 239.5L160.801 236.6L155.401 231.3Z" fill="#151823"/>
<path d="M161.5 239.3C161.5 240.1 161 240.7 160.4 240.7L92.3002 240.6C91.7002 240.6 91.2002 239.9 91.2002 239.2V237.9C91.2002 237.1 91.7002 236.5 92.3002 236.5L160.4 236.6C161 236.6 161.5 237.2 161.5 238V239.3Z" fill="#282A35"/>
</svg>
