<svg width="31" height="31" viewBox="0 0 31 31" fill="none" xmlns="http://www.w3.org/2000/svg">
<path d="M15.0561 30.1182C23.3713 30.1182 30.1122 23.376 30.1122 15.0591C30.1122 6.74218 23.3713 0 15.0561 0C6.74084 0 0 6.74218 0 15.0591C0 23.376 6.74084 30.1182 15.0561 30.1182Z" fill="#FBC920"/>
<path d="M6.32995 11.3281L7.45276 13.5232L9.85153 13.8805L8.11627 15.5651L8.52456 18.0154L6.32995 16.8413L4.18637 18.0154L4.59466 15.5651L2.85938 13.8805L5.25815 13.5232L6.32995 11.3281Z" fill="#FEFEFE"/>
<path d="M15.0577 11.3281L16.1295 13.5232L18.5793 13.8805L16.793 15.5651L17.2523 18.0154L15.0577 16.8413L12.9142 18.0154L13.3224 15.5651L11.5361 13.8805L13.986 13.5232L15.0577 11.3281Z" fill="#FEFEFE"/>
<path d="M23.7843 11.3281L24.8561 13.5232L27.3059 13.8805L25.5196 15.5651L25.9279 18.0154L23.7843 16.8413L21.5897 18.0154L21.998 15.5651L20.2627 13.8805L22.7125 13.5232L23.7843 11.3281Z" fill="#FEFEFE"/>
</svg>
