<svg width="30" height="30" viewBox="0 0 30 30" fill="none" xmlns="http://www.w3.org/2000/svg">
<path d="M27.0856 17.7934C28.6496 11.0945 24.4881 4.39592 17.7906 2.83162C11.0931 1.26732 4.39583 5.42969 2.83185 12.1285C1.26786 18.8274 5.42939 25.5259 12.1269 27.0902C18.8244 28.6545 25.5216 24.4922 27.0856 17.7934Z" fill="#FBC920"/>
<path d="M21.101 16.4181C21.8997 13.0148 19.7887 9.60836 16.3862 8.80954C12.9836 8.01073 9.57776 10.1221 8.7791 13.5253C7.98044 16.9286 10.0914 20.3351 13.494 21.1339C16.8966 21.9327 20.3023 19.8214 21.101 16.4181Z" fill="#FEFEFE"/>
<path d="M12.7713 14.2417C12.7713 14.5991 12.4651 14.9054 12.1078 14.9054C11.7506 14.9054 11.4443 14.5991 11.4443 14.2417C11.4443 13.8844 11.7506 13.5781 12.1078 13.5781C12.4651 13.5781 12.7713 13.8844 12.7713 14.2417Z" fill="#FBC920"/>
<path d="M18.4871 14.2417C18.4871 14.5991 18.1809 14.9054 17.8236 14.9054C17.4664 14.9054 17.1602 14.5991 17.1602 14.2417C17.1602 13.8844 17.4664 13.5781 17.8236 13.5781C18.1809 13.5781 18.4871 13.8844 18.4871 14.2417Z" fill="#FBC920"/>
<path d="M15.0176 18.7753C13.7417 18.7753 12.6699 17.7033 12.6699 16.4271C12.6699 16.274 12.772 16.1719 12.9251 16.1719C13.0782 16.1719 13.1803 16.274 13.1803 16.4271C13.1803 17.4481 13.9969 18.2648 15.0176 18.2648C16.0384 18.2648 16.855 17.4481 16.855 16.4271C16.855 16.274 16.9571 16.1719 17.1102 16.1719C17.2633 16.1719 17.3654 16.274 17.3654 16.4271C17.3143 17.7544 16.2936 18.7753 15.0176 18.7753Z" fill="#FBC920"/>
</svg>
