<svg width="196" height="287" viewBox="0 0 196 287" fill="none" xmlns="http://www.w3.org/2000/svg">
<path d="M136.419 212.449C144.306 221.141 153.007 235.503 156.913 243.169C160.018 249.266 159.568 255.705 155.532 260.865C154.49 262.19 153.213 263.439 151.703 264.561C151.117 265.004 150.509 265.426 149.894 265.828C150.406 259.007 144.092 245.789 136.004 233.372C135.424 232.478 134.831 231.604 134.251 230.747L134.245 230.744C126.905 220.075 119.646 213.071 116.842 211.999C117.19 211.592 117.438 211.105 117.848 210.772C124.659 205.242 128.531 203.753 136.419 212.449Z" fill="#6194CF"/>
<path d="M53.2703 90.5512C58.9902 96.0398 71.8509 115.43 76.0549 124.825C78.7982 130.961 73.9243 136.596 69.7516 140.549C64.8841 145.163 60.1377 150.207 58.4226 156.902C56.5341 164.284 61.129 171.229 64.7561 177.298C72.1925 189.737 81.1227 202.135 92.4072 211.396C103.112 220.177 107.951 216.644 116.839 211.996C117.312 211.748 117.435 211.103 117.845 210.769C124.659 205.239 128.531 203.753 136.419 212.446C144.306 221.139 153.007 235.5 156.913 243.166C159.326 247.899 159.346 253.491 157.064 258.271C153.711 265.297 145.688 268.53 138.853 271.097C127.784 275.255 115.545 278.31 103.632 277.596C90.5546 276.814 81.2743 267.743 73.3833 258.211C66.2005 249.536 59.5237 240.439 53.0363 231.238C45.8627 221.059 38.9477 210.695 32.2875 200.172C26.5107 191.05 20.8826 181.816 15.7245 172.328C13.1307 167.56 10.4718 162.687 8.66219 157.549C2.16632 139.108 7.88093 117.247 34.6951 88.8963C34.707 88.8921 34.707 88.8921 34.7095 88.8857C42.8397 80.3042 48.3624 85.8485 53.2703 90.5512Z" fill="#3D9A1C"/>
<path d="M136.784 211.725C144.671 220.418 153.373 234.779 157.279 242.445C160.384 248.543 159.933 254.982 155.898 260.141C154.855 261.467 153.579 262.716 152.069 263.838C151.482 264.28 150.875 264.703 150.26 265.105C150.772 258.284 144.457 245.066 136.369 232.649C135.79 231.755 135.196 230.881 134.617 230.024L134.61 230.021C127.27 219.352 120.011 212.348 117.207 211.275C117.555 210.868 117.803 210.382 118.213 210.049C125.025 204.519 128.896 203.029 136.784 211.725Z" fill="#71B359"/>
<path d="M53.2709 90.5511C58.9908 96.0397 71.8549 115.432 76.0555 124.825C79.0476 131.507 79.2104 135.764 70.2135 140.015C69.1901 132.29 56.8787 111.907 53.7686 108.027C50.8261 104.358 41.2412 90.8321 34.7024 88.9017C34.7143 88.8975 34.7143 88.8975 34.7167 88.8911C42.84 80.3011 48.3627 85.8454 53.2709 90.5511Z" fill="#71B359"/>
<path d="M78.75 47.1082C78.75 66.1317 88.2348 82.5614 101.677 89.6435C105.169 91.4947 107.269 95.6196 107.269 99.9382C107.269 101.598 106.959 103.275 106.316 104.857L109.707 102.231C117.143 96.443 125.777 93.3755 134.59 93.3755H158.043C168.416 93.3755 177.836 88.1743 184.681 79.7926C191.51 71.3948 195.75 59.8381 195.75 47.1082C195.75 46.0964 195.723 45.0847 195.661 44.0891C194.384 20.0366 177.968 0.856934 158.043 0.856934H116.457C111.121 0.856934 106.033 2.2319 101.431 4.73161C97.0745 7.05641 93.1446 10.3768 89.8327 14.4398C82.9904 22.8215 78.75 34.3944 78.75 47.1082Z" fill="#F2F2F2"/>
<path d="M77.75 48.1822C77.75 67.5103 87.3149 84.201 100.872 91.401C104.393 93.2802 106.512 97.4745 106.512 101.861C106.512 103.548 106.201 105.251 105.55 106.857L108.969 104.19C116.469 98.3085 125.177 95.1918 134.066 95.1918H157.72C168.182 95.1918 177.685 89.9063 184.585 81.3903C191.474 72.8581 195.75 61.1145 195.75 48.1822C195.75 47.1532 195.723 46.127 195.658 45.1143C194.658 51.5561 192.136 57.1801 188.145 61.9837C185.428 65.2303 182.245 67.8812 178.774 69.7279C168.35 75.287 156.588 74.8213 145.253 74.2743L121.312 73.1181C112.577 72.6848 102.961 71.7994 96.8257 64.1201C91.3662 57.2749 90.223 46.72 91.0149 37.1615C91.9635 25.7076 95.0527 15.3179 100.342 5.85693C95.95 8.21811 92.2608 10.8609 88.9203 14.9903C82.0257 23.5062 77.75 35.2661 77.75 48.1822Z" fill="#E2E2E2"/>
<path d="M150.272 27.2722C149.832 25.8134 149.06 24.4737 147.952 23.2511C146.844 22.0262 145.331 21.0154 143.414 20.2165C141.499 19.4175 139.064 19.0181 136.111 19.0181C133.756 19.0181 131.354 19.3359 128.911 19.9693C126.462 20.6049 124.339 21.5097 122.539 22.6861L124.883 29.1084L123.627 30.1236L125.449 30.6577C127.247 29.7175 128.886 29.0356 130.366 28.6118C131.843 28.1881 133.411 27.9784 135.074 27.9784C136.735 27.9784 137.993 28.3779 138.847 29.1768C139.701 29.9779 140.128 30.9402 140.128 32.0702C140.128 33.4341 139.687 34.6457 138.814 35.705C137.936 36.7644 136.965 37.8348 135.903 38.9162C135.167 39.6666 134.45 40.4434 133.758 41.2424C133.066 42.0435 132.453 42.8998 131.923 43.8201C131.39 44.736 130.965 45.7247 130.642 46.7841C130.317 47.8434 130.158 49.0308 130.158 50.3462C130.158 50.7721 130.167 51.2775 130.191 51.8646C130.195 51.9727 130.2 52.0786 130.207 52.1824H128.484L130.364 53.4514H139.504C139.457 53.1689 139.433 52.84 139.433 52.4627C139.433 52.0853 139.433 51.8028 139.433 51.6152C139.433 50.8162 139.595 50.0284 139.917 49.2515C140.24 48.4746 140.645 47.7353 141.129 47.0291C141.614 46.3228 142.156 45.6541 142.757 45.0185C143.356 44.3829 143.934 43.7826 144.489 43.2176C145.225 42.4672 145.988 41.6661 146.771 40.8186C147.556 39.9711 148.251 39.0795 148.85 38.1371C149.449 37.1948 149.945 36.1729 150.338 35.065C150.73 33.9593 150.929 32.7499 150.929 31.4301C150.929 30.1192 150.71 28.731 150.272 27.2722Z" fill="#BCBCBC"/>
<path d="M133.137 27.5304C131.494 27.5304 129.943 27.7356 128.484 28.1439C127.022 28.5544 125.403 29.2143 123.625 30.1236L120.75 22.408C122.53 21.2692 124.629 20.393 127.049 19.7772C129.466 19.1637 131.839 18.8569 134.165 18.8569C137.085 18.8569 139.488 19.2432 141.384 20.0178C143.277 20.7925 144.772 21.7701 145.869 22.9553C146.964 24.1404 147.727 25.4359 148.16 26.8484C148.591 28.2609 148.81 29.6027 148.81 30.8762C148.81 32.1518 148.613 33.3237 148.226 34.3919C147.839 35.4623 147.348 36.4532 146.756 37.3647C146.163 38.2762 145.477 39.1391 144.701 39.9579C143.925 40.7789 143.173 41.5513 142.445 42.2796C141.897 42.827 141.326 43.4074 140.734 44.0231C140.139 44.6367 139.603 45.2855 139.126 45.9675C138.646 46.6516 138.246 47.3689 137.927 48.1193C137.609 48.8697 137.447 49.6333 137.447 50.4057C137.447 50.5889 137.447 50.8604 137.447 51.2267C137.447 51.5909 137.469 51.9087 137.516 52.1823H128.484C128.391 51.7277 128.336 51.2157 128.311 50.6463C128.287 50.0769 128.278 49.5891 128.278 49.1764C128.278 47.903 128.437 46.7532 128.758 45.7291C129.076 44.7051 129.497 43.7495 130.023 42.8623C130.547 41.9728 131.153 41.143 131.837 40.3684C132.52 39.5937 133.23 38.8433 133.957 38.1173C135.006 37.0711 135.965 36.0339 136.832 35.0098C137.697 33.9858 138.131 32.8139 138.131 31.4941C138.131 30.3994 137.71 29.4681 136.866 28.6934C136.023 27.9166 134.78 27.5304 133.137 27.5304Z" fill="#E60019"/>
<path d="M140.13 62.3058C140.13 63.95 139.597 65.219 138.529 66.115C137.463 67.0111 136.255 67.4591 134.911 67.4591C133.562 67.4591 132.356 67.0133 131.29 66.115C130.224 65.219 129.691 63.95 129.691 62.3058C129.691 60.6638 130.224 59.3948 131.29 58.4965C132.934 57.1127 135.362 56.806 137.286 57.777C138.991 58.6378 140.13 60.3857 140.13 62.3058Z" fill="#BCBCBC"/>
<path d="M138.341 62.3058C138.341 63.95 137.808 65.219 136.74 66.115C135.674 67.0111 134.466 67.4591 133.122 67.4591C131.773 67.4591 130.567 67.0133 129.501 66.115C128.435 65.219 127.902 63.95 127.902 62.3058C127.902 60.6638 128.435 59.3948 129.501 58.4965C130.567 57.6005 131.775 57.1525 133.122 57.1525C134.468 57.1525 135.674 57.6005 136.74 58.4965C137.808 59.3948 138.341 60.6616 138.341 62.3058Z" fill="#E60019"/>
</svg>
