<svg width="104" height="101" viewBox="0 0 104 101" fill="none" xmlns="http://www.w3.org/2000/svg">
<path d="M1.83736 23.8361L0 56.8129H2.705C2.705 56.8129 8.31913 76.4663 11.3303 78.1508C14.3416 79.8354 24.3449 78.1508 24.3449 78.1508L29.6528 97.1917C29.6528 97.1917 26.4885 99.1825 26.6416 100.51C26.7947 101.888 58.2339 98.2637 58.2339 95.5071C58.2339 92.8015 53.0791 81.4179 52.7729 76.6194C52.4666 71.7699 54.1509 55.7409 53.8446 49.8704C53.5384 43.9489 30.8777 20.3648 22.7117 18.5781C14.4947 16.7404 3.01122 19.497 1.83736 23.8361Z" fill="#FFBD95"/>
<path d="M6.88333 67.2266L6.78125 66.9713C6.78125 66.9713 9.23105 65.9504 10.0987 62.7344L10.3539 62.7854C9.48624 66.1035 6.93437 67.1755 6.88333 67.2266Z" fill="#222221"/>
<path d="M6.27109 45.9908C6.27109 46.6544 5.70968 47.2159 5.04619 47.2159C4.3827 47.2159 3.82129 46.6544 3.82129 45.9908C3.82129 45.3271 4.3827 44.7656 5.04619 44.7656C5.70968 44.7656 6.27109 45.3271 6.27109 45.9908Z" fill="#222221"/>
<path d="M6.88405 38.0256H2.95415C2.85207 38.0256 2.75 37.9235 2.75 37.8214C2.75 37.7193 2.85207 37.6172 2.95415 37.6172H6.88405C6.98612 37.6172 7.08819 37.7193 7.08819 37.8214C7.08819 37.9235 6.98612 38.0256 6.88405 38.0256Z" fill="#222221"/>
<path d="M23.9814 78.926L29.7487 75.1484L25.7678 85.3069L23.9814 78.926Z" fill="#222221"/>
<path d="M25.7673 85.452C25.7163 85.452 25.6652 85.401 25.6652 85.3499L23.8789 78.969C23.8789 78.9179 23.8789 78.8669 23.9299 78.8158L29.6972 75.0383C29.7482 74.9872 29.7993 74.9872 29.8503 75.0383C29.9013 75.0893 29.9013 75.1404 29.9013 75.1914L25.8694 85.3499C25.8694 85.401 25.8183 85.452 25.7673 85.452ZM24.1341 78.969L25.7673 84.8905L29.493 75.4467L24.1341 78.969Z" fill="#222221"/>
<path d="M23.9814 45.9875C23.9814 45.9875 27.0437 45.5281 26.8906 49.1525Z" fill="#222221"/>
<path d="M26.8901 49.3064C26.8391 49.3064 26.737 49.2554 26.7881 49.1533C26.8391 48.0302 26.5839 47.2135 26.0225 46.6519C25.2059 45.9373 24.0831 46.0904 24.032 46.0904C23.981 46.0904 23.8789 46.0394 23.8789 45.9883C23.8789 45.9373 23.93 45.8352 23.981 45.8352C24.032 45.8352 25.2569 45.631 26.1756 46.4478C26.788 47.0093 27.0943 47.9281 27.0432 49.1533C26.9922 49.2554 26.9412 49.3064 26.8901 49.3064Z" fill="#222221"/>
<path d="M18.6722 47.933L20.3565 56.1007H22.3469C22.3469 56.1007 21.4283 45.6869 23.5718 44.4618C25.6644 43.2366 29.186 44.0023 28.7777 51.4043C28.4204 58.8062 26.1237 63.0431 26.4299 64.4214C26.7361 65.7997 28.6756 69.1178 34.7491 72.2828C40.8225 75.4477 52.4591 73.9674 52.4591 73.9674C52.4591 73.9674 58.7878 66.106 63.4832 57.6321C68.1787 49.1582 71.6492 40.0717 68.9442 30.2705C68.9442 30.2705 76.0384 34.9669 74.2521 44.3597C72.4148 53.7525 69.4036 70.0877 80.5808 80.9609C91.758 91.8341 103.088 90.3537 100.536 85.351C97.9846 80.3483 95.9941 77.1834 99.4647 63.8599C102.935 50.5364 106.865 25.7273 98.6991 16.845C90.5331 7.9116 71.1899 7.86055 64.6571 18.8358C64.6571 18.8358 57.2566 3.98092 45.0076 1.42854C32.7586 -1.12385 16.5797 1.58168 7.495 9.59617C-1.58969 17.6107 -1.43658 20.6225 4.02443 28.637C9.48545 36.6004 9.1282 39.9185 18.6722 47.933Z" fill="#222221"/>
<path d="M68.8428 30.3186C65.7295 28.634 63.8921 26.541 63.3818 24.1928C62.7183 21.181 64.5556 18.7307 64.5556 18.6797L64.7598 18.8328C64.7598 18.8328 63.0245 21.2321 63.6369 24.1418C64.1473 26.4389 65.9336 28.4298 68.9448 30.1144L68.8428 30.3186Z" fill="white"/>
</svg>
