<svg width="535" height="300" viewBox="0 0 535 300" fill="none" xmlns="http://www.w3.org/2000/svg">
<path d="M267.712 97.4964L484.575 148.788L267.712 371.5L44.9998 148.788L267.712 97.4964Z" fill="url(#paint0_linear_263_4481)"/>
<path d="M484.575 148.788L267.712 97.4969L267.712 371.5L484.575 148.788Z" fill="url(#paint1_linear_263_4481)"/>
<g filter="url(#filter0_ii_263_4481)">
<path d="M334.525 91.0016L277.522 75.7276L272.126 93.6414C293.259 99.3039 309.551 106.35 321.001 114.779C338.331 127.961 343.596 147.242 336.795 172.622C331.136 193.742 319.977 208.324 303.317 216.37C286.657 224.415 264.61 224.762 237.174 217.41C214.929 211.45 199.817 204.819 191.839 197.519C183.91 190.034 181.336 181.104 184.116 170.729C188.981 152.574 197.808 145.21 210.599 148.637C213.936 149.531 219.503 152.115 227.298 156.388C235.28 160.71 241.031 163.344 244.554 164.287C253.081 166.572 259.681 167.15 264.355 166.019C269.029 164.889 272.136 161.452 273.675 155.709C276.454 145.335 260.419 135.478 225.568 126.14C215.929 123.557 210.104 119.713 208.094 114.608C206.085 109.502 206.792 100.558 210.218 87.7753L223.546 38.0333C225.631 30.2524 229.487 25.1303 235.114 22.6669C240.976 20.0679 249.839 20.3579 261.704 23.5369L340.674 44.6969C349.386 47.0315 354.872 50.2883 357.13 54.4673C359.387 58.6464 359.201 65.6453 356.57 75.4641C354.634 82.6891 351.946 87.5287 348.507 89.9827C345.303 92.3011 340.642 92.6407 334.525 91.0016Z" fill="#FF0000"/>
</g>
<path d="M202 196C202 196 240.333 207.11 265.5 207C287.041 206.906 320 198.5 320 198.5V226H202V196Z" fill="url(#paint2_linear_263_4481)"/>
<path d="M45.375 149L265.375 214.169V309H71.919L45.375 149Z" fill="#BEBEBE"/>
<path d="M485.375 149L264.375 214.169V309H451.999L485.375 149Z" fill="#FFF4F4"/>
<path d="M118.375 170L166.933 184.21L176.375 309H135.91L118.375 170Z" fill="#CC3924"/>
<path d="M409.375 170L361.788 184.051L346.375 307H386.031L409.375 170Z" fill="#CC3924"/>
<path d="M231.632 38.9332C234.432 26.9332 241.132 28.2665 244.132 30.4332C250.455 35 240.632 51.4331 235.632 54.9331C230.632 58.4331 228.132 53.9332 231.632 38.9332Z" fill="white" fill-opacity="0.66"/>
<ellipse opacity="0.7" cx="229.5" cy="65.0004" rx="4.5" ry="4" transform="rotate(-53.6119 229.5 65.0004)" fill="white"/>
<rect x="15.9561" y="36.0781" width="26.3828" height="7.68544" transform="rotate(109.047 15.9561 36.0781)" fill="#72FFEE"/>
<rect width="21.6726" height="6.31335" transform="matrix(0.326349 0.945249 0.945249 -0.326349 521.959 59.4922)" fill="#72FFEE"/>
<rect x="50.3604" y="67.5078" width="19.1483" height="4.22453" transform="rotate(5.65658 50.3604 67.5078)" fill="#FF4747"/>
<rect width="15.7298" height="3.47032" transform="matrix(-0.995131 0.0985656 0.0985656 0.995131 493.697 85.3125)" fill="#FF4747"/>
<rect x="128.44" y="66.3516" width="19.1483" height="7.80118" transform="rotate(37.8276 128.44 66.3516)" fill="#FF4747"/>
<rect width="15.7298" height="6.40843" transform="matrix(-0.789859 0.613288 0.613288 0.789859 429.557 84.3594)" fill="#FF4747"/>
<rect x="21.915" y="96" width="15.3057" height="6.23567" transform="rotate(27.8718 21.915 96)" fill="#FFFBA0"/>
<rect width="12.5732" height="5.12241" transform="matrix(-0.883996 0.467494 0.467494 0.883996 517.064 108.719)" fill="#FFFBA0"/>
<rect x="177.634" y="103" width="15.1814" height="6.18503" transform="rotate(65.6295 177.634 103)" fill="#FFFBA0"/>
<rect width="12.4711" height="5.08081" transform="matrix(-0.412635 0.910896 0.910896 0.412635 389.146 114.469)" fill="#FFFBA0"/>
<rect x="87.374" y="109" width="14.4805" height="5.89945" transform="rotate(65.6295 87.374 109)" fill="#72FFEE"/>
<rect width="11.8952" height="4.84621" transform="matrix(-0.412635 0.910896 0.910896 0.412635 463.292 119.398)" fill="#72FFEE"/>
<path d="M96.6899 16L105.24 34.8754L100.5 37.5L89 19.4835L96.6899 16Z" fill="#FFFBA0"/>
<path d="M455.639 43L448.615 58.5055L452.509 60.6616L461.956 45.8616L455.639 43Z" fill="#FFFBA0"/>
<rect x="169.048" y="21" width="20.7217" height="8.44219" transform="rotate(72.4207 169.048 21)" fill="#72FFEE"/>
<rect width="17.0223" height="6.935" transform="matrix(-0.302025 0.9533 0.9533 0.302025 396.199 47.1094)" fill="#72FFEE"/>
<rect x="150.853" y="122" width="18.2734" height="5.1657" transform="rotate(48.228 150.853 122)" fill="#FFFBA0"/>
<rect width="15.0111" height="4.24346" transform="matrix(-0.666169 0.745801 0.745801 0.666169 411.146 130.078)" fill="#FFFBA0"/>
<g filter="url(#filter1_i_263_4481)">
<path d="M54.5852 44.2486C61.1477 44.5414 65.553 40.6271 66.1319 34.884L45.8233 33.8367C44.8324 39.0172 48.5429 43.979 54.5852 44.2486Z" fill="#A46E3A"/>
</g>
<path d="M66.0371 35.5185C65.1914 39.8784 59.9985 42.9145 54.4385 42.2999C48.8784 41.6852 45.0567 37.6526 45.9023 33.2927C46.748 28.9328 51.9409 25.8967 57.501 26.5114C63.061 27.126 66.8828 31.1587 66.0371 35.5185Z" fill="#FFE926"/>
<g filter="url(#filter2_ii_263_4481)">
<path d="M64.8963 35.3882C64.1463 39.2543 59.5415 41.9466 54.6111 41.4016C49.6806 40.8565 46.2916 37.2805 47.0416 33.4144C47.7915 29.5482 52.3963 26.8559 57.3268 27.401C62.2572 27.946 65.6462 31.522 64.8963 35.3882Z" fill="#FFE926"/>
</g>
<g filter="url(#filter3_i_263_4481)">
<path d="M438.07 130.946C441.232 136.704 446.866 138.432 452.073 135.94L442.407 118.048C437.467 119.896 435.158 125.645 438.07 130.946Z" fill="#A46E3A"/>
</g>
<path d="M451.483 136.192C447.319 137.737 442.026 134.88 439.66 129.811C437.294 124.742 438.751 119.381 442.915 117.836C447.079 116.291 452.372 119.148 454.738 124.217C457.104 129.286 455.647 134.647 451.483 136.192Z" fill="#FFE926"/>
<g filter="url(#filter4_ii_263_4481)">
<path d="M450.998 135.156C447.305 136.526 442.611 133.992 440.513 129.498C438.415 125.003 439.707 120.248 443.399 118.879C447.092 117.509 451.786 120.042 453.884 124.537C455.982 129.032 454.69 133.786 450.998 135.156Z" fill="#FFE926"/>
</g>
<g filter="url(#filter5_i_263_4481)">
<path d="M129.06 144.743C132.222 150.501 137.856 152.229 143.063 149.737L133.397 131.845C128.457 133.692 126.148 139.442 129.06 144.743Z" fill="#A46E3A"/>
</g>
<path d="M142.473 149.989C138.309 151.534 133.016 148.677 130.649 143.608C128.283 138.539 129.741 133.178 133.905 131.633C138.068 130.088 143.362 132.945 145.728 138.014C148.094 143.083 146.637 148.444 142.473 149.989Z" fill="#FFE926"/>
<g filter="url(#filter6_ii_263_4481)">
<path d="M141.987 148.953C138.295 150.323 133.601 147.789 131.503 143.294C129.404 138.8 130.697 134.045 134.389 132.675C138.081 131.306 142.776 133.839 144.874 138.334C146.972 142.829 145.68 147.583 141.987 148.953Z" fill="#FFE926"/>
</g>
<g filter="url(#filter7_i_263_4481)">
<path d="M356.06 29.7434C359.222 35.5012 364.856 37.2286 370.063 34.7369L360.397 16.8451C355.457 18.6925 353.148 24.442 356.06 29.7434Z" fill="#A46E3A"/>
</g>
<path d="M369.473 34.9889C365.309 36.5336 360.016 33.6766 357.649 28.6078C355.283 23.5389 356.741 18.1775 360.905 16.6328C365.068 15.0882 370.362 17.9451 372.728 23.014C375.094 28.0828 373.637 33.4442 369.473 34.9889Z" fill="#FFE926"/>
<g filter="url(#filter8_ii_263_4481)">
<path d="M368.987 33.9529C365.295 35.3227 360.601 32.7893 358.503 28.2944C356.404 23.7995 357.697 19.0453 361.389 17.6755C365.081 16.3057 369.776 18.8391 371.874 23.334C373.972 27.8289 372.68 32.5832 368.987 33.9529Z" fill="#FFE926"/>
</g>
<defs>
<filter id="filter0_ii_263_4481" x="182.034" y="15.9141" width="176.66" height="209.758" filterUnits="userSpaceOnUse" color-interpolation-filters="sRGB">
<feFlood flood-opacity="0" result="BackgroundImageFix"/>
<feBlend mode="normal" in="SourceGraphic" in2="BackgroundImageFix" result="shape"/>
<feColorMatrix in="SourceAlpha" type="matrix" values="0 0 0 0 0 0 0 0 0 0 0 0 0 0 0 0 0 0 127 0" result="hardAlpha"/>
<feOffset dy="-5"/>
<feGaussianBlur stdDeviation="4.6"/>
<feComposite in2="hardAlpha" operator="arithmetic" k2="-1" k3="1"/>
<feColorMatrix type="matrix" values="0 0 0 0 0 0 0 0 0 0 0 0 0 0 0 0 0 0 0.52 0"/>
<feBlend mode="normal" in2="shape" result="effect1_innerShadow_263_4481"/>
<feColorMatrix in="SourceAlpha" type="matrix" values="0 0 0 0 0 0 0 0 0 0 0 0 0 0 0 0 0 0 127 0" result="hardAlpha"/>
<feOffset dx="-1" dy="3"/>
<feGaussianBlur stdDeviation="2"/>
<feComposite in2="hardAlpha" operator="arithmetic" k2="-1" k3="1"/>
<feColorMatrix type="matrix" values="0 0 0 0 1 0 0 0 0 0.649427 0 0 0 0 0.6025 0 0 0 1 0"/>
<feBlend mode="normal" in2="effect1_innerShadow_263_4481" result="effect2_innerShadow_263_4481"/>
</filter>
<filter id="filter1_i_263_4481" x="45.6636" y="33.8359" width="20.4683" height="10.4297" filterUnits="userSpaceOnUse" color-interpolation-filters="sRGB">
<feFlood flood-opacity="0" result="BackgroundImageFix"/>
<feBlend mode="normal" in="SourceGraphic" in2="BackgroundImageFix" result="shape"/>
<feColorMatrix in="SourceAlpha" type="matrix" values="0 0 0 0 0 0 0 0 0 0 0 0 0 0 0 0 0 0 127 0" result="hardAlpha"/>
<feOffset dx="-27" dy="11"/>
<feComposite in2="hardAlpha" operator="arithmetic" k2="-1" k3="1"/>
<feColorMatrix type="matrix" values="0 0 0 0 0.7875 0 0 0 0 0.5175 0 0 0 0 0 0 0 0 1 0"/>
<feBlend mode="normal" in2="shape" result="effect1_innerShadow_263_4481"/>
</filter>
<filter id="filter2_ii_263_4481" x="45.9375" y="26.3281" width="19.0625" height="15.1406" filterUnits="userSpaceOnUse" color-interpolation-filters="sRGB">
<feFlood flood-opacity="0" result="BackgroundImageFix"/>
<feBlend mode="normal" in="SourceGraphic" in2="BackgroundImageFix" result="shape"/>
<feColorMatrix in="SourceAlpha" type="matrix" values="0 0 0 0 0 0 0 0 0 0 0 0 0 0 0 0 0 0 127 0" result="hardAlpha"/>
<feOffset dx="2" dy="4"/>
<feComposite in2="hardAlpha" operator="arithmetic" k2="-1" k3="1"/>
<feColorMatrix type="matrix" values="0 0 0 0 0.925 0 0 0 0 0.7215 0 0 0 0 0 0 0 0 1 0"/>
<feBlend mode="normal" in2="shape" result="effect1_innerShadow_263_4481"/>
<feColorMatrix in="SourceAlpha" type="matrix" values="0 0 0 0 0 0 0 0 0 0 0 0 0 0 0 0 0 0 127 0" result="hardAlpha"/>
<feOffset dx="-1" dy="-1"/>
<feGaussianBlur stdDeviation="1.5"/>
<feComposite in2="hardAlpha" operator="arithmetic" k2="-1" k3="1"/>
<feColorMatrix type="matrix" values="0 0 0 0 0.92549 0 0 0 0 0.721569 0 0 0 0 0 0 0 0 1 0"/>
<feBlend mode="normal" in2="effect1_innerShadow_263_4481" result="effect2_innerShadow_263_4481"/>
</filter>
<filter id="filter3_i_263_4481" x="436.789" y="118.047" width="15.2837" height="19" filterUnits="userSpaceOnUse" color-interpolation-filters="sRGB">
<feFlood flood-opacity="0" result="BackgroundImageFix"/>
<feBlend mode="normal" in="SourceGraphic" in2="BackgroundImageFix" result="shape"/>
<feColorMatrix in="SourceAlpha" type="matrix" values="0 0 0 0 0 0 0 0 0 0 0 0 0 0 0 0 0 0 127 0" result="hardAlpha"/>
<feOffset dx="-27" dy="11"/>
<feComposite in2="hardAlpha" operator="arithmetic" k2="-1" k3="1"/>
<feColorMatrix type="matrix" values="0 0 0 0 0.7875 0 0 0 0 0.5175 0 0 0 0 0 0 0 0 1 0"/>
<feBlend mode="normal" in2="shape" result="effect1_innerShadow_263_4481"/>
</filter>
<filter id="filter4_ii_263_4481" x="438.507" y="117.508" width="16.3818" height="18.0234" filterUnits="userSpaceOnUse" color-interpolation-filters="sRGB">
<feFlood flood-opacity="0" result="BackgroundImageFix"/>
<feBlend mode="normal" in="SourceGraphic" in2="BackgroundImageFix" result="shape"/>
<feColorMatrix in="SourceAlpha" type="matrix" values="0 0 0 0 0 0 0 0 0 0 0 0 0 0 0 0 0 0 127 0" result="hardAlpha"/>
<feOffset dx="2" dy="4"/>
<feComposite in2="hardAlpha" operator="arithmetic" k2="-1" k3="1"/>
<feColorMatrix type="matrix" values="0 0 0 0 0.925 0 0 0 0 0.7215 0 0 0 0 0 0 0 0 1 0"/>
<feBlend mode="normal" in2="shape" result="effect1_innerShadow_263_4481"/>
<feColorMatrix in="SourceAlpha" type="matrix" values="0 0 0 0 0 0 0 0 0 0 0 0 0 0 0 0 0 0 127 0" result="hardAlpha"/>
<feOffset dx="-1" dy="-1"/>
<feGaussianBlur stdDeviation="1.5"/>
<feComposite in2="hardAlpha" operator="arithmetic" k2="-1" k3="1"/>
<feColorMatrix type="matrix" values="0 0 0 0 0.92549 0 0 0 0 0.721569 0 0 0 0 0 0 0 0 1 0"/>
<feBlend mode="normal" in2="effect1_innerShadow_263_4481" result="effect2_innerShadow_263_4481"/>
</filter>
<filter id="filter5_i_263_4481" x="127.779" y="131.844" width="15.2837" height="19" filterUnits="userSpaceOnUse" color-interpolation-filters="sRGB">
<feFlood flood-opacity="0" result="BackgroundImageFix"/>
<feBlend mode="normal" in="SourceGraphic" in2="BackgroundImageFix" result="shape"/>
<feColorMatrix in="SourceAlpha" type="matrix" values="0 0 0 0 0 0 0 0 0 0 0 0 0 0 0 0 0 0 127 0" result="hardAlpha"/>
<feOffset dx="-27" dy="11"/>
<feComposite in2="hardAlpha" operator="arithmetic" k2="-1" k3="1"/>
<feColorMatrix type="matrix" values="0 0 0 0 0.7875 0 0 0 0 0.5175 0 0 0 0 0 0 0 0 1 0"/>
<feBlend mode="normal" in2="shape" result="effect1_innerShadow_263_4481"/>
</filter>
<filter id="filter6_ii_263_4481" x="129.497" y="131.305" width="16.3818" height="18.0234" filterUnits="userSpaceOnUse" color-interpolation-filters="sRGB">
<feFlood flood-opacity="0" result="BackgroundImageFix"/>
<feBlend mode="normal" in="SourceGraphic" in2="BackgroundImageFix" result="shape"/>
<feColorMatrix in="SourceAlpha" type="matrix" values="0 0 0 0 0 0 0 0 0 0 0 0 0 0 0 0 0 0 127 0" result="hardAlpha"/>
<feOffset dx="2" dy="4"/>
<feComposite in2="hardAlpha" operator="arithmetic" k2="-1" k3="1"/>
<feColorMatrix type="matrix" values="0 0 0 0 0.925 0 0 0 0 0.7215 0 0 0 0 0 0 0 0 1 0"/>
<feBlend mode="normal" in2="shape" result="effect1_innerShadow_263_4481"/>
<feColorMatrix in="SourceAlpha" type="matrix" values="0 0 0 0 0 0 0 0 0 0 0 0 0 0 0 0 0 0 127 0" result="hardAlpha"/>
<feOffset dx="-1" dy="-1"/>
<feGaussianBlur stdDeviation="1.5"/>
<feComposite in2="hardAlpha" operator="arithmetic" k2="-1" k3="1"/>
<feColorMatrix type="matrix" values="0 0 0 0 0.92549 0 0 0 0 0.721569 0 0 0 0 0 0 0 0 1 0"/>
<feBlend mode="normal" in2="effect1_innerShadow_263_4481" result="effect2_innerShadow_263_4481"/>
</filter>
<filter id="filter7_i_263_4481" x="354.779" y="16.8438" width="15.2837" height="19" filterUnits="userSpaceOnUse" color-interpolation-filters="sRGB">
<feFlood flood-opacity="0" result="BackgroundImageFix"/>
<feBlend mode="normal" in="SourceGraphic" in2="BackgroundImageFix" result="shape"/>
<feColorMatrix in="SourceAlpha" type="matrix" values="0 0 0 0 0 0 0 0 0 0 0 0 0 0 0 0 0 0 127 0" result="hardAlpha"/>
<feOffset dx="-27" dy="11"/>
<feComposite in2="hardAlpha" operator="arithmetic" k2="-1" k3="1"/>
<feColorMatrix type="matrix" values="0 0 0 0 0.7875 0 0 0 0 0.5175 0 0 0 0 0 0 0 0 1 0"/>
<feBlend mode="normal" in2="shape" result="effect1_innerShadow_263_4481"/>
</filter>
<filter id="filter8_ii_263_4481" x="356.497" y="16.3047" width="16.3818" height="18.0234" filterUnits="userSpaceOnUse" color-interpolation-filters="sRGB">
<feFlood flood-opacity="0" result="BackgroundImageFix"/>
<feBlend mode="normal" in="SourceGraphic" in2="BackgroundImageFix" result="shape"/>
<feColorMatrix in="SourceAlpha" type="matrix" values="0 0 0 0 0 0 0 0 0 0 0 0 0 0 0 0 0 0 127 0" result="hardAlpha"/>
<feOffset dx="2" dy="4"/>
<feComposite in2="hardAlpha" operator="arithmetic" k2="-1" k3="1"/>
<feColorMatrix type="matrix" values="0 0 0 0 0.925 0 0 0 0 0.7215 0 0 0 0 0 0 0 0 1 0"/>
<feBlend mode="normal" in2="shape" result="effect1_innerShadow_263_4481"/>
<feColorMatrix in="SourceAlpha" type="matrix" values="0 0 0 0 0 0 0 0 0 0 0 0 0 0 0 0 0 0 127 0" result="hardAlpha"/>
<feOffset dx="-1" dy="-1"/>
<feGaussianBlur stdDeviation="1.5"/>
<feComposite in2="hardAlpha" operator="arithmetic" k2="-1" k3="1"/>
<feColorMatrix type="matrix" values="0 0 0 0 0.92549 0 0 0 0 0.721569 0 0 0 0 0 0 0 0 1 0"/>
<feBlend mode="normal" in2="effect1_innerShadow_263_4481" result="effect2_innerShadow_263_4481"/>
</filter>
<linearGradient id="paint0_linear_263_4481" x1="104.5" y1="88.5" x2="149.5" y2="212.5" gradientUnits="userSpaceOnUse">
<stop stop-color="#909090"/>
<stop offset="1" stop-color="#FFBEBE"/>
</linearGradient>
<linearGradient id="paint1_linear_263_4481" x1="418.999" y1="83.2118" x2="309" y2="221" gradientUnits="userSpaceOnUse">
<stop stop-color="#666666"/>
<stop offset="1" stop-color="#FF9999"/>
</linearGradient>
<linearGradient id="paint2_linear_263_4481" x1="266" y1="204.5" x2="266" y2="218.5" gradientUnits="userSpaceOnUse">
<stop offset="0.155373" stop-color="#FE0000"/>
<stop offset="0.606386" stop-color="#B41917"/>
<stop offset="1" stop-color="#4E0B0A"/>
</linearGradient>
</defs>
</svg>
