<svg width="535" height="294" viewBox="0 0 535 294" fill="none" xmlns="http://www.w3.org/2000/svg">
<path d="M267.606 81.5L484.506 132.8L329.706 291.8L267.706 291L202.006 289.8L45.0059 132.8L267.606 81.5Z" fill="url(#paint0_linear_292_1697)"/>
<path d="M311.606 290.2C317.806 290.6 323.906 291 330.106 291.4L484.606 132.8L267.706 81.5V288.9C282.306 287.9 296.906 289.4 311.606 290.2Z" fill="url(#paint1_linear_292_1697)"/>
<path d="M201.906 180C201.906 180 240.206 191.1 265.406 191C286.906 190.9 319.906 182.5 319.906 182.5V210H201.906V180Z" fill="url(#paint2_linear_292_1697)"/>
<path d="M45.3062 133L265.306 198.2V293H71.8062L45.3062 133Z" fill="#BEBEBE"/>
<path d="M485.306 133L264.306 198.2V293H451.906L485.306 133Z" fill="#FFF4F4"/>
<path d="M118.306 154.703L166.806 169.103L176.206 293.203H135.706L118.306 154.703Z" fill="#FF7D00"/>
<path d="M409.306 155.398L361.706 169.398L346.306 292.998H386.006L409.306 155.398Z" fill="#FF7D00"/>
<path d="M8.61432 17.6535L0 42.6094L7.27881 45.1219L15.8931 20.166L8.61432 17.6535Z" fill="#72FFEE"/>
<path d="M527.706 41.499L521.75 43.5547L528.831 64.0677L534.787 62.012L527.706 41.499Z" fill="#72FFEE"/>
<path d="M50.2621 51.4768L49.8481 55.6562L68.8546 57.5389L69.2685 53.3595L50.2621 51.4768Z" fill="#FF4747"/>
<path d="M493.581 69.3275L477.958 70.875L478.303 74.3579L493.926 72.8103L493.581 69.3275Z" fill="#FF4747"/>
<path d="M128.242 50.3544L123.458 56.5156L138.546 68.2297L143.329 62.0684L128.242 50.3544Z" fill="#FF4747"/>
<path d="M429.508 68.3321L417.107 77.9609L421.032 83.0163L433.433 73.3875L429.508 68.3321Z" fill="#FF4747"/>
<path d="M21.7676 80.0504L18.8691 85.5312L32.3943 92.684L35.2928 87.2032L21.7676 80.0504Z" fill="#FFFBA0"/>
<path d="M516.982 92.7423L505.843 98.6328L508.228 103.141L519.366 97.2507L516.982 92.7423Z" fill="#FFFBA0"/>
<path d="M177.591 86.9809L171.943 89.5391L178.215 103.385L183.862 100.827L177.591 86.9809Z" fill="#FFFBA0"/>
<path d="M389.074 98.395L383.917 109.781L388.562 111.886L393.72 100.499L389.074 98.395Z" fill="#FFFBA0"/>
<path d="M87.2405 93.0188L81.8662 95.4531L87.8489 108.661L93.2232 106.227L87.2405 93.0188Z" fill="#72FFEE"/>
<path d="M463.134 103.442L458.224 114.281L462.596 116.262L467.506 105.422L463.134 103.442Z" fill="#72FFEE"/>
<path d="M96.6059 0L105.206 18.9L100.506 21.5L89.0059 3.5L96.6059 0Z" fill="#FFFBA0"/>
<path d="M455.606 27L448.606 42.5L452.506 44.7L461.906 29.9L455.606 27Z" fill="#FFFBA0"/>
<path d="M168.982 5.00226L160.975 7.53906L167.226 27.2724L175.234 24.7356L168.982 5.00226Z" fill="#72FFEE"/>
<path d="M396.099 31.1533L390.965 47.3594L397.543 49.4432L402.677 33.2371L396.099 31.1533Z" fill="#72FFEE"/>
<path d="M150.742 105.989L146.864 109.453L159.055 123.101L162.933 119.637L150.742 105.989Z" fill="#FFFBA0"/>
<path d="M411.015 114.118L401.022 125.305L404.154 128.103L414.147 116.916L411.015 114.118Z" fill="#FFFBA0"/>
<path d="M54.5061 28.1969C61.1061 28.4969 65.5061 24.5969 66.0061 18.7969L45.7061 17.7969C44.8061 22.9969 48.5061 27.9969 54.5061 28.1969Z" fill="#A46E3A"/>
<path d="M66.0058 19.4982C65.2058 23.8982 60.0058 26.8982 54.4058 26.2982C48.8058 25.6982 45.0058 21.6982 45.9058 17.2982C46.7058 12.8982 51.9058 9.8982 57.5058 10.4982C63.0058 11.0982 66.8058 15.1982 66.0058 19.4982Z" fill="#FFE926"/>
<path d="M64.8058 19.4038C64.1058 23.3038 59.4058 26.0038 54.5058 25.4038C49.6058 24.9038 46.2058 21.3038 46.9058 17.4038C47.6058 13.5038 52.3058 10.8038 57.2058 11.4038C62.2058 11.9038 65.6058 15.5038 64.8058 19.4038Z" fill="#FFE926"/>
<path d="M438.006 114.9C441.206 120.7 446.806 122.4 452.006 119.9L442.306 102C437.406 103.9 435.106 109.6 438.006 114.9Z" fill="#A46E3A"/>
<path d="M451.406 120.2C447.206 121.7 441.906 118.9 439.606 113.8C437.306 108.7 438.706 103.4 442.906 101.8C447.106 100.2 452.406 103.1 454.706 108.2C457.006 113.3 455.606 118.6 451.406 120.2Z" fill="#FFE926"/>
<path d="M450.906 119.203C447.206 120.603 442.506 118.003 440.406 113.503C438.306 109.003 439.606 104.303 443.306 102.903C447.006 101.503 451.706 104.103 453.806 108.603C455.906 113.003 454.606 117.803 450.906 119.203Z" fill="#FFE926"/>
<path d="M129.006 128.697C132.206 134.497 137.806 136.197 143.006 133.697L133.306 115.797C128.406 117.697 126.106 123.397 129.006 128.697Z" fill="#A46E3A"/>
<path d="M142.406 133.997C138.206 135.497 132.906 132.697 130.606 127.597C128.206 122.497 129.706 117.197 133.906 115.597C138.106 113.997 143.406 116.897 145.706 121.997C148.006 127.097 146.606 132.397 142.406 133.997Z" fill="#FFE926"/>
<path d="M141.906 133C138.206 134.4 133.506 131.8 131.406 127.3C129.306 122.8 130.606 118.1 134.306 116.7C138.006 115.3 142.706 117.9 144.806 122.4C146.906 126.8 145.606 131.6 141.906 133Z" fill="#FFE926"/>
<path d="M356.006 13.6969C359.206 19.4969 364.806 21.1969 370.006 18.6969L360.306 0.796875C355.406 2.69687 353.106 8.39687 356.006 13.6969Z" fill="#A46E3A"/>
<path d="M369.406 18.9991C365.206 20.4991 359.906 17.6991 357.606 12.5991C355.206 7.49907 356.706 2.19907 360.906 0.59907C365.106 -0.90093 370.406 1.89907 372.706 6.99907C375.006 12.0991 373.606 17.3991 369.406 18.9991Z" fill="#FFE926"/>
<path d="M368.906 17.9999C365.206 19.3999 360.506 16.7999 358.406 12.2999C356.306 7.79992 357.606 3.09992 361.306 1.69992C365.006 0.299923 369.706 2.89992 371.806 7.39992C373.906 11.7999 372.606 16.5999 368.906 17.9999Z" fill="#FFE926"/>
<defs>
<linearGradient id="paint0_linear_292_1697" x1="194.001" y1="26.0023" x2="286.009" y2="164.954" gradientUnits="userSpaceOnUse">
<stop offset="0.1888" stop-color="#909090"/>
<stop offset="1" stop-color="#FBC920"/>
</linearGradient>
<linearGradient id="paint1_linear_292_1697" x1="412.238" y1="61.9054" x2="302.239" y2="199.693" gradientUnits="userSpaceOnUse">
<stop offset="0.19" stop-color="#666666"/>
<stop offset="1" stop-color="#FBC920"/>
</linearGradient>
<linearGradient id="paint2_linear_292_1697" x1="260.868" y1="188.5" x2="260.868" y2="202.5" gradientUnits="userSpaceOnUse">
<stop offset="0.1554" stop-color="#FBC920"/>
<stop offset="0.6064" stop-color="#927513"/>
<stop offset="1" stop-color="#3A300C"/>
</linearGradient>
</defs>
</svg>
