<svg width="1156" height="378" viewBox="0 0 1156 378" fill="none" xmlns="http://www.w3.org/2000/svg">
<g filter="url(#filter0_d_244_2281)">
<path d="M356.235 152V133.74C356.235 127.433 357.702 121.567 360.635 116.14C363.715 110.713 367.602 105.653 372.295 100.96C377.135 96.12 382.269 91.5733 387.695 87.32C393.122 83.0667 398.182 78.96 402.875 75C407.715 71.04 411.602 67.08 414.535 63.12C417.615 59.16 419.155 55.2 419.155 51.24C419.155 49.48 418.935 47.3533 418.495 44.86C418.055 42.3667 417.102 38.92 415.635 34.52L432.575 52.12C426.855 51.68 421.062 51.46 415.195 51.46C407.129 51.46 399.062 51.9 390.995 52.78C383.075 53.66 375.155 54.9067 367.235 56.52L359.975 21.98C369.509 19.9267 378.455 18.3867 386.815 17.36C395.322 16.3333 403.169 15.82 410.355 15.82C427.662 15.82 440.935 18.7533 450.175 24.62C459.415 30.4867 464.035 39.14 464.035 50.58C464.035 56.8867 462.495 62.7533 459.415 68.18C456.482 73.6067 452.595 78.74 447.755 83.58C442.915 88.2733 437.782 92.82 432.355 97.22C427.075 101.473 422.015 105.653 417.175 109.76C412.335 113.72 408.375 117.68 405.295 121.64C402.362 125.6 400.895 129.633 400.895 133.74V152H356.235ZM370.535 152V122.3L457.655 118.34V152H370.535ZM426.635 152L449.735 98.54H469.315L468.435 152H426.635ZM359.975 77.64V21.98L400.895 21.32L379.335 77.64H359.975ZM540.209 154.86C527.155 154.86 516.009 152.22 506.769 146.94C497.529 141.513 490.489 133.74 485.649 123.62C480.955 113.353 478.609 101.033 478.609 86.66C478.609 71.7 481.175 58.94 486.309 48.38C491.442 37.6733 498.849 29.46 508.529 23.74C518.209 18.02 529.795 15.16 543.289 15.16C556.635 15.16 567.929 17.8 577.169 23.08C586.555 28.2133 593.669 35.7667 598.509 45.74C603.349 55.5667 605.769 67.52 605.769 81.6C605.769 97.1467 603.202 110.42 598.069 121.42C592.935 132.273 585.455 140.56 575.629 146.28C565.949 152 554.142 154.86 540.209 154.86ZM542.629 127.8C546.735 127.8 549.962 126.333 552.309 123.4C554.655 120.32 556.342 115.627 557.369 109.32C558.542 103.013 559.129 94.8733 559.129 84.9C559.129 75.22 558.469 67.3733 557.149 61.36C555.975 55.2 553.995 50.7267 551.209 47.94C548.569 45.0067 544.975 43.54 540.429 43.54C538.962 43.54 537.349 43.76 535.589 44.2C533.829 44.64 532.069 45.4467 530.309 46.62C528.842 52.78 527.669 59.0867 526.789 65.54C526.055 71.8467 525.689 78.5933 525.689 85.78C525.689 95.46 526.202 103.453 527.229 109.76C528.402 115.92 530.235 120.467 532.729 123.4C535.222 126.333 538.522 127.8 542.629 127.8ZM651.391 99.42C638.778 99.42 629.024 95.9 622.131 88.86C615.238 81.82 611.791 71.7733 611.791 58.72C611.791 49.7733 613.404 42.1467 616.631 35.84C620.004 29.3867 624.771 24.4733 630.931 21.1C637.238 17.7267 644.718 16.04 653.371 16.04C662.024 16.04 669.284 17.58 675.151 20.66C681.164 23.74 685.711 28.2133 688.791 34.08C691.871 39.8 693.411 46.9133 693.411 55.42C693.411 64.8067 691.724 72.8 688.351 79.4C685.124 86 680.358 90.9867 674.051 94.36C667.891 97.7333 660.338 99.42 651.391 99.42ZM652.931 81.6C656.451 81.6 658.871 79.7667 660.191 76.1C661.511 72.4333 662.171 66.3467 662.171 57.84C662.171 49.6267 661.364 43.76 659.751 40.24C658.284 36.5733 655.498 34.74 651.391 34.74C649.484 34.74 647.651 35.18 645.891 36.06C645.011 39.7267 644.351 43.3933 643.911 47.06C643.618 50.58 643.471 54.2467 643.471 58.06C643.471 66.42 644.131 72.4333 645.451 76.1C646.771 79.7667 649.264 81.6 652.931 81.6ZM655.791 169.82L638.411 156.18L757.211 0.419998L774.811 13.84L655.791 169.82ZM759.191 153.76C746.578 153.76 736.824 150.24 729.931 143.2C723.038 136.16 719.591 126.113 719.591 113.06C719.591 104.113 721.204 96.4867 724.431 90.18C727.804 83.7267 732.571 78.8133 738.731 75.44C745.038 72.0667 752.518 70.38 761.171 70.38C769.824 70.38 777.084 71.92 782.951 75C788.964 78.08 793.511 82.5533 796.591 88.42C799.671 94.14 801.211 101.253 801.211 109.76C801.211 119.147 799.524 127.14 796.151 133.74C792.924 140.34 788.158 145.327 781.851 148.7C775.691 152.073 768.138 153.76 759.191 153.76ZM760.731 135.94C764.251 135.94 766.671 134.107 767.991 130.44C769.311 126.773 769.971 120.687 769.971 112.18C769.971 103.967 769.164 98.1 767.551 94.58C766.084 90.9133 763.298 89.08 759.191 89.08C757.284 89.08 755.451 89.52 753.691 90.4C752.811 94.0667 752.151 97.7333 751.711 101.4C751.418 104.92 751.271 108.587 751.271 112.4C751.271 120.76 751.931 126.773 753.251 130.44C754.571 134.107 757.064 135.94 760.731 135.94ZM92.5052 226.8C106.585 226.8 118.538 229.513 128.365 234.94C138.192 240.22 145.598 248.067 150.585 258.48C155.718 268.747 158.285 281.36 158.285 296.32C158.285 312.307 155.352 325.947 149.485 337.24C143.619 348.533 135.112 357.187 123.965 363.2C112.818 369.067 99.3252 372 83.4852 372H0.545156V355.94C3.03849 354.62 5.60516 353.373 8.24516 352.2C11.0318 350.88 14.1852 349.633 17.7052 348.46L20.5652 251.22L0.545156 244.4V226.8H92.5052ZM93.6052 343.62C98.7385 340.54 102.405 335.627 104.605 328.88C106.952 322.133 108.125 312.747 108.125 300.72C108.125 289.28 107.245 280.48 105.485 274.32C103.872 268.013 101.745 263.54 99.1052 260.9C96.4652 258.26 93.7518 256.647 90.9652 256.06C88.3252 255.473 85.9785 255.18 83.9252 255.18H46.5252L67.2052 234.5V364.3L46.5252 343.62H93.6052ZM161.033 372V355.94C163.82 354.327 166.607 352.933 169.393 351.76C172.18 350.587 175.04 349.487 177.973 348.46L180.833 251.22L161.033 244.4V226.8H244.193V242.86C241.7 244.327 238.987 245.72 236.053 247.04C233.267 248.213 230.407 249.387 227.473 250.56V349.34L244.193 354.18V372H161.033ZM307.65 375.08C298.996 375.08 290.05 374.347 280.81 372.88C271.716 371.56 262.99 369.507 254.63 366.72L276.63 335.92C283.816 338.267 291.076 340.1 298.41 341.42C305.89 342.593 313.37 343.18 320.85 343.18C325.396 343.18 329.87 342.96 334.27 342.52C338.67 342.08 343.143 341.347 347.69 340.32L330.75 345.38C330.163 345.673 330.236 345.453 330.97 344.72C331.703 343.84 332.51 342.74 333.39 341.42C334.27 340.1 334.71 338.707 334.71 337.24C334.71 334.453 332.803 331.887 328.99 329.54C325.176 327.193 320.263 324.847 314.25 322.5C308.236 320.153 301.856 317.513 295.11 314.58C288.51 311.647 282.203 308.2 276.19 304.24C270.176 300.133 265.263 295.22 261.45 289.5C257.636 283.78 255.73 277.033 255.73 269.26C255.73 259.873 258.663 251.807 264.53 245.06C270.543 238.313 278.903 233.107 289.61 229.44C300.463 225.773 313.223 223.94 327.89 223.94C336.25 223.94 344.536 224.527 352.75 225.7C360.963 226.727 368.81 228.34 376.29 230.54L361.77 263.76C354.29 261.12 346.296 259.14 337.79 257.82C329.43 256.353 320.483 255.62 310.95 255.62C307.43 255.62 303.836 255.767 300.17 256.06C296.65 256.207 292.983 256.427 289.17 256.72L309.63 251.66C307.283 253.567 305.523 255.253 304.35 256.72C303.323 258.187 302.81 259.58 302.81 260.9C302.81 263.54 304.716 266.033 308.53 268.38C312.343 270.727 317.183 273.073 323.05 275.42C329.063 277.767 335.443 280.48 342.19 283.56C348.936 286.493 355.243 290.013 361.11 294.12C367.123 298.08 372.036 302.847 375.85 308.42C379.663 313.993 381.57 320.593 381.57 328.22C381.57 337.753 378.416 346.04 372.11 353.08C365.803 360.12 357.076 365.547 345.93 369.36C334.93 373.173 322.17 375.08 307.65 375.08ZM299.29 367.6L254.63 366.72L255.51 318.76H276.85L299.29 367.6ZM353.85 278.5L331.85 229.66L376.29 230.54L375.41 278.5H353.85ZM463.563 374.86C440.536 374.86 422.569 368.407 409.663 355.5C396.756 342.593 390.303 324.407 390.303 300.94C390.303 284.66 393.383 270.8 399.543 259.36C405.849 247.773 414.869 238.973 426.603 232.96C438.483 226.8 452.636 223.72 469.063 223.72C475.809 223.72 483.143 224.233 491.063 225.26C499.129 226.287 507.416 227.9 515.923 230.1L504.043 264.2C496.269 261.707 488.423 259.8 480.503 258.48C472.583 257.16 464.589 256.5 456.523 256.5C452.856 256.5 449.189 256.647 445.523 256.94C441.856 257.233 438.189 257.673 434.523 258.26L453.663 244.4C449.263 253.2 446.036 262 443.983 270.8C441.929 279.453 440.903 289.207 440.903 300.06C440.903 314.58 442.883 325.433 446.843 332.62C450.949 339.66 457.696 343.18 467.083 343.18C471.629 343.18 476.689 342.373 482.263 340.76C487.983 339.147 494.363 336.8 501.403 333.72L515.923 366.72C496.123 372.147 478.669 374.86 463.563 374.86ZM471.483 367.6L495.243 315.9H515.923V366.72L471.483 367.6ZM495.243 280.7L471.703 229.44L515.923 230.1V280.7H495.243ZM593.067 375.08C577.96 375.08 565.054 372.22 554.347 366.5C543.787 360.78 535.72 352.42 530.147 341.42C524.574 330.273 521.787 316.853 521.787 301.16C521.787 285.027 524.94 271.24 531.247 259.8C537.7 248.213 546.574 239.34 557.867 233.18C569.16 226.873 582.067 223.72 596.587 223.72C611.987 223.72 625.114 226.58 635.967 232.3C646.82 237.873 655.107 246.013 660.827 256.72C666.547 267.427 669.407 280.407 669.407 295.66C669.407 312.527 666.4 326.9 660.387 338.78C654.374 350.513 645.647 359.533 634.207 365.84C622.914 372 609.2 375.08 593.067 375.08ZM596.147 346.26C601.427 346.26 605.754 344.647 609.127 341.42C612.5 338.047 614.92 332.913 616.387 326.02C618 319.127 618.807 310.253 618.807 299.4C618.807 288.84 617.927 280.26 616.167 273.66C614.554 266.913 611.914 262 608.247 258.92C604.58 255.84 599.74 254.3 593.727 254.3C589.18 254.3 584.487 255.327 579.647 257.38C574.954 259.287 570.26 262.44 565.567 266.84L583.607 245.06C576.127 261.927 572.387 280.333 572.387 300.28C572.387 310.84 573.194 319.567 574.807 326.46C576.42 333.207 578.987 338.193 582.507 341.42C586.027 344.647 590.574 346.26 596.147 346.26ZM751.95 375.08C731.563 375.08 715.65 370.46 704.21 361.22C692.917 351.98 687.27 339.513 687.27 323.82L689.47 251.22L669.67 244.4V226.8H751.07V242.86C748.87 244.327 746.67 245.647 744.47 246.82C742.27 247.993 739.483 249.24 736.11 250.56V326.68C736.11 331.813 738.237 336.067 742.49 339.44C746.743 342.667 752.317 344.28 759.21 344.28C763.317 344.28 767.277 343.693 771.09 342.52C774.903 341.347 778.057 339.66 780.55 337.46L782.75 251.22L766.25 244.4V226.8H833.13V242.86C830.05 244.327 827.043 245.72 824.11 247.04C821.323 248.36 818.61 249.533 815.97 250.56V321.18C815.97 338.487 810.323 351.833 799.03 361.22C787.737 370.46 772.043 375.08 751.95 375.08ZM936.045 226.8H1004.25V242.86C1001.75 244.327 999.185 245.72 996.545 247.04C994.052 248.213 991.119 249.387 987.745 250.56L987.525 372H935.825L870.925 261.12L881.265 258.04V349.34L903.485 354.18V372H833.085V355.94C835.579 354.327 838.072 352.933 840.565 351.76C843.059 350.587 845.772 349.487 848.705 348.46L851.565 251.22L832.425 244.4V226.8H905.025L967.505 333.5L957.825 336.58L955.405 249.46L936.045 244.4V226.8ZM1153.86 226.8V287.08H1134.5L1122.4 254.74H1102.82V348.46L1128.56 354.18V372H1027.36V355.94C1031.61 354.327 1035.79 352.787 1039.9 351.32C1044.15 349.707 1048.63 348.387 1053.32 347.36L1056.18 254.74H1036.16L1024.06 287.08H1004.7V226.8H1153.86Z" fill="#DFDFDF"/>
</g>
<defs>
<filter id="filter0_d_244_2281" x="0.544922" y="0.421875" width="1155.31" height="376.656" filterUnits="userSpaceOnUse" color-interpolation-filters="sRGB">
<feFlood flood-opacity="0" result="BackgroundImageFix"/>
<feColorMatrix in="SourceAlpha" type="matrix" values="0 0 0 0 0 0 0 0 0 0 0 0 0 0 0 0 0 0 127 0" result="hardAlpha"/>
<feOffset dx="1" dy="1"/>
<feGaussianBlur stdDeviation="0.5"/>
<feComposite in2="hardAlpha" operator="out"/>
<feColorMatrix type="matrix" values="0 0 0 0 0 0 0 0 0 0 0 0 0 0 0 0 0 0 0.15 0"/>
<feBlend mode="normal" in2="BackgroundImageFix" result="effect1_dropShadow_244_2281"/>
<feBlend mode="normal" in="SourceGraphic" in2="effect1_dropShadow_244_2281" result="shape"/>
</filter>
</defs>
</svg>
