<svg width="1600" height="619" viewBox="0 0 1600 619" fill="none" xmlns="http://www.w3.org/2000/svg">
<path d="M373.213 432.402L352.581 420.222L353.297 348.406L332.666 336.227L332.171 385.778L331.677 435.329L372.974 456.348L373.213 432.402Z" fill="#FFE89F"/>
<path d="M393.367 492.453L422.636 475.957C430.366 471.614 435.163 463.464 435.251 454.625L436.399 339.586C436.487 330.726 431.832 322.503 424.212 318.007L366.343 283.853C358.723 279.357 349.251 279.262 341.542 283.605L312.252 300.102L394.8 348.821L393.367 492.453Z" fill="#FFF4CF"/>
<path d="M394.8 348.821L394.322 396.712L393.367 492.474L323.706 451.354C315.734 446.647 310.876 438.048 310.968 428.814L312.252 300.102L394.8 348.821ZM331.777 425.328C331.736 429.457 333.9 433.277 337.452 435.387L364.176 451.156C368.1 453.457 373.03 450.684 373.076 446.139L373.452 408.457L373.863 367.247C373.904 363.118 371.74 359.299 368.188 357.188L342.124 341.8C337.911 339.309 332.605 342.307 332.556 347.204L331.777 425.328Z" fill="#FFEEB8"/>
<path d="M1141.95 121.888L1145.63 92.7128L1171.13 82.2098C1189.24 74.7459 1210.05 77.2987 1225.65 89.1389C1252.93 109.853 1271.53 135.454 1271.53 172.044V262.9L1222.88 290.957V180.505C1222.88 144.693 1203.75 111.604 1172.72 93.7096L1141.95 121.888Z" fill="#FFF7DC"/>
<path d="M1174.25 94.5865C1204.36 111.946 1222.88 144.038 1222.88 178.732V290.958L1174.23 264.847V176.179C1174.23 160.4 1165.81 145.813 1152.11 137.911L1125.58 122.619C1125.63 97.7228 1152.64 82.1385 1174.25 94.5865Z" fill="#FFF1C2"/>
<path d="M700.17 220.114L670.053 359.494L599.517 295.616L629.634 156.235L652.273 176.721L627.505 286.66L653.652 310.728L677.644 199.694L700.17 220.114Z" fill="#FFF1C2"/>
<path d="M745.46 205.58L715.046 345.065L670.054 359.493L700.171 220.112L677.645 199.693L723.516 185.687L745.46 205.58Z" fill="#FFF7DC"/>
<path d="M629.638 156.234L674.947 141.706L693.544 158.537L683.925 197.782L677.648 199.692L653.656 310.726L627.509 286.658L652.277 176.72L629.638 156.234Z" fill="#FFF7DC"/>
<path d="M1421.09 369.358L1420.14 373.212L1408.98 418.302L1372.63 397.309L1324.14 425.284L1396.86 467.246L1372.63 565.135L1421.09 537.184L1469.58 341.383L1421.09 369.358Z" fill="#FFF4D2"/>
<path d="M1324.14 425.28L1288.48 404.699C1282.78 401.402 1282.78 393.184 1288.48 389.911L1324.14 369.33L1372.6 397.305L1324.14 425.28Z" fill="#FEEFBE"/>
<path d="M1372.63 565.135L1334.3 543.027C1328.34 539.584 1325.47 532.53 1327.37 525.912L1351.4 441.599L1396.88 467.247L1372.63 565.135Z" fill="#FEEFBE"/>
<path d="M1421.09 369.357L1372.62 341.382L1421.09 313.407L1469.57 341.382L1421.09 369.357Z" fill="#FEEFBE"/>
<path d="M1372.63 341.383L1362.58 391.515L1408.99 418.302L1421.09 369.358L1372.63 341.383Z" fill="#FEEFBE"/>
<path d="M940.464 483.571V438.607L862.514 483.571V528.535L901.479 506.053L862.514 573.479V618.443L940.464 573.479V528.535L901.479 550.997L940.464 483.571Z" fill="#FFF2C7"/>
<path d="M940.467 438.605L901.755 416.279L823.531 461.087V506.051L862.516 528.533V483.569L940.467 438.605Z" fill="#FFECB0"/>
<path d="M862.516 618.441L823.531 595.959V551.015L862.516 573.477V618.441Z" fill="#FFECB0"/>
<path d="M823.531 551.018L843.014 517.295L862.516 528.536L901.482 506.054L862.516 573.48" fill="#FFECB0"/>
<path d="M174.687 37.2054L120.791 17.3901L76.6452 54.1138L115.247 277.943C115.247 277.943 120.917 324.439 196.551 332.661" fill="#FFF1C2"/>
<path d="M228.559 57.0273L190.809 43.1301L177.458 53.2777L184.434 93.7222L228.559 57.0273Z" fill="#FFF1C2"/>
<path d="M257.808 226.617L221.948 213.428L207.189 225.66L213.686 263.336L257.808 226.617Z" fill="#FFF1C2"/>
<path d="M130.542 73.9278L169.54 300.059C169.54 300.059 179.287 356.574 223.412 319.879C267.538 283.184 267.558 283.155 267.558 283.155L257.807 226.616L213.662 263.34L194.16 150.262L238.281 113.542L228.531 57.0034L184.385 93.7271L174.634 37.188L130.542 73.9278Z" fill="#FFF7DC"/>
<path d="M31.1367 528.534V564.421L62.2168 546.47V510.583L31.1367 528.534Z" fill="#FFF1C6"/>
<path d="M62.2168 510.582L31.1367 528.533V564.42L0.0410156 546.469V510.582L31.1367 492.631L62.2168 510.582Z" fill="#FFEBA9"/>
<path d="M996.399 29.3466L1021.85 22.527L1003.21 3.89636L977.762 10.7159L996.399 29.3466Z" fill="#FFF7DC"/>
<path d="M977.763 10.7165L996.4 29.3472L1021.85 22.5277L1015.03 47.9919L989.579 54.8114L970.939 36.1697L977.763 10.7165Z" fill="#FFF1C2"/>
<path d="M1556.93 204.53L1531.35 224.391L1526.95 192.302L1552.53 172.441L1556.93 204.53Z" fill="#FFF7DC"/>
<path d="M1552.53 172.442L1556.93 204.531L1531.35 224.392L1561.36 236.624L1586.94 216.763L1582.53 184.662L1552.53 172.442Z" fill="#FFF1C2"/>
</svg>
