<svg width="36" height="32" viewBox="0 0 36 32" fill="none" xmlns="http://www.w3.org/2000/svg">
<path d="M33.5278 14.1972V28.0088C33.5278 28.9643 33.1876 29.7823 32.5072 30.4627C31.8267 31.1432 31.0087 31.4834 30.0532 31.4834H5.73096C4.77544 31.4834 3.95746 31.1432 3.27702 30.4627C2.59657 29.7823 2.25635 28.9643 2.25635 28.0088V14.1972C1.59038 13.5892 1.07643 12.8074 0.714494 11.8519C0.352555 10.8963 0.345316 9.85396 0.692777 8.72471L2.51695 2.81787C2.74859 2.06504 3.1612 1.4425 3.75478 0.950269C4.34836 0.458032 5.03604 0.211914 5.81783 0.211914H29.9664C30.7481 0.211914 31.4286 0.450793 32.0077 0.928552C32.5868 1.40631 33.0066 2.03608 33.2672 2.81787L35.0914 8.72471C35.4389 9.85396 35.4316 10.8819 35.0697 11.8084C34.7078 12.735 34.1938 13.5312 33.5278 14.1972ZM21.7142 12.373C22.496 12.373 23.0895 12.1052 23.4949 11.5695C23.9003 11.0339 24.0595 10.4331 23.9727 9.76709L23.0171 3.68652H19.6294V10.1146C19.6294 10.7226 19.8321 11.251 20.2375 11.6998C20.6428 12.1486 21.1351 12.373 21.7142 12.373ZM13.8963 12.373C14.5623 12.373 15.1052 12.1486 15.525 11.6998C15.9449 11.251 16.1548 10.7226 16.1548 10.1146V3.68652H12.767L11.8115 9.76709C11.6957 10.462 11.8477 11.0701 12.2676 11.5913C12.6874 12.1125 13.2303 12.373 13.8963 12.373ZM6.16529 12.373C6.68648 12.373 7.14252 12.1848 7.53341 11.8084C7.92431 11.432 8.16319 10.9542 8.25005 10.3751L9.20557 3.68652H5.81783L4.08052 9.50649C3.90679 10.0856 4.0009 10.7081 4.36283 11.3741C4.72477 12.0401 5.32559 12.373 6.16529 12.373ZM29.6189 12.373C30.4586 12.373 31.0667 12.0401 31.4431 11.3741C31.8195 10.7081 31.9064 10.0856 31.7037 9.50649L29.8795 3.68652H26.5786L27.5341 10.3751C27.621 10.9542 27.8599 11.432 28.2508 11.8084C28.6417 12.1848 29.0977 12.373 29.6189 12.373ZM5.73096 28.0088H30.0532V15.7608C29.9085 15.8187 29.8143 15.8477 29.7709 15.8477H29.6189C28.8371 15.8477 28.1494 15.7174 27.5559 15.4568C26.9623 15.1962 26.3759 14.7763 25.7968 14.1972C25.2756 14.7184 24.6821 15.1238 24.0161 15.4133C23.3501 15.7029 22.6407 15.8477 21.8879 15.8477C21.1061 15.8477 20.375 15.7029 19.6945 15.4133C19.0141 15.1238 18.4133 14.7184 17.8921 14.1972C17.3999 14.7184 16.828 15.1238 16.1765 15.4133C15.525 15.7029 14.8229 15.8477 14.07 15.8477C13.2303 15.8477 12.4703 15.7029 11.7898 15.4133C11.1094 15.1238 10.5085 14.7184 9.98736 14.1972C9.3793 14.8053 8.77848 15.2324 8.1849 15.4785C7.59132 15.7246 6.91812 15.8477 6.16529 15.8477H5.96984C5.89745 15.8477 5.81783 15.8187 5.73096 15.7608V28.0088Z" fill="#F88B23"/>
</svg>
