<svg width="40" height="40" viewBox="0 0 40 40" fill="none" xmlns="http://www.w3.org/2000/svg">
<g clip-path="url(#clip0_263_3086)">
<path fill-rule="evenodd" clip-rule="evenodd" d="M29.5112 8.02344H10.3589C7.64816 8.02344 5.44043 10.2405 5.44043 12.9419V24.8469C5.44043 27.5577 7.65748 29.7654 10.3589 29.7654H17.1218L18.2863 31.7775L19.432 33.7617C19.637 34.125 20.1586 34.125 20.3729 33.7617L21.5187 31.7775L22.6831 29.7654H29.5205C32.2313 29.7654 34.439 27.5484 34.439 24.8469V12.9512C34.439 10.2405 32.222 8.02344 29.5112 8.02344ZM21.2764 16.7426C19.7953 16.7426 18.5936 17.9256 18.5936 19.3881C18.5936 20.8506 19.7953 22.0337 21.2764 22.0337C22.7575 22.0337 23.9592 20.8506 23.9592 19.3881C23.9592 17.9256 22.7668 16.7426 21.2764 16.7426ZM21.2764 20.655C20.5684 20.655 19.9909 20.0868 19.9909 19.3881C19.9909 18.6895 20.5684 18.1213 21.2764 18.1213C21.9844 18.1213 22.5619 18.6895 22.5619 19.3881C22.5619 20.0868 21.9937 20.655 21.2764 20.655ZM11.2531 17.3481C11.6723 16.9662 12.2126 16.7426 12.7902 16.7426C14.1316 16.7426 15.2028 17.9349 15.2028 19.3975C15.2028 20.86 14.1223 22.043 12.7902 22.043C12.2033 22.043 11.6723 21.8101 11.2531 21.4375V21.9126H9.7627V15.159H11.2531V17.3481ZM11.2625 19.9098C11.4674 20.3849 11.9425 20.7109 12.4921 20.7109C13.2373 20.7109 13.8335 20.1241 13.8335 19.3881C13.8335 18.6522 13.2373 18.0654 12.4921 18.0654C11.9425 18.0654 11.4674 18.3914 11.2625 18.8665C11.1879 19.0248 11.1507 19.2018 11.1507 19.3881C11.1507 19.5745 11.1973 19.7514 11.2625 19.9098ZM28.6076 16.8544V17.2736C28.1884 16.9475 27.6668 16.7519 27.1078 16.7519C25.7385 16.7519 24.63 17.8977 24.63 19.3043C24.63 20.7109 25.7385 21.8567 27.1078 21.8567C27.6761 21.8567 28.1977 21.6611 28.6076 21.3351V22.043C28.6076 22.043 28.4586 22.7417 27.4152 22.7417V24.0551C27.4152 24.0551 28.5424 24.1856 29.5485 23.1795C29.5485 23.1795 30.0142 22.6858 30.1167 22.0337V16.8544H28.6076ZM27.3873 20.5992C26.6328 20.5992 26.0273 20.0123 26.0273 19.295C26.0273 18.5777 26.6421 17.9909 27.3873 17.9909C27.9183 17.9909 28.384 18.289 28.6076 18.7175C28.7008 18.8945 28.7473 19.0901 28.7473 19.295C28.7473 19.4999 28.6914 19.7049 28.6076 19.8726C28.384 20.3104 27.9183 20.5992 27.3873 20.5992ZM15.3706 16.3793V15.0286C15.3706 15.0286 16.358 14.8982 17.2336 15.9322C17.2336 15.9322 17.6342 16.4352 17.7273 17.1059V17.1432V21.9126H16.1903V17.1432C16.0599 16.4724 15.3706 16.3793 15.3706 16.3793Z" fill="white"/>
<path fill-rule="evenodd" clip-rule="evenodd" d="M33.9469 2.0177H6.0531C3.8244 2.0177 2.0177 3.8244 2.0177 6.05309V33.9469C2.0177 36.1756 3.8244 37.9823 6.05309 37.9823H33.9469C36.1756 37.9823 37.9823 36.1756 37.9823 33.9469V6.0531C37.9823 3.82441 36.1756 2.0177 33.9469 2.0177ZM6.0531 0H33.9469C37.2899 0 40 2.71006 40 6.0531V33.9469C40 37.2899 37.2899 40 33.9469 40H6.05309C2.71006 40 0 37.2899 0 33.9469V6.05309C0 2.71006 2.71006 0 6.0531 0Z" fill="white"/>
</g>
<defs>
<clipPath id="clip0_263_3086">
<rect width="40" height="40" fill="white"/>
</clipPath>
</defs>
</svg>
