<svg width="101" height="83" viewBox="0 0 101 83" fill="none" xmlns="http://www.w3.org/2000/svg">
<ellipse cx="50.5" cy="65.9936" rx="50.5" ry="16.642" fill="#E9E9E9"/>
<path d="M67.1438 78.0469C63.7004 73.5036 61.979 70.2711 61.979 68.3486C61.979 66.9636 62.5232 65.6353 63.4918 64.656C64.4604 63.6766 65.774 63.1264 67.1438 63.1264C68.5136 63.1264 69.8273 63.6766 70.7959 64.656C71.7645 65.6353 72.3086 66.9636 72.3086 68.3486C72.3086 70.2711 70.5872 73.5036 67.1438 78.0469Z" fill="#FBC920"/>
<path d="M35.0071 78.0469C31.5637 73.5036 29.8423 70.2711 29.8423 68.3486C29.8423 66.9636 30.3865 65.6353 31.3551 64.656C32.3236 63.6766 33.6373 63.1264 35.0071 63.1264C36.3769 63.1264 37.6906 63.6766 38.6591 64.656C39.6277 65.6353 40.1719 66.9636 40.1719 68.3486C40.1719 70.2711 38.4505 73.5036 35.0071 78.0469Z" fill="#FBC920"/>
<path d="M79.5417 66.5625C74.5679 59.9223 72.0815 55.1979 72.0815 52.3881C72.0815 50.3638 72.8675 48.4225 74.2665 46.9912C75.6656 45.5598 77.5632 44.7557 79.5417 44.7557C81.5203 44.7557 83.4178 45.5598 84.8169 46.9912C86.216 48.4225 87.002 50.3638 87.002 52.3881C87.002 55.1979 84.5156 59.9223 79.5417 66.5625Z" fill="#FBC920"/>
<path d="M21.5398 66.5703C16.5659 59.9301 14.0795 55.2057 14.0795 52.3959C14.0795 50.3716 14.8655 48.4303 16.2646 46.999C17.6637 45.5676 19.5612 44.7635 21.5398 44.7635C23.5183 44.7635 25.4159 45.5676 26.815 46.999C28.214 48.4303 29 50.3716 29 52.3959C29 55.2057 26.5136 59.9301 21.5398 66.5703Z" fill="#FBC920"/>
<path d="M50.1579 14.558C54.1835 14.558 57.4469 11.2991 57.4469 7.27902C57.4469 3.25893 54.1835 0 50.1579 0C46.1324 0 42.869 3.25893 42.869 7.27902C42.869 11.2991 46.1324 14.558 50.1579 14.558Z" fill="#F88B23"/>
<path d="M56.4056 16.6378H43.9103C41.703 16.6443 39.5879 17.5228 38.0271 19.0815C36.4663 20.6402 35.5866 22.7523 35.5801 24.9566V38.9324C35.5801 40.3427 36.6773 41.5424 38.0882 41.5931C38.4379 41.6059 38.7866 41.5481 39.1133 41.4232C39.4401 41.2984 39.7384 41.1091 39.9902 40.8665C40.2421 40.624 40.4424 40.3332 40.5792 40.0116C40.716 39.69 40.7865 39.3442 40.7865 38.9948V26.0316C40.7831 25.7633 40.8815 25.5037 41.0618 25.3048C41.2422 25.106 41.4911 24.9825 41.7587 24.9592C41.9012 24.9498 42.044 24.9697 42.1784 25.0177C42.3128 25.0657 42.4359 25.1408 42.54 25.2383C42.6442 25.3359 42.7271 25.4537 42.7837 25.5846C42.8403 25.7155 42.8693 25.8566 42.869 25.9991V63.5615C42.869 64.3543 43.1844 65.1148 43.7458 65.6754C44.3072 66.2361 45.0687 66.551 45.8627 66.551C46.6566 66.551 47.4181 66.2361 47.9795 65.6754C48.5409 65.1148 48.8563 64.3543 48.8563 63.5615V45.0181C48.8517 44.6825 48.9743 44.3575 49.1995 44.1082C49.4247 43.859 49.7359 43.7039 50.0707 43.6741C50.2488 43.6622 50.4275 43.687 50.5956 43.7469C50.7638 43.8069 50.9177 43.9007 51.048 44.0226C51.1783 44.1445 51.282 44.2919 51.3528 44.4556C51.4236 44.6192 51.4599 44.7957 51.4595 44.9739V63.5615C51.4595 64.3543 51.7749 65.1148 52.3363 65.6754C52.8978 66.2361 53.6592 66.551 54.4532 66.551C55.2472 66.551 56.0086 66.2361 56.57 65.6754C57.1314 65.1148 57.4469 64.3543 57.4469 63.5615V26.0316C57.4435 25.7633 57.5419 25.5037 57.7222 25.3048C57.9025 25.106 58.1515 24.9825 58.4191 24.9592C58.5616 24.9498 58.7044 24.9697 58.8388 25.0177C58.9732 25.0657 59.0963 25.1408 59.2004 25.2383C59.3046 25.3359 59.3875 25.4537 59.4441 25.5846C59.5007 25.7155 59.5297 25.8566 59.5294 25.9991V38.935C59.5294 40.3453 60.6266 41.545 62.0376 41.5957C62.3874 41.6085 62.7363 41.5506 63.0633 41.4256C63.3902 41.3006 63.6886 41.111 63.9405 40.8682C64.1924 40.6254 64.3927 40.3343 64.5293 40.0124C64.666 39.6905 64.7362 39.3444 64.7358 38.9948V24.9566C64.7293 22.7523 63.8495 20.6402 62.2887 19.0815C60.7279 17.5228 58.6129 16.6443 56.4056 16.6378Z" fill="#F88B23"/>
<circle cx="21.5" cy="52.5078" r="3.5" fill="white"/>
<circle cx="79.5" cy="52.5078" r="3.5" fill="white"/>
<circle cx="67" cy="68.0078" r="2" fill="white"/>
<circle cx="35" cy="68.0078" r="2" fill="white"/>
</svg>
