<svg width="116" height="86" viewBox="0 0 116 86" fill="none" xmlns="http://www.w3.org/2000/svg">
<path d="M24.0827 12.9231C24.0827 12.9231 -4.72846 51.1536 32.9794 83.2228" stroke="#E9E9E9" stroke-width="4" stroke-miterlimit="10" stroke-linecap="round"/>
<path d="M30.382 2.61921C30.382 2.61921 32.2437 13.1591 23.0162 14.4845Z" fill="#99C28A"/>
<path d="M30.3814 2.6418C30.3814 2.6418 20.1272 5.62789 23.0199 14.5088Z" fill="#99C28A"/>
<path d="M14.21 11.7734C14.21 11.7734 22.9251 17.8485 17.2934 25.3499Z" fill="#99C28A"/>
<path d="M14.2257 11.7908C14.2257 11.7908 9.03393 21.1793 17.3159 25.3606Z" fill="#99C28A"/>
<path d="M29.7827 21.2339C29.7827 21.2339 23.6531 30.1051 16.2156 24.4644Z" fill="#99C28A"/>
<path d="M29.7643 21.2647C29.7643 21.2647 20.4389 16.0809 16.2009 24.504Z" fill="#99C28A"/>
<path d="M6.78125 30.4766C6.78125 30.4766 16.706 34.2908 12.9831 42.91Z" fill="#99C28A"/>
<path d="M6.80476 30.4865C6.80476 30.4865 3.94855 40.8403 13.0118 42.9197Z" fill="#99C28A"/>
<path d="M24.1639 35.9657C24.1639 35.9657 20.2855 46.0063 11.7333 42.3215Z" fill="#99C28A"/>
<path d="M24.1546 35.994C24.1546 35.994 13.8663 33.1964 11.722 42.357Z" fill="#99C28A"/>
<path d="M6.14694 52.9531C6.14694 52.9531 16.8274 52.7739 16.5339 62.1643Z" fill="#99C28A"/>
<path d="M6.17285 52.9531C6.17285 52.9531 7.3358 63.6246 16.5655 62.1575Z" fill="#99C28A"/>
<path d="M24.336 51.5859C24.336 51.5859 24.4272 62.3079 15.1238 62.0891Z" fill="#99C28A"/>
<path d="M24.338 51.6037C24.338 51.6037 13.7497 52.8578 15.1293 62.1146Z" fill="#99C28A"/>
<path d="M15.3356 75.4568C15.3356 75.4568 24.7307 70.2089 28.8736 78.6522Z" fill="#99C28A"/>
<path d="M15.3711 75.4141C15.3711 75.4141 21.4004 84.2942 28.9094 78.6028Z" fill="#99C28A"/>
<path d="M30.8131 65.6705C30.8131 65.6705 35.8913 75.0351 27.5698 79.2482Z" fill="#99C28A"/>
<path d="M30.8074 65.6827C30.8074 65.6827 22.0385 71.7881 27.5693 79.2615Z" fill="#99C28A"/>
<path d="M90.71 13.4011C90.71 13.4011 120.015 51.2603 82.7346 83.8137" stroke="#E9E9E9" stroke-width="4" stroke-miterlimit="10" stroke-linecap="round"/>
<path d="M84.2796 3.17993C84.2796 3.17993 82.556 13.7442 91.7991 14.9517Z" fill="#99C28A"/>
<path d="M84.2803 3.21094C84.2803 3.21094 94.5714 6.06611 91.7954 14.9845Z" fill="#99C28A"/>
<path d="M100.572 12.1457C100.572 12.1457 91.9369 18.3324 97.6655 25.7626Z" fill="#99C28A"/>
<path d="M100.558 12.1599C100.558 12.1599 105.871 21.4829 97.6444 25.7701Z" fill="#99C28A"/>
<path d="M85.123 21.7891C85.123 21.7891 91.367 30.586 98.7301 24.848Z" fill="#99C28A"/>
<path d="M85.1421 21.8193C85.1421 21.8193 94.3989 16.5143 98.7456 24.8872Z" fill="#99C28A"/>
<path d="M108.241 30.7174C108.241 30.7174 98.3676 34.6587 102.202 43.2318Z" fill="#99C28A"/>
<path d="M108.22 30.7261C108.22 30.7261 111.211 41.045 102.176 43.2402Z" fill="#99C28A"/>
<path d="M90.9385 36.4375C90.9385 36.4375 94.9469 46.4319 103.45 42.6369Z" fill="#99C28A"/>
<path d="M90.9499 36.4577C90.9499 36.4577 101.2 33.5283 103.464 42.6644Z" fill="#99C28A"/>
<path d="M109.168 53.1831C109.168 53.1831 98.4869 53.1399 98.9025 62.5297Z" fill="#99C28A"/>
<path d="M109.142 53.1825C109.142 53.1825 108.118 63.8722 98.8704 62.5223Z" fill="#99C28A"/>
<path d="M90.9607 52.04C90.9607 52.04 91.009 62.7647 100.308 62.4274Z" fill="#99C28A"/>
<path d="M90.96 52.0703C90.96 52.0703 101.563 53.1897 100.304 62.4655Z" fill="#99C28A"/>
<path d="M100.27 75.8132C100.27 75.8132 90.808 70.6822 86.7747 79.1834Z" fill="#99C28A"/>
<path d="M100.237 75.7814C100.237 75.7814 94.323 84.7438 86.7416 79.1448Z" fill="#99C28A"/>
<path d="M84.6675 66.2395C84.6675 66.2395 79.7103 75.669 88.0868 79.7759Z" fill="#99C28A"/>
<path d="M84.6748 66.2578C84.6748 66.2578 93.5232 72.2514 88.0888 79.7955Z" fill="#99C28A"/>
<path d="M63.4972 56.01C63.4972 58.3433 64.1272 59.9767 65.3871 60.91C66.6938 61.7967 68.6538 62.24 71.2672 62.24C71.2672 63.0333 71.1038 63.92 70.7772 64.9C70.4972 65.8333 70.1238 66.5333 69.6572 67H46.7671C46.2538 66.5333 45.8338 65.8333 45.5071 64.9C45.2271 63.92 45.0871 63.0333 45.0871 62.24C47.5605 62.24 49.4505 61.7733 50.7571 60.84C52.1105 59.9067 52.7871 58.2967 52.7871 56.01V30.67C52.7871 29.1767 51.7371 28.43 49.6371 28.43C48.9371 28.43 48.1671 28.5233 47.3271 28.71C46.5338 28.85 45.8338 29.06 45.2271 29.34L43.3371 25.84L54.2571 19.47C55.7038 18.63 56.8705 18.07 57.7571 17.79C58.6905 17.4633 59.5071 17.3 60.2071 17.3C61.3738 17.3 62.2138 17.6967 62.7272 18.49C63.2405 19.2367 63.4972 20.1 63.4972 21.08V56.01Z" fill="#F88B23"/>
</svg>
