<svg width="111" height="91" viewBox="0 0 111 91" fill="none" xmlns="http://www.w3.org/2000/svg">
<path d="M100.723 22.7471C81.8003 59.9931 23.3837 71.1869 -3.25083e-08 67.2563C57.5765 63.6783 88.0839 31.2575 92.3293 16.0769L83.494 9.85146L111 0.500003L108.76 29L100.723 22.7471Z" fill="#2338F8" fill-opacity="0.49"/>
<path d="M102.495 36.9844H70.0566V90.6994H102.495V36.9844Z" fill="white"/>
<path d="M102.495 36.4297H70.0566V90.7007H102.495V36.4297Z" fill="#E9E9E9"/>
<path d="M84.249 42.4453H75.1582V48.3205H84.249V42.4453Z" fill="white" stroke="#E9E9E9" stroke-width="2" stroke-miterlimit="10"/>
<path d="M97.3994 42.4453H88.3086V48.3205H97.3994V42.4453Z" fill="white"/>
<path d="M84.249 52.8125H75.1582V58.6877H84.249V52.8125Z" fill="white" stroke="#E9E9E9" stroke-width="2" stroke-miterlimit="10"/>
<path d="M97.3994 52.8125H88.3086V58.6877H97.3994V52.8125Z" fill="white"/>
<path d="M84.249 63.1953H75.1582V69.0705H84.249V63.1953Z" fill="white" stroke="#E9E9E9" stroke-width="2" stroke-miterlimit="10"/>
<path d="M97.3994 63.1953H88.3086V69.0705H97.3994V63.1953Z" fill="white"/>
<path d="M90.8232 78.0234H81.7324V90.7074H90.8232V78.0234Z" fill="white"/>
<path d="M58.067 36.9844H25.6289V90.6994H58.067V36.9844Z" fill="white"/>
<path d="M58.067 36.4297H25.6289V90.7007H58.067V36.4297Z" fill="#E9E9E9"/>
<path d="M39.8213 42.4453H30.7305V48.3205H39.8213V42.4453Z" fill="white"/>
<path d="M52.9717 42.4453H43.8809V48.3205H52.9717V42.4453Z" fill="white"/>
<path d="M39.8213 52.8125H30.7305V58.6877H39.8213V52.8125Z" fill="white"/>
<path d="M52.9717 52.8125H43.8809V58.6877H52.9717V52.8125Z" fill="white"/>
<path d="M39.8213 63.1953H30.7305V69.0705H39.8213V63.1953Z" fill="white"/>
<path d="M52.9717 63.1953H43.8809V69.0705H52.9717V63.1953Z" fill="white"/>
<path d="M46.3955 78.0234H37.3047V90.7074H46.3955V78.0234Z" fill="white"/>
<path d="M85.4451 19.8906H42.6797V90.7043H85.4451V19.8906Z" fill="#F88B23"/>
<path d="M61.3932 27.0938H49.4062V34.8402H61.3932V27.0938Z" fill="white"/>
<path d="M78.7252 27.0938H66.7383V34.8402H78.7252V27.0938Z" fill="white"/>
<path d="M61.3932 40.7656H49.4062V48.5121H61.3932V40.7656Z" fill="white"/>
<path d="M78.7252 40.7656H66.7383V48.5121H78.7252V40.7656Z" fill="white"/>
<path d="M61.3932 54.4375H49.4062V62.184H61.3932V54.4375Z" fill="white"/>
<path d="M78.7252 54.4375H66.7383V62.184H78.7252V54.4375Z" fill="white"/>
<path d="M70.0533 73.9922H58.0664V90.7133H70.0533V73.9922Z" fill="white"/>
</svg>
