<svg width="60" height="59" viewBox="0 0 60 59" fill="none" xmlns="http://www.w3.org/2000/svg">
<circle cx="30.0022" cy="29.3616" r="29.3616" fill="white"/>
<rect x="6.00391" y="5.36133" width="48" height="48" rx="24" fill="#FFDBBD"/>
<path d="M40.0039 33.3613C40.0039 33.6447 39.9081 33.8822 39.7164 34.0738C39.5247 34.2655 39.2872 34.3613 39.0039 34.3613L23.0039 34.3613C22.7206 34.3613 22.4831 34.2655 22.2914 34.0738C22.0997 33.8822 22.0039 33.6447 22.0039 33.3613L22.0039 31.3613L20.0039 31.3613L20.0039 27.3613L22.0039 27.3613L22.0039 25.3613C22.0039 25.078 22.0997 24.8405 22.2914 24.6488C22.4831 24.4572 22.7206 24.3613 23.0039 24.3613L39.0039 24.3613C39.2872 24.3613 39.5247 24.4572 39.7164 24.6488C39.9081 24.8405 40.0039 25.078 40.0039 25.3613L40.0039 33.3613ZM38.0039 32.3613L38.0039 26.3613L24.0039 26.3613L24.0039 32.3613L38.0039 32.3613Z" fill="white"/>
</svg>
