<svg width="60" height="59" viewBox="0 0 60 59" fill="none" xmlns="http://www.w3.org/2000/svg">
<circle cx="30.0022" cy="29.3616" r="29.3616" fill="white"/>
<rect x="6.00391" y="5.36133" width="48" height="48" rx="24" fill="#FFDBBD"/>
<path d="M29.0039 38.3613V30.3863C27.9372 30.3863 26.9122 30.1822 25.9289 29.7738C24.9456 29.3655 24.0789 28.7863 23.3289 28.0363C22.5789 27.2863 22.0039 26.4197 21.6039 25.4363C21.2039 24.453 21.0039 23.428 21.0039 22.3613V20.3613H23.0039C24.0539 20.3613 25.0706 20.5655 26.0539 20.9738C27.0372 21.3822 27.9039 21.9613 28.6539 22.7113C29.1706 23.228 29.5997 23.7947 29.9414 24.4113C30.2831 25.028 30.5456 25.6863 30.7289 26.3863C30.8122 26.2697 30.9039 26.1572 31.0039 26.0488C31.1039 25.9405 31.2122 25.828 31.3289 25.7113C32.0789 24.9613 32.9456 24.3822 33.9289 23.9738C34.9122 23.5655 35.9372 23.3613 37.0039 23.3613H39.0039V25.3613C39.0039 26.428 38.7997 27.453 38.3914 28.4363C37.9831 29.4197 37.4039 30.2863 36.6539 31.0363C35.9039 31.7863 35.0414 32.3613 34.0664 32.7613C33.0914 33.1613 32.0706 33.3613 31.0039 33.3613V38.3613H29.0039ZM29.0039 28.3613C29.0039 27.5613 28.8497 26.7988 28.5414 26.0738C28.2331 25.3488 27.7956 24.703 27.2289 24.1363C26.6622 23.5697 26.0164 23.1322 25.2914 22.8238C24.5664 22.5155 23.8039 22.3613 23.0039 22.3613C23.0039 23.1613 23.1539 23.928 23.4539 24.6613C23.7539 25.3947 24.1872 26.0447 24.7539 26.6113C25.3206 27.178 25.9706 27.6113 26.7039 27.9113C27.4372 28.2113 28.2039 28.3613 29.0039 28.3613ZM31.0039 31.3613C31.8039 31.3613 32.5664 31.2113 33.2914 30.9113C34.0164 30.6113 34.6622 30.178 35.2289 29.6113C35.7956 29.0447 36.2331 28.3947 36.5414 27.6613C36.8497 26.928 37.0039 26.1613 37.0039 25.3613C36.2039 25.3613 35.4372 25.5155 34.7039 25.8238C33.9706 26.1322 33.3206 26.5697 32.7539 27.1363C32.1872 27.703 31.7539 28.3488 31.4539 29.0738C31.1539 29.7988 31.0039 30.5613 31.0039 31.3613Z" fill="white"/>
</svg>
