<svg width="1920" height="558" viewBox="0 0 1920 558" fill="none" xmlns="http://www.w3.org/2000/svg">
<path d="M614 0C450 -0.000657314 349.123 52.6111 270 71.1776V233.049L1895 224L1975 71.1776C1795.5 48.5 1629.28 111.5 1446 111.5C1262.72 111.5 1074.5 60 978.619 40.211C896.594 23.282 778 0.000657326 614 0Z" fill="#FEEDDC"/>
<path d="M1402 47.5C1616.5 47.5 1843.5 108.833 1920 155V557.5H-63V151C21.4573 177.516 150.568 177.509 323.007 177.5L332.5 177.5C509.7 177.5 791.5 148.5 883.5 125.5C964.603 105.224 1157 47.5 1402 47.5Z" fill="#FFD5AD"/>
<path d="M501.543 48C293.858 48 74.0696 109.333 0 155.5V558H1920V126C1832.86 143.5 1664.1 192 1492.53 192C1320.96 192 1092.65 149 1003.57 126C925.044 105.724 738.759 48 501.543 48Z" fill="#F88B23"/>
</svg>
