<svg width="12" height="72" viewBox="0 0 12 72" fill="none" xmlns="http://www.w3.org/2000/svg">
<path d="M5.98302 0.666667C8.92854 0.666667 11.317 3.05448 11.3177 6C11.3185 8.94552 8.93125 11.3333 5.98573 11.3333C3.04021 11.3333 0.651792 8.94552 0.651042 6C0.650291 3.05448 3.0375 0.666667 5.98302 0.666667ZM5.9983 60.6667C8.94382 60.6667 11.3322 63.0545 11.333 66C11.3337 68.9455 8.94654 71.3333 6.00102 71.3333C3.0555 71.3333 0.667077 68.9455 0.666327 66C0.665576 63.0545 3.05278 60.6667 5.9983 60.6667ZM6.98514 9C6.98528 9.55228 6.53768 10 5.98539 10C5.43311 10 4.98528 9.55228 4.98514 9L6.98514 9ZM4.98667 15C4.98653 14.4477 5.43413 14 5.98641 14C6.5387 14 6.98653 14.4477 6.98667 15L4.98667 15ZM6.9882 21C6.98834 21.5523 6.54074 22 5.98845 22C5.43617 22 4.98834 21.5523 4.9882 21L6.9882 21ZM4.98972 27C4.98958 26.4477 5.43719 26 5.98947 26C6.54175 26 6.98958 26.4477 6.98972 27L4.98972 27ZM6.99125 33C6.99139 33.5523 6.54379 34 5.99151 34C5.43922 34 4.99139 33.5523 4.99125 33L6.99125 33ZM4.99278 39C4.99264 38.4477 5.44024 38 5.99253 38C6.54481 38 6.99264 38.4477 6.99278 39L4.99278 39ZM6.99431 45C6.99445 45.5523 6.54685 46 5.99457 46C5.44228 46 4.99445 45.5523 4.99431 45L6.99431 45ZM4.99584 51C4.9957 50.4477 5.4433 50 5.99558 50C6.54787 50 6.9957 50.4477 6.99584 51L4.99584 51ZM6.99737 57C6.99751 57.5523 6.54991 58 5.99762 58C5.44534 58 4.99751 57.5523 4.99737 57L6.99737 57ZM4.9989 63C4.99876 62.4477 5.44636 62 5.99864 62C6.55093 62 6.99876 62.4477 6.9989 63L4.9989 63ZM6.98438 6L6.98514 9L4.98514 9L4.98438 6L6.98438 6ZM6.98667 15L6.9882 21L4.9882 21L4.98667 15L6.98667 15ZM6.98972 27L6.99125 33L4.99125 33L4.98972 27L6.98972 27ZM6.99278 39L6.99431 45L4.99431 45L4.99278 39L6.99278 39ZM6.99584 51L6.99737 57L4.99737 57L4.99584 51L6.99584 51ZM6.9989 63L6.99966 66L4.99966 66L4.9989 63L6.9989 63Z" fill="#F88B23"/>
</svg>
