<svg width="156" height="156" viewBox="0 0 156 156" fill="none" xmlns="http://www.w3.org/2000/svg">
<g filter="url(#filter0_i_419_5550)">
<path d="M51.9329 24.2554C57.2276 31.8801 55.5265 42.223 55.5265 42.223C55.5265 42.223 45.241 40.2038 39.9463 32.5791C34.6516 24.9545 36.3527 14.6116 36.3527 14.6116C36.3527 14.6116 46.6382 16.6307 51.9329 24.2554Z" fill="#8EE26B"/>
</g>
<g filter="url(#filter1_i_419_5550)">
<path d="M55.5254 17.3203H78.9087V155.698H55.5254V17.3203Z" fill="#B95E1A"/>
</g>
<path d="M55.5254 85.3594H78.6837V108.111H55.5254V85.3594Z" fill="#8B4613"/>
<path d="M55.5254 38.4062H78.6837V61.1583H55.5254V38.4062Z" fill="#8B4613"/>
<g filter="url(#filter2_ii_419_5550)">
<path d="M0 49.6055C0 45.2196 3.55552 41.6641 7.94148 41.6641H13.2242C14.1542 41.6641 15.0752 41.8312 15.9633 42.1073C17.4816 42.5793 19.9969 43.26 21.8927 43.2657C23.8243 43.2714 26.3923 42.5803 27.9303 42.1042C28.8156 41.8302 29.7341 41.6641 30.6607 41.6641H123.231C125.149 41.6641 127.002 42.3583 128.448 43.6184L152.968 64.986C156.6 68.1512 156.6 73.7952 152.968 76.9604L128.448 98.328C127.002 99.5881 125.149 100.282 123.231 100.282H86.0592C84.9357 100.282 83.8249 100.044 82.8003 99.5828L81.4903 98.9933C79.2555 97.9877 76.6815 98.0701 74.5156 99.2168L74.2462 99.3594C73.1014 99.9655 71.8258 100.282 70.5304 100.282H7.94149C3.55553 100.282 0 96.7268 0 92.3408V49.6055Z" fill="#FFB65F"/>
</g>
<path fill-rule="evenodd" clip-rule="evenodd" d="M74.6464 52.8761C48.9574 52.1209 19.4607 52.5052 0.137567 53.0924L0.124166 52.6514C19.4527 52.064 48.9587 51.6795 74.6594 52.4351C87.5091 52.8129 99.4122 53.4758 108.618 54.5416C113.22 55.0744 117.154 55.7086 120.197 56.4598C121.719 56.8354 123.022 57.2414 124.077 57.6806C125.129 58.1186 125.948 58.5955 126.49 59.1198C126.764 59.3852 126.952 59.6628 127.037 59.9545C127.123 60.251 127.097 60.5458 126.972 60.8295C126.728 61.3795 126.112 61.8775 125.236 62.3402C123.471 63.2732 120.466 64.1563 116.518 64.9925C108.611 66.6672 96.8334 68.1716 83.3869 69.4837C56.4903 72.1082 22.8843 73.9663 0.139663 74.8739L0.12207 74.4331C22.8626 73.5256 56.4593 71.668 83.3441 69.0446C96.7883 67.7327 108.546 66.2302 116.427 64.5609C120.373 63.7251 123.324 62.8519 125.03 61.9502C125.89 61.4955 126.388 61.0565 126.568 60.6506C126.654 60.4564 126.668 60.2685 126.613 60.0777C126.556 59.882 126.421 59.6677 126.183 59.4366C125.699 58.968 124.937 58.5168 123.907 58.0879C122.88 57.6602 121.6 57.2606 120.091 56.8881C117.074 56.1433 113.161 55.5117 108.567 54.9798C99.3801 53.9162 87.4916 53.2538 74.6464 52.8761Z" fill="#FF8C3C"/>
<path fill-rule="evenodd" clip-rule="evenodd" d="M67.5317 75.3947C98.9994 75.0152 134.274 75.7753 153.599 76.3625L153.612 75.9216C134.285 75.3343 99.003 74.5739 67.5264 74.9535C51.7887 75.1433 36.9983 75.6181 25.6278 76.5425C19.9431 77.0047 15.1078 77.5796 11.4343 78.2888C9.59774 78.6433 8.04636 79.0324 6.82212 79.4596C5.6038 79.8848 4.68567 80.3558 4.13776 80.8865C3.86379 81.152 3.67572 81.4296 3.5909 81.7213C3.50467 82.0178 3.53008 82.3126 3.65587 82.5963C3.89978 83.1463 4.51567 83.6442 5.39111 84.107C7.15618 85.04 10.1614 85.9231 14.1093 86.7593C22.016 88.434 33.794 89.9384 47.2405 91.2505C74.1371 93.875 107.743 95.7331 130.488 96.6407L130.505 96.1999C107.765 95.2924 74.1681 93.4348 47.2834 90.8114C33.8391 89.4995 22.0818 87.9969 14.2008 86.3277C10.2549 85.4919 7.30315 84.6187 5.59728 83.7169C4.73723 83.2623 4.23915 82.8233 4.05919 82.4174C3.97305 82.2232 3.95907 82.0352 4.01455 81.8445C4.07145 81.6488 4.20619 81.4345 4.44474 81.2034C4.92184 80.7412 5.76514 80.2958 6.9675 79.8762C8.16394 79.4586 9.69249 79.0744 11.5179 78.722C15.1683 78.0173 19.9853 77.4439 25.6635 76.9823C37.0188 76.0591 51.7973 75.5844 67.5317 75.3947Z" fill="#FF8C3C"/>
<path fill-rule="evenodd" clip-rule="evenodd" d="M101.781 80.8547C118.505 80.653 137.252 81.057 147.523 81.3691L147.536 80.9281C137.263 80.616 118.508 80.2118 101.776 80.4136C93.4104 80.5145 85.5463 80.7669 79.4991 81.2585C76.4761 81.5042 73.9018 81.8102 71.9438 82.1882C70.9651 82.3771 70.1352 82.585 69.4779 82.8144C68.8267 83.0417 68.3211 83.298 68.0133 83.5962C67.8594 83.7453 67.747 83.9077 67.6953 84.0852C67.6423 84.2676 67.6585 84.4493 67.7346 84.621C67.8792 84.9472 68.2342 85.2256 68.7031 85.4735C69.6551 85.9767 71.265 86.4484 73.3638 86.8929C77.5723 87.7843 83.8374 88.5844 90.9849 89.2818C105.284 90.6771 123.148 91.6648 135.238 92.1472L135.255 91.7064C123.17 91.2241 105.315 90.2368 91.0277 88.8427C83.8825 88.1455 77.6382 87.3473 73.4553 86.4613C71.3585 86.0172 69.8021 85.5554 68.9093 85.0834C68.4558 84.8437 68.2186 84.6241 68.138 84.4422C68.1014 84.3599 68.0967 84.285 68.119 84.2084C68.1427 84.1269 68.2018 84.0278 68.3203 83.9131C68.5573 83.6835 68.988 83.4527 69.6233 83.231C70.2527 83.0113 71.0598 82.8082 72.0275 82.6214C73.9623 82.2479 76.5183 81.9435 79.5348 81.6982C85.5668 81.2078 93.4189 80.9556 101.781 80.8547Z" fill="#FF8C3C"/>
<path fill-rule="evenodd" clip-rule="evenodd" d="M61.7344 54.8738C40.4974 54.2494 16.1123 54.5671 0.137567 55.0525L0.124166 54.6115C16.1043 54.126 40.4987 53.8081 61.7474 54.4328C72.3711 54.7451 82.2131 55.2932 89.8254 56.1745C93.6311 56.6151 96.8851 57.1396 99.4032 57.7612C100.662 58.072 101.742 58.4082 102.616 58.7723C103.488 59.1352 104.17 59.5317 104.623 59.97C104.852 60.1923 105.013 60.4274 105.085 60.6768C105.159 60.9312 105.137 61.1841 105.03 61.4264C104.822 61.8936 104.303 62.3104 103.578 62.6937C102.114 63.4677 99.6244 64.1986 96.3603 64.89C89.8214 66.275 80.0823 67.5189 68.9654 68.6037C46.7279 70.7736 18.9438 72.3097 0.139663 73.0601L0.12207 72.6193C18.9221 71.8691 46.6969 70.3333 68.9225 68.1646C80.0371 67.08 89.7556 65.838 96.2689 64.4584C99.5309 63.7674 101.967 63.0464 103.372 62.3036C104.081 61.9285 104.483 61.5706 104.626 61.2475C104.694 61.0947 104.705 60.9486 104.661 60.8C104.617 60.6466 104.51 60.4749 104.316 60.2868C103.921 59.9042 103.296 59.5334 102.447 59.1796C101.6 58.827 100.544 58.4972 99.2974 58.1896C96.8053 57.5743 93.5721 57.0524 89.7747 56.6127C82.1809 55.7336 72.3536 55.186 61.7344 54.8738Z" fill="#FF8C3C"/>
<path fill-rule="evenodd" clip-rule="evenodd" d="M37.5408 58.2381C24.6166 57.8581 9.77589 58.0515 0.0535823 58.3469L0.0401819 57.9059C9.76789 57.6103 24.618 57.4168 37.5538 57.7971C44.021 57.9872 50.0144 58.3209 54.6515 58.8578C56.9695 59.1261 58.9542 59.4459 60.492 59.8255C61.2608 60.0153 61.9224 60.2212 62.4602 60.445C62.995 60.6677 63.4218 60.9141 63.7084 61.1917C63.8551 61.3338 63.963 61.4892 64.0126 61.6599C64.0636 61.8354 64.048 62.0102 63.9749 62.1752C63.8362 62.4878 63.497 62.753 63.0527 62.9879C62.1498 63.4652 60.6242 63.912 58.6371 64.3329C54.652 65.1769 48.72 65.9344 41.953 66.5948C28.4153 67.9157 11.5021 68.8508 0.0556782 69.3076L0.0380859 68.8668C11.4804 68.4102 28.3843 67.4755 41.9102 66.1556C48.6749 65.4956 54.5862 64.7399 58.5457 63.9012C60.5308 63.4808 62.0028 63.0438 62.8465 62.5978C63.2755 62.3711 63.4969 62.1647 63.5715 61.9963C63.605 61.9208 63.6092 61.8528 63.589 61.7831C63.5673 61.7085 63.5127 61.6164 63.4015 61.5086C63.1723 61.2866 62.8035 61.0659 62.2906 60.8523C61.7806 60.64 61.1422 60.4405 60.3862 60.2538C58.8744 59.8806 56.9105 59.5634 54.6008 59.296C49.9823 58.7613 44.0035 58.4281 37.5408 58.2381Z" fill="#FF8C3C"/>
<g filter="url(#filter3_i_419_5550)">
<path d="M86.8261 12.6114C83.6129 16.7867 77.7261 17.6458 77.7261 17.6458C77.7261 17.6458 77.049 11.7354 80.2621 7.56006C83.4753 3.38475 89.362 2.52568 89.362 2.52568C89.362 2.52568 90.0392 8.43612 86.8261 12.6114Z" fill="#8EE26B"/>
</g>
<g filter="url(#filter4_i_419_5550)">
<path d="M81.8311 47.9696C78.3892 43.9807 78.7345 38.0416 78.7345 38.0416C78.7345 38.0416 84.6601 38.5698 88.102 42.5587C91.5438 46.5476 91.1985 52.4867 91.1985 52.4867C91.1985 52.4867 85.2729 51.9585 81.8311 47.9696Z" fill="#00A763"/>
</g>
<g filter="url(#filter5_i_419_5550)">
<path d="M78.4483 143.124C81.4155 138.771 87.2429 137.574 87.2429 137.574C87.2429 137.574 88.2596 143.436 85.2925 147.789C82.3253 152.143 76.4978 153.34 76.4978 153.34C76.4978 153.34 75.4811 147.478 78.4483 143.124Z" fill="#00A763"/>
</g>
<g filter="url(#filter6_i_419_5550)">
<path d="M51.3852 142.901C56.9828 145.108 59.7852 151.298 59.7852 151.298C59.7852 151.298 53.5122 153.908 47.9146 151.7C42.317 149.493 39.5146 143.303 39.5146 143.303C39.5146 143.303 45.7876 140.693 51.3852 142.901Z" fill="#8EE26B"/>
</g>
<defs>
<filter id="filter0_i_419_5550" x="36.0928" y="14.6094" width="19.6943" height="27.6172" filterUnits="userSpaceOnUse" color-interpolation-filters="sRGB">
<feFlood flood-opacity="0" result="BackgroundImageFix"/>
<feBlend mode="normal" in="SourceGraphic" in2="BackgroundImageFix" result="shape"/>
<feColorMatrix in="SourceAlpha" type="matrix" values="0 0 0 0 0 0 0 0 0 0 0 0 0 0 0 0 0 0 127 0" result="hardAlpha"/>
<feOffset dx="8" dy="4"/>
<feComposite in2="hardAlpha" operator="arithmetic" k2="-1" k3="1"/>
<feColorMatrix type="matrix" values="0 0 0 0 0 0 0 0 0 0.654902 0 0 0 0 0.388235 0 0 0 1 0"/>
<feBlend mode="normal" in2="shape" result="effect1_innerShadow_419_5550"/>
</filter>
<filter id="filter1_i_419_5550" x="55.5254" y="17.3203" width="23.3838" height="138.375" filterUnits="userSpaceOnUse" color-interpolation-filters="sRGB">
<feFlood flood-opacity="0" result="BackgroundImageFix"/>
<feBlend mode="normal" in="SourceGraphic" in2="BackgroundImageFix" result="shape"/>
<feColorMatrix in="SourceAlpha" type="matrix" values="0 0 0 0 0 0 0 0 0 0 0 0 0 0 0 0 0 0 127 0" result="hardAlpha"/>
<feOffset dx="11" dy="-4"/>
<feComposite in2="hardAlpha" operator="arithmetic" k2="-1" k3="1"/>
<feColorMatrix type="matrix" values="0 0 0 0 0 0 0 0 0 0 0 0 0 0 0 0 0 0 0.25 0"/>
<feBlend mode="normal" in2="shape" result="effect1_innerShadow_419_5550"/>
</filter>
<filter id="filter2_ii_419_5550" x="0" y="41.6641" width="155.692" height="58.6172" filterUnits="userSpaceOnUse" color-interpolation-filters="sRGB">
<feFlood flood-opacity="0" result="BackgroundImageFix"/>
<feBlend mode="normal" in="SourceGraphic" in2="BackgroundImageFix" result="shape"/>
<feColorMatrix in="SourceAlpha" type="matrix" values="0 0 0 0 0 0 0 0 0 0 0 0 0 0 0 0 0 0 127 0" result="hardAlpha"/>
<feOffset dx="1" dy="-3"/>
<feComposite in2="hardAlpha" operator="arithmetic" k2="-1" k3="1"/>
<feColorMatrix type="matrix" values="0 0 0 0 0 0 0 0 0 0 0 0 0 0 0 0 0 0 0.25 0"/>
<feBlend mode="normal" in2="shape" result="effect1_innerShadow_419_5550"/>
<feColorMatrix in="SourceAlpha" type="matrix" values="0 0 0 0 0 0 0 0 0 0 0 0 0 0 0 0 0 0 127 0" result="hardAlpha"/>
<feOffset dy="18"/>
<feComposite in2="hardAlpha" operator="arithmetic" k2="-1" k3="1"/>
<feColorMatrix type="matrix" values="0 0 0 0 1 0 0 0 0 0.54902 0 0 0 0 0.235294 0 0 0 1 0"/>
<feBlend mode="normal" in2="effect1_innerShadow_419_5550" result="effect2_innerShadow_419_5550"/>
</filter>
<filter id="filter3_i_419_5550" x="77.667" y="2.52344" width="11.7549" height="15.125" filterUnits="userSpaceOnUse" color-interpolation-filters="sRGB">
<feFlood flood-opacity="0" result="BackgroundImageFix"/>
<feBlend mode="normal" in="SourceGraphic" in2="BackgroundImageFix" result="shape"/>
<feColorMatrix in="SourceAlpha" type="matrix" values="0 0 0 0 0 0 0 0 0 0 0 0 0 0 0 0 0 0 127 0" result="hardAlpha"/>
<feOffset dx="3" dy="-1"/>
<feComposite in2="hardAlpha" operator="arithmetic" k2="-1" k3="1"/>
<feColorMatrix type="matrix" values="0 0 0 0 0 0 0 0 0 0.654902 0 0 0 0 0.388235 0 0 0 1 0"/>
<feBlend mode="normal" in2="shape" result="effect1_innerShadow_419_5550"/>
</filter>
<filter id="filter4_i_419_5550" x="78.7246" y="38.0391" width="12.4834" height="14.4453" filterUnits="userSpaceOnUse" color-interpolation-filters="sRGB">
<feFlood flood-opacity="0" result="BackgroundImageFix"/>
<feBlend mode="normal" in="SourceGraphic" in2="BackgroundImageFix" result="shape"/>
<feColorMatrix in="SourceAlpha" type="matrix" values="0 0 0 0 0 0 0 0 0 0 0 0 0 0 0 0 0 0 127 0" result="hardAlpha"/>
<feOffset dx="-1" dy="-3"/>
<feComposite in2="hardAlpha" operator="arithmetic" k2="-1" k3="1"/>
<feColorMatrix type="matrix" values="0 0 0 0 0 0 0 0 0 0 0 0 0 0 0 0 0 0 0.25 0"/>
<feBlend mode="normal" in2="shape" result="effect1_innerShadow_419_5550"/>
</filter>
<filter id="filter5_i_419_5550" x="76.3301" y="137.57" width="11.0811" height="15.7656" filterUnits="userSpaceOnUse" color-interpolation-filters="sRGB">
<feFlood flood-opacity="0" result="BackgroundImageFix"/>
<feBlend mode="normal" in="SourceGraphic" in2="BackgroundImageFix" result="shape"/>
<feColorMatrix in="SourceAlpha" type="matrix" values="0 0 0 0 0 0 0 0 0 0 0 0 0 0 0 0 0 0 127 0" result="hardAlpha"/>
<feOffset dx="3"/>
<feComposite in2="hardAlpha" operator="arithmetic" k2="-1" k3="1"/>
<feColorMatrix type="matrix" values="0 0 0 0 0 0 0 0 0 0 0 0 0 0 0 0 0 0 0.25 0"/>
<feBlend mode="normal" in2="shape" result="effect1_innerShadow_419_5550"/>
</filter>
<filter id="filter6_i_419_5550" x="39.5146" y="142.016" width="20.2705" height="10.5703" filterUnits="userSpaceOnUse" color-interpolation-filters="sRGB">
<feFlood flood-opacity="0" result="BackgroundImageFix"/>
<feBlend mode="normal" in="SourceGraphic" in2="BackgroundImageFix" result="shape"/>
<feColorMatrix in="SourceAlpha" type="matrix" values="0 0 0 0 0 0 0 0 0 0 0 0 0 0 0 0 0 0 127 0" result="hardAlpha"/>
<feOffset dx="7"/>
<feComposite in2="hardAlpha" operator="arithmetic" k2="-1" k3="1"/>
<feColorMatrix type="matrix" values="0 0 0 0 0 0 0 0 0 0.654902 0 0 0 0 0.388235 0 0 0 1 0"/>
<feBlend mode="normal" in2="shape" result="effect1_innerShadow_419_5550"/>
</filter>
</defs>
</svg>
