<svg width="50" height="50" viewBox="0 0 50 50" fill="none" xmlns="http://www.w3.org/2000/svg">
<mask id="mask0_1993_14140" style="mask-type:alpha" maskUnits="userSpaceOnUse" x="0" y="0" width="50" height="50">
<rect width="50" height="50" fill="#D9D9D9"/>
</mask>
<g mask="url(#mask0_1993_14140)">
<path d="M10.4167 41.3333C7.46528 41.3333 4.99132 40.3351 2.99479 38.3385C0.998264 36.342 0 33.8681 0 30.9167C0 27.9653 1.01562 25.4913 3.04687 23.4948C5.07812 21.4983 7.53472 20.5 10.4167 20.5C13.0903 20.5 15.3385 21.2986 17.1615 22.8958C18.9844 24.4931 20.1389 26.4722 20.625 28.8333H21.9792L18.2292 18.4167H14.5833V14.25H25V18.4167H22.7083L23.4375 20.5H33.4375L30.4167 12.1667H25V8H30.4167C31.3194 8 32.1267 8.24306 32.8385 8.72917C33.5503 9.21528 34.0625 9.875 34.375 10.7083L37.9167 20.3958H39.5833C42.4653 20.3958 44.9219 21.4115 46.9531 23.4427C48.9844 25.474 50 27.9306 50 30.8125C50 33.7292 48.9931 36.2118 46.9792 38.2604C44.9653 40.309 42.5 41.3333 39.5833 41.3333C37.0833 41.3333 34.8872 40.5521 32.9948 38.9896C31.1024 37.4271 29.8958 35.4306 29.375 33H20.625C20.1389 35.3958 18.9583 37.3837 17.0833 38.9635C15.2083 40.5434 12.9861 41.3333 10.4167 41.3333ZM10.4167 37.1667C11.8403 37.1667 13.0642 36.776 14.0885 35.9948C15.1128 35.2135 15.8333 34.2153 16.25 33H10.4167V28.8333H16.25C15.8333 27.5833 15.1128 26.5764 14.0885 25.8125C13.0642 25.0486 11.8403 24.6667 10.4167 24.6667C8.64583 24.6667 7.16146 25.2656 5.96354 26.4635C4.76562 27.6615 4.16667 29.1458 4.16667 30.9167C4.16667 32.6528 4.76562 34.1285 5.96354 35.3437C7.16146 36.559 8.64583 37.1667 10.4167 37.1667ZM26.4583 28.8333H29.375C29.5486 28.0347 29.783 27.2882 30.0781 26.5937C30.3733 25.8993 30.7639 25.2569 31.25 24.6667H24.8958L26.4583 28.8333ZM39.5833 37.1667C41.3542 37.1667 42.8385 36.559 44.0365 35.3437C45.2344 34.1285 45.8333 32.6528 45.8333 30.9167C45.8333 29.1458 45.2344 27.6615 44.0365 26.4635C42.8385 25.2656 41.3542 24.6667 39.5833 24.6667H39.375L41.4583 30.1875L37.5 31.6458L35.5208 26.125C34.8264 26.7153 34.2882 27.4097 33.9062 28.2083C33.5243 29.0069 33.3333 29.9097 33.3333 30.9167C33.3333 32.6528 33.9323 34.1285 35.1302 35.3437C36.3281 36.559 37.8125 37.1667 39.5833 37.1667Z" fill="#1C1B1F"/>
</g>
</svg>
