<svg width="34" height="34" viewBox="0 0 34 34" fill="none" xmlns="http://www.w3.org/2000/svg">
<path d="M25.226 25.2306C29.8699 20.5857 29.87 13.0549 25.226 8.40997C20.582 3.76507 13.0526 3.76509 8.40865 8.40998C3.76468 13.0549 3.76468 20.5857 8.40866 25.2306C13.0526 29.8755 20.582 29.8755 25.226 25.2306Z" fill="#C1C5EF"/>
<path d="M11.1074 21.507L13.6082 19.0056C13.6082 19.0056 15.0373 20.6902 16.4153 20.2818C17.7933 19.8224 21.8763 16.198 19.0182 14.1561L21.1618 11.1953C21.1618 11.1953 23.5606 13.6967 22.0805 16.3511C20.6004 19.0056 16.8236 21.507 16.8236 21.507C16.8236 21.507 13.8635 23.5489 11.1074 21.507Z" fill="#FEFEFE"/>
<path d="M13.8127 22.6785C12.894 22.6785 11.9243 22.4232 10.9546 21.7086C10.9036 21.6575 10.8525 21.6065 10.8525 21.5044C10.8525 21.4533 10.8525 21.3512 10.9036 21.3002L13.4044 18.7989C13.4555 18.7478 13.5065 18.7478 13.6085 18.7478C13.6596 18.7478 13.7617 18.7989 13.8127 18.8499C13.8127 18.8499 15.1397 20.4324 16.3135 20.024C17.1812 19.7688 19.4268 17.931 19.682 16.1954C19.7841 15.4297 19.5289 14.8682 18.8144 14.3577C18.7633 14.3067 18.7123 14.2556 18.7123 14.2046C18.7123 14.1535 18.7123 14.0514 18.7634 14.0004L20.9069 11.0396C20.958 10.9885 21.009 10.9375 21.1111 10.9375C21.2132 10.9375 21.2642 10.9375 21.3152 11.0396C21.3663 11.0906 23.8671 13.6941 22.2849 16.5017C20.8048 19.2072 17.1301 21.6575 16.926 21.7596C16.977 21.7596 15.548 22.6785 13.8127 22.6785ZM11.516 21.5044C14.0169 23.1379 16.6708 21.3512 16.7219 21.3512C16.7729 21.3002 20.4476 18.8499 21.8766 16.2975C22.9995 14.2556 21.7235 12.3158 21.2132 11.6522L19.3758 14.1535C20.0903 14.715 20.3455 15.4807 20.2434 16.3486C19.9372 18.3394 17.4874 20.2792 16.5177 20.5855C15.2928 20.9939 14.1189 19.9219 13.6596 19.4625L11.516 21.5044Z" fill="white"/>
</svg>
