<svg width="35" height="35" viewBox="0 0 35 35" fill="none" xmlns="http://www.w3.org/2000/svg">
<path d="M32.2953 20.1386C33.7621 11.9523 28.3162 4.12665 20.1315 2.65955C11.9468 1.19245 4.1227 6.63946 2.65589 14.8258C1.18908 23.0121 6.63501 30.8378 14.8197 32.3049C23.0044 33.772 30.8285 28.325 32.2953 20.1386Z" fill="#C1C5EF"/>
<path d="M27.2418 16.4399C27.2418 15.8273 26.6804 15.3168 25.9659 15.3168V15.2658C26.6804 15.2658 27.2418 14.7553 27.2418 14.1427C27.2418 13.5301 26.6804 13.0197 25.9659 13.0197H21.6787C21.6787 13.0197 21.6787 13.0197 21.8318 12.2539C21.985 11.4882 22.036 8.98688 21.2194 8.6806C20.4028 8.37431 19.9945 8.83374 19.6883 10.7736C19.382 12.7644 15.4521 14.3469 15.4521 14.3469V22.2082H25.9659C26.6804 22.2082 27.2418 21.6978 27.2418 21.0852C27.2418 20.4726 26.6804 19.9621 25.9659 19.9621V19.86C26.6804 19.86 27.2418 19.3496 27.2418 18.737C27.2418 18.1244 26.6804 17.6139 25.9659 17.6139V17.5629C26.6294 17.5629 27.2418 17.0524 27.2418 16.4399Z" fill="#FEFEFE"/>
<path d="M15.4018 13.5859H10.6553V23.0298H15.4018V13.5859Z" fill="#222221"/>
</svg>
