<svg width="1628" height="854" viewBox="0 0 1628 854" fill="none" xmlns="http://www.w3.org/2000/svg">
<rect x="213.445" y="315" width="294.358" height="279.905" rx="139.952" transform="rotate(15 213.445 315)" fill="#F88B23" fill-opacity="0.1"/>
<rect x="1343.45" width="294.358" height="279.905" rx="139.952" transform="rotate(15 1343.45 0)" fill="#FBC920" fill-opacity="0.1"/>
<rect x="1323.66" y="585.124" width="213.99" height="202.993" rx="101.496" transform="rotate(15 1323.66 585.124)" stroke="#F88B23" stroke-opacity="0.1" stroke-width="10" stroke-dasharray="10 10"/>
<rect x="56.0551" y="157.124" width="130.263" height="123.376" rx="61.6882" transform="rotate(15 56.0551 157.124)" stroke="#E60019" stroke-opacity="0.1" stroke-width="10" stroke-dasharray="10 10"/>
<line x1="1591" y1="321" x2="1591" y2="342" stroke="#F88B23" stroke-opacity="0.3" stroke-width="10"/>
<line x1="1624" y1="351" x2="1603" y2="351" stroke="#F88B23" stroke-opacity="0.3" stroke-width="10"/>
<line x1="1580" y1="351" x2="1559" y2="351" stroke="#F88B23" stroke-opacity="0.3" stroke-width="10"/>
<line x1="1591" y1="361" x2="1591" y2="382" stroke="#F88B23" stroke-opacity="0.3" stroke-width="10"/>
<line x1="32" y1="793" x2="32" y2="814" stroke="#FBC920" stroke-opacity="0.3" stroke-width="10"/>
<line x1="65" y1="823" x2="44" y2="823" stroke="#FBC920" stroke-opacity="0.3" stroke-width="10"/>
<line x1="21" y1="823" x2="-4.37114e-07" y2="823" stroke="#FBC920" stroke-opacity="0.3" stroke-width="10"/>
<line x1="32" y1="833" x2="32" y2="854" stroke="#FBC920" stroke-opacity="0.3" stroke-width="10"/>
</svg>
