<svg width="675" height="511" viewBox="0 0 675 511" fill="none" xmlns="http://www.w3.org/2000/svg">
<path d="M607.359 357.461H589.186V484.858H607.359V357.461Z" fill="#99A2A9"/>
<path d="M651.512 323.336H641.482V358.776H651.512V323.336Z" fill="#99A2A9"/>
<path d="M642.16 369.892H541.329C536.146 369.892 531.973 365.77 531.973 360.65V353.469C531.973 348.349 536.146 344.227 541.329 344.227H642.16C647.343 344.227 651.516 348.349 651.516 353.469V360.65C651.516 365.703 647.343 369.892 642.16 369.892Z" fill="#303030"/>
<path d="M668.012 177.712L665.117 177.379C660.809 176.847 656.838 179.973 656.3 184.228L639.472 325.522C638.933 329.778 642.097 333.701 646.405 334.232L649.299 334.565C653.607 335.097 657.578 331.972 658.117 327.716L674.944 186.422C675.483 182.167 672.319 178.244 668.012 177.712Z" fill="#303030"/>
<path d="M662.898 181.803C661.215 181.604 659.734 182.8 659.532 184.463L642.907 323.828C642.705 325.491 643.916 326.954 645.599 327.153C647.282 327.353 648.763 326.156 648.965 324.493L665.59 185.128C665.792 183.465 664.581 182.002 662.898 181.803Z" fill="#424249"/>
<path d="M551.634 510.199C557.471 510.199 562.202 505.525 562.202 499.759C562.202 493.994 557.471 489.32 551.634 489.32C545.798 489.32 541.066 493.994 541.066 499.759C541.066 505.525 545.798 510.199 551.634 510.199Z" fill="#303030"/>
<path d="M647.347 510.199C653.183 510.199 657.915 505.525 657.915 499.759C657.915 493.994 653.183 489.32 647.347 489.32C641.511 489.32 636.779 493.994 636.779 499.759C636.779 505.525 641.511 510.199 647.347 510.199Z" fill="#303030"/>
<path d="M661.28 493.652H535.207C535.207 488.798 539.178 484.875 544.092 484.875H652.395C657.308 484.875 661.28 488.798 661.28 493.652Z" fill="#99A2A9"/>
<path d="M604.386 368.539H599.809V484.832H604.386V368.539Z" fill="#99A2A9"/>
<path d="M64.0897 322.875H45.7812V336.971H64.0897V322.875Z" fill="#99A2A9"/>
<path d="M65.5937 478.016H83.7676L83.7676 350.618H65.5937L65.5937 478.016Z" fill="#99A2A9"/>
<path d="M121.292 503.316C127.129 503.316 131.86 498.642 131.86 492.877C131.86 487.111 127.129 482.438 121.292 482.438C115.456 482.438 110.725 487.111 110.725 492.877C110.725 498.642 115.456 503.316 121.292 503.316Z" fill="#303030"/>
<path d="M25.5775 503.316C31.4139 503.316 36.1453 498.642 36.1453 492.877C36.1453 487.111 31.4139 482.438 25.5775 482.438C19.7411 482.438 15.0098 487.111 15.0098 492.877C15.0098 498.642 19.7411 503.316 25.5775 503.316Z" fill="#303030"/>
<path d="M11.6465 486.792H137.719C137.719 481.939 133.748 478.016 128.834 478.016H20.5315C15.6178 478.016 11.6465 481.939 11.6465 486.792Z" fill="#99A2A9"/>
<path d="M68.4912 477.961H73.0684L73.0684 361.668H68.4912L68.4912 477.961Z" fill="#99A2A9"/>
<path d="M15.2067 362.048H134.144C139.731 362.048 144.241 357.594 144.241 352.075V346.357C144.241 340.838 139.731 336.383 134.144 336.383H15.2067C9.61991 336.383 5.11011 340.838 5.11011 346.357V352.075C5.0428 357.527 9.61991 362.048 15.2067 362.048Z" fill="#303030"/>
<path d="M83.7421 324.453H24.6435C11.114 324.453 0.0078125 313.482 0.0078125 300.117V219.463C0.0078125 190.007 24.3742 165.938 54.1928 165.938C84.0113 165.938 108.378 190.007 108.378 219.463V300.117C108.378 313.482 97.2715 324.453 83.7421 324.453Z" fill="#191919"/>
<path d="M84.4719 315.12H38.4315C27.8638 315.12 19.248 306.609 19.248 296.17V216.979C19.248 194.04 38.2296 175.289 61.4517 175.289C84.6739 175.289 103.655 194.04 103.655 216.979V296.17C103.655 306.609 95.0397 315.12 84.4719 315.12Z" fill="#303030"/>
<path d="M309.915 200.553C309.309 199.422 309.713 198.026 310.857 197.361L319.675 192.574C320.819 191.975 322.233 192.374 322.906 193.505C323.512 194.635 323.108 196.031 321.964 196.63L313.146 201.417C312.002 202.082 310.588 201.683 309.915 200.553Z" fill="#FFA47C"/>
<path d="M307.444 196.982C306.839 195.852 307.242 194.456 308.387 193.791L317.204 189.004C318.349 188.405 319.762 188.804 320.435 189.934C321.041 191.065 320.637 192.461 319.493 193.059L310.675 197.847C309.531 198.512 308.05 198.113 307.444 196.982Z" fill="#FFA47C"/>
<path d="M305.206 193.326C304.6 192.196 305.004 190.8 306.148 190.135L314.966 185.347C316.11 184.749 317.524 185.148 318.197 186.278C318.803 187.408 318.399 188.805 317.255 189.403L308.437 194.191C307.293 194.856 305.812 194.457 305.206 193.326Z" fill="#FFA47C"/>
<path d="M303.392 189.545C302.786 188.415 303.19 187.018 304.334 186.353L313.152 181.566C314.296 180.968 315.71 181.367 316.383 182.497C316.988 183.627 316.585 185.024 315.44 185.622L306.623 190.409C305.478 191.141 303.997 190.675 303.392 189.545Z" fill="#FFA47C"/>
<path d="M336.044 175.367C336.044 175.367 319.351 176.764 316.322 177.894C313.293 179.091 303.533 187.07 303.533 187.07C303.533 187.07 308.985 188.931 310.062 191.591C311.139 194.317 313.159 201.498 313.159 201.498C313.159 201.498 323.928 198.905 328.236 196.179C332.611 193.453 336.246 189.796 336.246 189.796L336.044 175.367Z" fill="#FFA47C"/>
<path d="M408.19 151.086C404.354 139.051 379.718 148.825 368.006 154.278C356.227 159.663 333 175.635 333 175.635L336 189.958C336 189.958 363.227 186.393 396.411 173.228C399.777 171.898 412.094 163.387 408.19 151.086Z" fill="#B8D1FF"/>
<path d="M455.505 100.041C465.198 106.823 462.371 116.797 454.967 125.773C447.563 134.75 400.243 172.849 396.407 172.849C392.637 172.849 380.05 161.346 381.666 156.16C383.281 151.04 418.485 112.608 425.889 106.225C433.36 99.9081 444.197 92.0621 455.505 100.041Z" fill="#B8D1FF"/>
<path d="M468.552 38.8906C468.552 38.8906 478.245 71.3384 480.601 72.4688C487.87 75.9263 497.967 83.1074 504.227 90.6874C511.833 99.9297 509.275 145.144 509.611 161.501C509.948 177.858 523.41 200.066 529.603 214.694C535.795 229.322 492.043 259.642 490.293 260.041C488.543 260.506 469.292 249.934 465.119 245.679C460.879 241.423 454.013 201.794 451.455 191.821C448.965 181.914 437.791 147.604 436.781 145.476C429.916 130.981 430.858 118.015 430.656 114.691C430.454 111.3 428.906 105.98 430.05 103.52C432.272 98.5999 449.032 88.7591 448.763 86.6314C448.561 84.5037 443.782 55.447 443.782 55.447L468.552 38.8906Z" fill="#FFBD95"/>
<path d="M480.68 72.5L455.842 96.9023L448.842 86.7291C448.842 86.7291 431.543 98.8971 430.13 103.618C428.649 108.339 429.726 117.515 429.726 120.972C429.726 124.496 433.091 139.789 437.736 152.689C440.428 160.202 442.851 170.442 447.361 183.341C451.198 194.312 457.054 222.637 457.054 222.637C457.054 222.637 468.026 220.377 484.651 215.456C503.902 209.738 525.778 204.352 526.451 203.421C529.413 199.432 513.864 168.447 513.662 164.923C513.527 161.465 510.095 101.224 508.546 93.6443C507.066 86.0642 501.21 82.3407 495.488 79.0161C489.565 75.3591 480.68 72.5 480.68 72.5Z" fill="#CEE0FF"/>
<path d="M491.443 76.7812C491.443 76.7812 482.356 84.2283 479.125 94.1355C470.307 120.998 500.597 149.19 484.645 157.768C459.134 171.531 465.057 178.513 465.192 184.032C465.461 196.067 463.711 211.626 463.711 211.626L525.031 204.445C533.243 204.046 514.059 170.999 513.521 162.223C511.299 124.788 509.213 97.3936 508.001 91.2764C506.184 83.0979 491.443 76.7812 491.443 76.7812Z" fill="#B8D1FF"/>
<path d="M445.887 68.0344L472.744 50.2812L477.792 67.3695L470.118 75.0825L445.887 68.0344Z" fill="#FFA47C"/>
<path d="M432.335 12.1432C439.066 4.36368 460.672 -4.61266 473.394 8.61912C486.116 21.8509 483.087 36.745 478.241 46.3197C474.471 53.7667 470.433 58.1552 462.019 63.142C460.336 64.1394 444.181 68.9268 440.816 68.1954C438.46 67.7299 434.758 51.772 434.085 51.905C433.412 52.038 431.527 51.3066 431.258 49.9767C430.854 48.115 431.527 36.213 430.921 35.0162C430.315 33.8858 424.594 21.053 432.335 12.1432Z" fill="#FFBD95"/>
<path d="M428.637 19.9101C428.637 19.9101 440.281 11.4657 457.58 23.6336C461.282 26.2268 456.571 39.8575 457.513 40.9213C458.59 42.0517 468.686 30.0168 468.485 31.5461C465.792 46.9721 471.715 54.5521 473.129 54.4856C477.302 54.2861 487.601 31.7455 479.12 15.5216C470.638 -0.70224 452.061 -0.170309 447.753 1.2925C443.445 2.75531 430.319 5.21549 428.637 19.9101Z" fill="#8D3B26"/>
<path d="M461.77 34.0649C460.895 38.9852 460.962 45.4349 463.655 45.9003C466.347 46.3658 469.241 42.7087 470.116 37.8549C470.991 32.9345 469.511 28.6126 466.886 28.1471C464.193 27.6152 462.645 29.1445 461.77 34.0649Z" fill="#FFBD95"/>
<path d="M479.647 495.852H499.1V492.261H479.647V495.852Z" fill="#191919"/>
<path d="M498.718 467.314C501.276 470.838 502.959 477.686 503.228 480.812C503.564 484.602 501.276 492.58 498.718 492.58C491.381 492.58 482.563 492.846 475.025 493.91C467.419 494.908 464.592 499.23 445.206 499.163C439.552 499.163 429.254 498.764 429.59 496.503C429.927 494.243 448.168 490.12 454.091 484.734C469.034 471.104 478.996 467.846 478.996 467.846C478.996 467.846 498.179 466.582 498.718 467.314Z" fill="#0F0D0D"/>
<path d="M514.138 223.398C514.138 223.398 515.417 231.177 516.561 242.348C517.773 253.518 506.869 289.158 502.965 317.284C499.128 345.343 496.705 350.995 497.715 357.644C498.657 364.293 507.138 391.155 506.061 408.975C504.984 426.861 501.349 473.538 501.349 473.538C501.349 473.538 496.032 475.932 486.676 476.796C477.387 477.661 470.925 469.748 470.925 469.748C470.925 469.748 463.453 365.357 462.242 354.386C461.501 347.271 455.578 298.068 453.761 258.04C453.155 245.14 454.636 215.352 454.636 209.966C454.636 206.243 514.138 223.398 514.138 223.398Z" fill="#191919"/>
<path d="M540.981 500.755L560.164 497.43L559.491 493.773L540.375 497.098L540.981 500.755Z" fill="#191919"/>
<path d="M554.256 468.636C557.42 471.761 560.381 478.41 561.189 481.535C562.199 485.325 561.391 493.836 558.9 494.302C551.631 495.565 543.082 497.36 535.746 499.688C528.476 502.015 522.418 510.26 507.341 510.193C501.686 510.127 490.648 510.26 490.984 507.933C491.926 502.148 508.619 500.486 513.398 493.969C525.716 477.613 534.871 472.559 534.871 472.559C534.871 472.559 553.583 467.971 554.256 468.636Z" fill="#191919"/>
<path d="M525.65 205.219C525.65 205.219 533.996 221.044 535.41 234.807C536.554 245.978 535.746 266.79 535.208 295.115C534.669 323.44 537.362 349.372 539.112 355.888C540.862 362.338 553.045 389.267 554.055 407.086C555.064 424.973 557.622 470.32 557.622 470.32C557.622 470.32 550.353 474.775 541.199 476.703C532.044 478.631 526.121 475.373 526.121 475.373C526.121 475.373 503.033 372.777 497.649 363.069C489.033 347.51 482.033 296.245 473.282 261.803C469.782 247.906 456.926 215.126 456.926 215.126L525.65 205.219Z" fill="#303030"/>
<path d="M455.379 89.6908L455.85 96.8054L468.908 84.0391L455.379 89.6908Z" fill="#B8D1FF"/>
<path d="M455.838 96.8382L451.261 88.9922L448.299 92.7157L455.838 96.8382Z" fill="#B8D1FF"/>
<path d="M494.869 83.8166C506.311 84.8804 508.735 95.0536 506.917 106.623C505.033 118.193 483.762 175.442 480.599 177.303C477.435 179.165 461.281 175.442 460.136 170.122C458.992 164.803 469.897 113.405 473.06 104.096C476.156 94.8541 481.474 82.5532 494.869 83.8166Z" fill="#CEE0FF"/>
<path d="M526.454 203.352C526.454 203.352 506.395 206.144 486.471 206.942C466.547 207.673 454.566 208.205 454.566 208.205L454.432 215.985C454.432 215.985 474.827 216.45 495.895 215.187C516.627 213.924 528.473 210.932 528.473 210.932L526.454 203.352Z" fill="#3B1B1D"/>
<path d="M461.488 217.07H457.113C455.766 217.07 454.689 216.006 454.689 214.676V210.487C454.689 209.158 455.766 208.094 457.113 208.094H461.488C462.834 208.094 463.911 209.158 463.911 210.487V214.676C463.911 216.006 462.834 217.07 461.488 217.07Z" fill="#722C1D"/>
<path d="M327.815 196.291C327.815 196.291 324.181 198.486 318.93 200.148C318.392 200.347 317.651 200.879 317.046 201.079C316.574 201.212 315.699 201.212 315.228 201.345C314.824 201.478 314.555 201.81 314.151 201.943C313.613 202.076 312.805 201.81 312.267 202.01C311.863 202.143 311.055 202.608 310.651 202.741C309.103 203.339 308.766 202.276 308.295 202.408C306.747 202.807 306.343 202.94 306.007 202.94C304.526 202.94 299.276 199.283 298.603 198.486C297.929 197.688 293.285 193.898 293.554 193.366C293.823 192.834 296.045 191.903 298.804 193.632C301.564 195.36 305.064 197.289 304.593 196.757C304.122 196.225 302.237 192.568 301.766 190.972C301.497 189.908 302.507 189.443 303.449 189.31C303.987 189.243 306.343 191.238 306.343 191.238C306.343 191.238 307.016 189.177 307.487 189.11C309.103 188.844 310.382 190.839 310.988 191.371C311.526 191.77 311.324 189.31 312.065 189.243C314.69 189.11 316.709 195.161 319.065 193.964C320.276 193.166 325.931 192.967 327.815 196.291Z" fill="#FFA47C"/>
<path d="M429.46 243.881C429.46 243.881 428.989 253.19 423.268 254.918C417.546 256.714 411.085 253.19 409.402 252.724C402.536 250.995 395.199 256.315 390.891 256.049C386.584 255.783 386.314 253.057 387.862 252.658C396.478 250.397 401.055 246.341 404.959 245.809C408.863 245.277 422.662 239.359 422.662 239.359L429.46 243.881Z" fill="#FFBD95"/>
<path d="M477.251 168.482C488.02 175.284 472.957 197.772 465.051 208.322C457.145 218.872 429.5 245.284 429.5 245.284L421.5 239.851C421.5 239.851 435.062 205.962 455.373 175.631C457.418 172.577 466.278 161.61 477.251 168.482Z" fill="#CEE0FF"/>
<path d="M256.125 242.411C256.125 242.411 255.991 250.988 261.577 252.983C267.164 254.978 273.828 252.119 275.511 251.853C282.511 250.722 289.444 256.108 293.752 256.108C298.06 256.108 298.531 253.648 297.05 253.183C288.636 250.523 284.328 246.533 280.492 245.802C276.655 245.071 263.26 238.688 263.26 238.688L256.125 242.411Z" fill="#FFBD95"/>
<path d="M257.146 248.118C257.146 248.118 260.041 253.703 263.474 255.366C266.906 257.028 271.686 255.1 274.782 256.163C277.878 257.227 277.34 255.366 277.138 254.834C276.936 254.302 273.099 253.105 271.484 252.24C269.868 251.509 264.483 244.926 257.146 248.118Z" fill="#FFBD95"/>
<path d="M225.303 168.975C235.871 162.591 247.583 185.198 252.698 196.502C257.814 207.806 269.459 242.315 269.459 242.315L257.343 248.498C257.343 248.498 235.601 223.099 219.783 192.645C218.101 189.454 214.533 175.491 225.303 168.975Z" fill="#BC6818"/>
<path d="M266.617 231.109L271.867 241.947L255.578 250.458L249.318 239.753L266.617 231.109Z" fill="#E0F2FF"/>
<path d="M210.488 96.6706C198.641 97.003 195.343 106.844 196.42 118.347C197.497 129.85 215.469 187.498 218.633 189.559C221.796 191.62 238.691 188.961 240.239 183.774C241.787 178.654 234.114 127.323 231.556 118.014C229.066 108.772 224.421 96.3381 210.488 96.6706Z" fill="#BC6818"/>
<path d="M185.797 40.5625C185.797 40.5625 176.777 73.2098 174.489 74.4066C167.287 77.9971 157.325 85.3777 151.267 93.0907C143.863 102.466 147.43 147.614 147.43 163.97C147.43 180.327 134.506 202.801 128.583 217.562C122.727 232.324 167.085 261.646 168.835 262.045C170.652 262.444 189.566 251.473 193.74 247.151C197.846 242.829 203.904 203.001 206.192 193.027C208.481 183.053 218.846 148.544 219.856 146.35C226.385 131.722 225.174 118.823 225.308 115.432C225.443 112.041 226.856 106.721 225.712 104.261C223.356 99.4073 206.461 89.8991 206.596 87.7714C206.798 85.6436 210.904 56.4539 210.904 56.4539L185.797 40.5625Z" fill="#FFBD95"/>
<path d="M174.462 74.3828L199.838 98.2532L206.637 87.8806C206.637 87.8806 224.205 99.6495 225.753 104.37C227.301 109.025 226.426 118.201 226.493 121.725C226.56 125.249 223.531 140.608 219.156 153.574C216.598 161.154 214.445 171.46 210.204 184.426C206.569 195.53 201.386 223.922 201.386 223.922C201.386 223.922 190.347 221.927 173.587 217.339C154.202 212.02 132.258 207.1 131.518 206.235C128.422 202.312 143.365 170.995 143.432 167.537C143.499 164.08 145.653 103.772 146.999 96.1255C148.346 88.479 154.134 84.689 159.721 81.2314C165.644 77.4414 174.462 74.3828 174.462 74.3828Z" fill="#F88B23"/>
<path d="M155.372 83.875C155.372 83.875 175.767 83.8085 179.267 93.7157C188.623 120.379 185.527 126.429 201.681 134.741C227.529 147.973 204.239 183.546 204.239 188.998C204.239 201.033 202.355 212.669 202.355 212.669L133.025 207.283C124.813 207.083 143.256 173.572 143.592 164.795C145.006 127.294 146.016 99.7664 147.631 93.7822C149.112 88.064 155.372 83.875 155.372 83.875Z" fill="#BC6818"/>
<path d="M209.137 69.2095L181.876 52.0547L177.164 69.2095L185.039 76.7895L209.137 69.2095Z" fill="#FFA47C"/>
<path d="M221.459 13.034C214.526 5.38746 192.785 -3.12343 180.333 10.3743C167.88 23.8721 171.246 38.6996 176.294 48.1414C180.198 55.5219 184.304 59.8439 192.852 64.6313C194.602 65.6286 210.757 70.0171 214.19 69.2857C216.546 68.7537 219.911 52.7293 220.517 52.8623C221.19 52.9953 223.075 52.1974 223.344 50.8675C223.681 48.9393 222.738 37.1038 223.344 35.907C223.95 34.7766 229.402 21.8108 221.459 13.034Z" fill="#FFBD95"/>
<path d="M225.308 20.6775C225.308 20.6775 213.461 12.4325 196.432 24.9994C192.797 27.7256 197.778 41.2233 196.836 42.2207C195.826 43.351 185.393 31.5821 185.662 33.1114C188.691 48.4709 182.902 56.1839 181.556 56.1174C177.383 55.9844 161.161 32.9784 169.238 16.555C177.316 0.19814 200.134 -0.466775 204.509 0.863052C208.817 2.25937 234.934 1.86042 225.308 20.6775Z" fill="#8D3B26"/>
<path d="M192.511 35.5347C193.521 40.455 193.521 46.9047 190.895 47.3701C188.203 47.902 185.241 44.3115 184.232 39.4576C183.222 34.5373 184.636 30.2153 187.261 29.6834C189.953 29.218 191.501 30.6808 192.511 35.5347Z" fill="#FFBD95"/>
<path d="M177.451 494.508H157.998V498.098H177.451V494.508Z" fill="#191919"/>
<path d="M158.726 469.212C156.169 472.736 154.486 479.585 154.217 482.71C153.88 486.5 156.169 494.479 158.726 494.479C166.063 494.479 174.881 494.745 182.42 495.809C190.026 496.806 192.853 501.128 212.238 501.062C217.892 501.062 228.191 500.663 227.854 498.402C227.518 496.141 209.277 492.019 203.353 486.633C188.41 473.002 178.448 469.744 178.448 469.744C178.448 469.744 159.265 468.481 158.726 469.212Z" fill="#0F0D0D"/>
<path d="M143.323 225.335C143.323 225.335 142.044 233.115 140.9 244.285C139.688 255.456 150.593 291.095 154.497 319.221C158.333 347.28 160.757 352.932 159.814 359.581C158.872 366.23 150.391 393.093 151.468 410.913C152.545 428.799 156.18 475.476 156.18 475.476C156.18 475.476 161.497 477.869 170.853 478.734C180.209 479.598 186.604 471.686 186.604 471.686C186.604 471.686 194.075 367.294 195.287 356.323C196.027 349.209 201.951 300.005 203.768 259.977C204.374 247.078 202.893 217.29 202.893 211.904C202.826 208.18 143.323 225.335 143.323 225.335Z" fill="#191919"/>
<path d="M151.333 504.748L131.947 503.485L132.149 499.828L151.602 501.025L151.333 504.748Z" fill="#191919"/>
<path d="M134.632 473.817C131.872 477.275 129.651 484.19 129.18 487.448C128.641 491.304 130.391 499.682 132.882 499.882C140.219 500.347 148.969 501.212 156.44 502.674C163.912 504.204 166.47 508.792 185.855 509.922C191.509 510.254 201.808 510.52 201.673 508.193C201.539 505.866 183.567 500.48 177.98 494.562C163.979 479.602 154.287 475.612 154.287 475.612C154.287 475.612 135.17 473.152 134.632 473.817Z" fill="#191919"/>
<path d="M131.265 207.109C131.265 207.109 124.803 223.799 125.005 237.629C125.139 248.866 128.437 269.412 132.274 297.471C136.111 325.53 136.515 351.662 135.572 358.244C134.63 364.893 125.61 392.953 126.687 410.839C127.764 428.725 132.678 472.809 132.678 472.809C132.678 472.809 138.332 477.729 147.688 478.594C156.977 479.458 162.497 475.535 162.497 475.535C162.497 475.535 173.334 371.011 177.574 360.704C184.305 344.281 185.315 292.551 189.959 257.31C191.844 243.081 200.594 211.897 200.594 211.897L131.265 207.109Z" fill="#303030"/>
<path d="M200.071 91.0849L199.802 98.1995L186.475 85.7656L200.071 91.0849Z" fill="#B8D1FF"/>
<path d="M199.777 98.1859L204.22 90.2734L207.249 93.9305L199.777 98.1859Z" fill="#B8D1FF"/>
<path d="M196.889 93.8288L206.379 93.2969L205.235 102.207L200.12 102.606L196.889 93.8288Z" fill="#303030"/>
<path d="M170.037 75.2538L177.172 69.2031L200.058 91.0788L193.73 99.4567L170.037 75.2538Z" fill="#E0F2FF"/>
<path d="M204.219 90.2877L208.863 98.7986L211.556 91.4181L207.45 85.2344L204.219 90.2877Z" fill="#E0F2FF"/>
<path d="M130.939 206.742C130.939 206.742 150.998 208.072 170.922 208.803C190.846 209.535 202.827 210.067 202.827 210.067L202.961 217.846C202.961 217.846 182.566 218.312 161.498 217.048C140.767 215.785 128.92 213.99 128.92 213.99L130.939 206.742Z" fill="#3B1B1D"/>
<path d="M195.939 218.937H200.314C201.66 218.937 202.737 217.873 202.737 216.544V212.355C202.737 211.025 201.66 209.961 200.314 209.961H195.939C194.593 209.961 193.516 211.025 193.516 212.355V216.544C193.516 217.873 194.593 218.937 195.939 218.937Z" fill="#722C1D"/>
<path d="M200.125 102.606C200.125 102.606 203.289 126.809 201.942 144.961C200.529 163.047 199.25 219.697 199.25 219.697L206.318 232.995L212.981 220.096C212.981 220.096 209.885 164.443 209.347 144.562C208.875 124.681 205.173 102.273 205.173 102.273L200.125 102.606Z" fill="#303030"/>
<path d="M310.85 200.892C311.523 199.895 311.254 198.499 310.244 197.834L302.369 192.514C301.359 191.849 299.946 192.115 299.273 193.113C298.6 194.11 298.869 195.506 299.879 196.171L307.754 201.491C308.831 202.156 310.177 201.89 310.85 200.892Z" fill="#FFA47C"/>
<path d="M313.563 197.681C314.236 196.684 313.967 195.288 312.957 194.623L305.082 189.303C304.072 188.638 302.659 188.904 301.986 189.902C301.312 190.899 301.582 192.295 302.591 192.96L310.467 198.28C311.476 198.945 312.89 198.679 313.563 197.681Z" fill="#FFA47C"/>
<path d="M315.977 194.392C316.65 193.395 316.381 191.999 315.371 191.334L307.496 186.014C306.486 185.349 305.073 185.615 304.4 186.613C303.727 187.61 303.996 189.006 305.005 189.671L312.881 194.991C313.89 195.656 315.304 195.456 315.977 194.392Z" fill="#FFA47C"/>
<path d="M318.006 191.088C318.679 190.09 318.41 188.694 317.401 188.029L309.525 182.71C308.516 182.045 307.102 182.311 306.429 183.308C305.756 184.305 306.025 185.702 307.035 186.367L314.91 191.686C315.92 192.351 317.333 192.085 318.006 191.088Z" fill="#FFA47C"/>
<path d="M288.644 174.75C288.644 174.75 304.125 177.543 306.885 178.939C309.645 180.335 318.059 188.78 318.059 188.78C318.059 188.78 312.808 190.043 311.597 192.437C310.385 194.897 307.827 201.48 307.827 201.48C307.827 201.48 298 198.022 294.163 195.096C290.327 192.171 287.23 188.381 287.23 188.381L288.644 174.75Z" fill="#FFA47C"/>
<path d="M154.29 90.0265C144.867 97.2075 148.098 107.048 155.839 115.692C163.579 124.402 212.379 160.64 216.149 160.441C219.918 160.308 232.034 148.273 230.217 143.22C228.399 138.166 191.715 101.064 184.109 95.0133C176.436 88.9626 165.262 81.5821 154.29 90.0265Z" fill="#F88B23"/>
<path d="M208.935 144.532C202.608 155.636 226.1 168.07 238.283 172.791C250.466 177.512 287.419 190.145 287.419 190.145L293.41 175.118C293.41 175.118 265.746 158.429 233.571 142.139C225.83 138.149 215.397 133.229 208.935 144.532Z" fill="#F88B23"/>
<path d="M297.084 175.019L285.334 169.391L276.7 186.98L288.45 192.608L297.084 175.019Z" fill="#E0F2FF"/>
<path d="M221.691 256.726L221.691 510.391H238.519V256.726H221.691Z" fill="#79858E"/>
<path d="M420.021 256.726V510.391H436.849V256.726H420.021Z" fill="#79858E"/>
<path d="M434.114 261.359H224.105V302.65H434.114V261.359Z" fill="#79858E"/>
<path d="M436.585 289.325L221.662 293.447V279.75L436.585 279.949V289.325Z" fill="#B9B9BD"/>
<path d="M458.21 256.062H201.42V280.066H458.21V256.062Z" fill="#99A2A9"/>
</svg>
