<svg width="241" height="162" viewBox="0 0 241 162" fill="none" xmlns="http://www.w3.org/2000/svg">
<g filter="url(#filter0_i_511_2348)">
<path d="M71.1684 20.1909C73.599 18.8987 76.4549 18.6656 79.0629 19.5466L228.521 70.0325C233.753 71.8 236.562 77.4745 234.795 82.7069L213.178 146.701C211.41 151.933 205.736 154.742 200.503 152.975L51.0516 102.491C48.44 101.609 46.3084 99.6877 45.1603 97.1815L25.8188 54.9571C23.6143 50.1446 25.5421 44.4478 30.2161 41.9629L71.1684 20.1909Z" fill="url(#paint0_linear_511_2348)"/>
</g>
<g filter="url(#filter1_d_511_2348)">
<path d="M156.17 91.7957C157.973 92.4505 159.115 93.4242 159.595 94.7169C160.11 95.9939 160.134 97.2744 159.667 98.5585C159.201 99.8425 158.614 100.957 157.908 101.902C157.21 102.823 156.382 103.64 155.424 104.354C154.475 105.044 153.354 105.475 152.061 105.648C150.768 105.822 149.344 105.626 147.788 105.061C146.232 104.495 145.185 103.57 144.646 102.284C144.107 100.998 144.124 99.5649 144.698 97.9845C145.685 95.2683 147.236 93.3442 149.353 92.2122C151.478 91.0555 153.75 90.9167 156.17 91.7957ZM143.976 72.2723C145.778 72.9271 146.92 73.9008 147.401 75.1935C147.915 76.4705 147.939 77.751 147.473 79.0351C147.006 80.3191 146.42 81.4337 145.713 82.3789C145.015 83.2994 144.187 84.1167 143.229 84.8308C142.28 85.5202 141.159 85.9516 139.866 86.1249C138.573 86.2981 137.149 86.1022 135.593 85.5371C134.038 84.972 132.99 84.0465 132.451 82.7606C131.912 81.4746 131.929 80.0415 132.504 78.4611C133.49 75.7449 135.042 73.8207 137.158 72.6888C139.283 71.5321 141.556 71.3933 143.976 72.2723ZM137.077 100.96C135.249 100.296 133.857 99.3574 132.901 98.1435C135.445 94.6792 138.916 91.0486 143.314 87.2516C147.788 83.3984 151.467 79.6195 154.35 75.915C155.733 76.4173 157.246 77.3303 158.889 78.654L159.108 78.8593C157.338 81.0394 155.053 83.3678 152.253 85.8445C149.477 88.3302 146.767 90.8259 144.124 93.3318C141.506 95.8466 139.268 98.4297 137.41 101.081L137.077 100.96ZM142.592 74.1178C141.852 73.8487 140.963 74.4483 139.927 75.9166C138.924 77.3692 138.09 79.0091 137.427 80.8364C136.772 82.639 136.741 83.6479 137.333 83.8632C137.975 84.0964 138.855 83.3678 139.972 81.6772C141.098 79.962 141.944 78.3266 142.509 76.7709C143.083 75.1905 143.111 74.3062 142.592 74.1178ZM154.787 93.6412C154.046 93.3721 153.158 93.9717 152.121 95.44C151.118 96.8926 150.285 98.5325 149.621 100.36C148.967 102.162 148.935 103.171 149.528 103.387C150.17 103.62 151.05 102.891 152.167 101.201C153.293 99.4854 154.139 97.85 154.704 96.2943C155.278 94.7139 155.306 93.8296 154.787 93.6412Z" fill="#EC650A"/>
<path d="M129.547 78.8963C128.264 82.4274 126.469 85.3673 124.163 87.7159C122.915 88.9957 121.575 90.032 120.141 90.8248C118.74 91.6019 117.157 92.075 115.39 92.2439C113.633 92.3882 111.828 92.1239 109.976 91.4512C107.507 90.5542 105.93 88.9331 105.244 86.5878C104.584 84.2514 104.773 81.651 105.814 78.7866C107.68 73.6504 110.379 69.9909 113.911 67.808C117.443 65.625 121.234 65.2691 125.284 66.7401C127.778 67.6461 129.347 69.2504 129.992 71.5531C130.637 73.8558 130.489 76.3035 129.547 78.8963ZM112.346 89.0835C113.259 89.4154 114.462 88.7203 115.954 86.9982C117.446 85.2761 118.844 83.1983 120.147 80.7647C121.45 78.3312 122.506 76.0032 123.313 73.7809C124.291 71.0893 124.224 69.5417 123.113 69.1381C122.323 68.851 121.401 69.1173 120.349 69.937C119.296 70.7566 118.298 71.8893 117.354 73.3351C115.326 76.4557 113.679 79.7569 112.414 83.2387C111.159 86.6957 111.136 88.644 112.346 89.0835Z" fill="#EC650A"/>
<path d="M94.5378 86.5547C93.723 86.2587 92.8463 85.6327 91.9077 84.6769C90.9691 83.721 90.126 82.7719 89.3782 81.8294C88.6552 80.8959 88.1051 80.3327 87.7279 80.1398C86.4509 80.6543 85.248 81.0419 84.1191 81.3026C82.9901 81.5634 82.2652 81.6354 81.9442 81.5188C81.6231 81.4022 81.192 80.7425 80.6506 79.5396C80.134 78.3457 79.9653 77.5018 80.1447 77.0079C80.3241 76.514 81.0332 75.9471 82.272 75.3069C83.5197 74.6421 84.7239 74.5205 85.8845 74.9421C86.2795 75.0856 86.9687 75.4198 87.952 75.9447C90.1424 75.1471 92.3764 73.8063 94.654 71.9224C96.9563 70.0474 98.4707 68.1098 99.1972 66.1097C99.5829 65.0478 99.6118 64.122 99.2838 63.332C98.9558 62.542 98.3844 61.999 97.5695 61.703C96.7547 61.407 95.7996 61.3815 94.7043 61.6266C93.618 61.8469 92.524 62.3579 91.4222 63.1596L89.59 61.2782C90.8577 59.8659 92.6058 58.8239 94.8344 58.152C97.0877 57.489 99.3873 57.5836 101.733 58.4358C104.104 59.2969 105.736 60.5746 106.63 62.2689C107.524 63.9632 107.648 65.6994 107.002 67.4773C106.545 68.7366 105.681 69.9602 104.411 71.148C103.166 72.3448 101.725 73.3867 100.089 74.2739C97.0615 75.9135 94.1519 77.1905 91.36 78.105C93.6658 79.837 95.6088 80.99 97.1892 81.5641C97.6584 81.7345 98.0859 81.7501 98.472 81.6108C98.858 81.4715 99.4594 81.0471 100.276 80.3375L101.997 81.7173C100.763 84.0364 99.5844 85.5507 98.4601 86.2604C97.3269 86.9947 96.0194 87.0928 94.5378 86.5547Z" fill="#EC650A"/>
</g>
<g filter="url(#filter2_di_511_2348)">
<circle cx="50.266" cy="55.3142" r="6.21594" transform="rotate(-1.41886 50.266 55.3142)" stroke="#797979" stroke-width="7" shape-rendering="crispEdges"/>
</g>
<g clip-path="url(#clip0_511_2348)">
<path d="M48.7188 52.8301C47.4456 51.8247 19.6325 30.2911 6.90578 35.1215C4.39648 36.0511 2.67452 38.0045 1.81129 40.8912C0.677463 44.5346 0.956918 47.9486 2.60562 50.9594C8.36241 61.6292 29.3183 64.2326 30.2201 64.3301L29.2201 62.3301C27.3957 62.3301 9.23493 59.9715 3.88014 50.0328C2.43494 47.4534 2.21618 44.6517 3.21887 41.4963C3.95096 39.0975 5.31425 37.5529 7.38014 36.7719C19.4816 32.2286 47.4098 54.0784 47.7187 54.3301C48.0651 54.5803 47.9718 54.1907 48.2201 53.8301C48.4293 53.4269 49.0651 53.0804 48.7188 52.8301Z" fill="black"/>
<path opacity="0.5" d="M48.2188 53.8301C46.1405 52.2356 19.0128 31.7639 7.39218 36.1571C5.10541 37.0343 3.56362 38.8053 2.76513 41.4261C1.73174 44.7583 1.99786 47.8216 3.48877 50.6188C8.27875 59.4813 25.8377 62.6881 29.7165 63.3309L29.2165 62.3309C28.9906 62.2956 9.23459 60.0158 3.87981 50.0771C2.43294 47.4538 2.21418 44.6521 3.21687 41.4967C3.94896 39.098 5.31225 37.5533 7.37814 36.7723C19.4796 32.2291 47.4075 54.0792 47.7165 54.3309C47.9473 54.4978 47.9979 53.9263 48.2188 53.8301C46.1371 52.1723 48.1731 53.6123 48.2188 53.8301Z" fill="black"/>
</g>
<defs>
<filter id="filter0_i_511_2348" x="24.9102" y="19.0205" width="210.414" height="134.483" filterUnits="userSpaceOnUse" color-interpolation-filters="sRGB">
<feFlood flood-opacity="0" result="BackgroundImageFix"/>
<feBlend mode="normal" in="SourceGraphic" in2="BackgroundImageFix" result="shape"/>
<feColorMatrix in="SourceAlpha" type="matrix" values="0 0 0 0 0 0 0 0 0 0 0 0 0 0 0 0 0 0 127 0" result="hardAlpha"/>
<feOffset dx="-2" dy="-2"/>
<feComposite in2="hardAlpha" operator="arithmetic" k2="-1" k3="1"/>
<feColorMatrix type="matrix" values="0 0 0 0 0 0 0 0 0 0 0 0 0 0 0 0 0 0 0.25 0"/>
<feBlend mode="normal" in2="shape" result="effect1_innerShadow_511_2348"/>
</filter>
<filter id="filter1_d_511_2348" x="76.0742" y="57.7168" width="87.9258" height="55.9922" filterUnits="userSpaceOnUse" color-interpolation-filters="sRGB">
<feFlood flood-opacity="0" result="BackgroundImageFix"/>
<feColorMatrix in="SourceAlpha" type="matrix" values="0 0 0 0 0 0 0 0 0 0 0 0 0 0 0 0 0 0 127 0" result="hardAlpha"/>
<feOffset dy="4"/>
<feGaussianBlur stdDeviation="2"/>
<feComposite in2="hardAlpha" operator="out"/>
<feColorMatrix type="matrix" values="0 0 0 0 0 0 0 0 0 0 0 0 0 0 0 0 0 0 0.25 0"/>
<feBlend mode="normal" in2="BackgroundImageFix" result="effect1_dropShadow_511_2348"/>
<feBlend mode="normal" in="SourceGraphic" in2="effect1_dropShadow_511_2348" result="shape"/>
</filter>
<filter id="filter2_di_511_2348" x="40.5508" y="45.2986" width="22.7297" height="22.0316" filterUnits="userSpaceOnUse" color-interpolation-filters="sRGB">
<feFlood flood-opacity="0" result="BackgroundImageFix"/>
<feColorMatrix in="SourceAlpha" type="matrix" values="0 0 0 0 0 0 0 0 0 0 0 0 0 0 0 0 0 0 127 0" result="hardAlpha"/>
<feOffset dx="2" dy="1"/>
<feGaussianBlur stdDeviation="0.65"/>
<feComposite in2="hardAlpha" operator="out"/>
<feColorMatrix type="matrix" values="0 0 0 0 0 0 0 0 0 0 0 0 0 0 0 0 0 0 0.25 0"/>
<feBlend mode="normal" in2="BackgroundImageFix" result="effect1_dropShadow_511_2348"/>
<feBlend mode="normal" in="SourceGraphic" in2="effect1_dropShadow_511_2348" result="shape"/>
<feColorMatrix in="SourceAlpha" type="matrix" values="0 0 0 0 0 0 0 0 0 0 0 0 0 0 0 0 0 0 127 0" result="hardAlpha"/>
<feOffset/>
<feGaussianBlur stdDeviation="1.95"/>
<feComposite in2="hardAlpha" operator="arithmetic" k2="-1" k3="1"/>
<feColorMatrix type="matrix" values="0 0 0 0 0 0 0 0 0 0 0 0 0 0 0 0 0 0 0.25 0"/>
<feBlend mode="normal" in2="shape" result="effect2_innerShadow_511_2348"/>
</filter>
<linearGradient id="paint0_linear_511_2348" x1="112.368" y1="80.8302" x2="502.161" y2="190.168" gradientUnits="userSpaceOnUse">
<stop stop-color="#FFF6E5"/>
<stop offset="1" stop-color="#D3A142"/>
</linearGradient>
<clipPath id="clip0_511_2348">
<rect width="49.4724" height="30.712" fill="white" transform="translate(0.71875 34.8301) rotate(-2.17681)"/>
</clipPath>
</defs>
</svg>
