<svg width="399" height="163" viewBox="0 0 399 163" fill="none" xmlns="http://www.w3.org/2000/svg">
<path d="M22.2371 81.3047L373.63 125.137L373.487 126.282L22.0942 82.4499L22.2371 81.3047Z" fill="#FF7500"/>
<path d="M362.206 114.549C362.286 113.907 362.452 113.323 362.801 112.762C363.098 112.241 363.476 111.823 363.991 111.422C364.455 111.061 364.999 110.803 365.629 110.603C366.207 110.442 366.82 110.379 367.461 110.459C368.102 110.539 368.681 110.751 369.247 111.054C369.763 111.397 370.227 111.781 370.633 112.25C370.943 112.754 371.206 113.252 371.412 113.836C371.567 114.46 371.63 115.073 371.55 115.714C371.39 116.997 370.789 118.085 369.805 118.892C368.78 119.648 367.578 119.964 366.295 119.804C365.654 119.724 365.076 119.512 364.554 119.214C363.993 118.865 363.529 118.482 363.163 118.064C362.762 117.549 362.504 117.005 362.344 116.427C362.143 115.797 362.126 115.19 362.206 114.549ZM372.762 106.003C372.647 106.919 372.379 107.583 371.966 107.904C371.548 108.271 370.838 108.368 369.877 108.248L365.662 107.723C364.655 107.597 364.036 107.334 363.721 106.876C363.4 106.464 363.303 105.754 363.417 104.837L366.183 82.6668C366.297 81.7506 366.56 81.1322 366.978 80.7656C367.39 80.4449 368.06 80.2958 369.068 80.4215L373.282 80.9472C374.244 81.0672 374.903 81.3819 375.223 81.7941C375.538 82.2521 375.642 82.9162 375.527 83.8324L372.762 106.003Z" fill="#FF7500"/>
<path d="M338.856 76.1822C339.223 76.2279 339.486 76.3538 339.658 76.4683C339.773 76.6686 339.836 76.9091 339.79 77.2756L339.63 78.5582C339.584 78.9246 339.458 79.188 339.31 79.2625C339.103 79.4229 338.823 79.4344 338.456 79.3887L333.234 78.7373L331.349 93.8537C330.743 98.7092 329.324 102.626 327.184 105.615C327.401 106.48 327.797 107.041 328.415 107.304C328.936 107.602 329.623 107.687 330.391 107.504C330.866 107.424 331.295 107.338 331.719 107.298C332.091 107.297 332.463 107.297 332.875 107.349C334.066 107.497 334.983 107.984 335.676 108.768C336.317 109.592 336.575 110.508 336.449 111.516C336.295 112.753 335.757 113.709 334.933 114.351C334.068 114.941 332.877 115.164 331.412 114.982C330.587 114.879 329.825 114.644 329.127 114.278C328.388 113.86 327.752 113.362 327.174 112.778C326.601 112.149 326.08 111.479 325.708 110.735C325.249 109.933 324.929 109.149 324.757 108.29C321.94 110.73 318.408 112.196 314.102 112.776C313.392 112.873 312.957 112.633 312.797 112.055L312.533 111.185C312.373 110.606 312.613 110.171 313.397 109.85C314.634 109.26 315.75 108.516 316.695 107.656C317.639 106.797 318.475 105.692 319.202 104.341C319.877 103.029 320.449 101.426 320.97 99.4904C321.439 97.5951 321.862 95.3219 322.193 92.6651L324.073 77.5945L318.851 76.9432C318.439 76.8917 318.17 76.8117 318.055 76.6113C317.883 76.4968 317.872 76.2163 317.917 75.8498L318.077 74.5672C318.123 74.2007 318.198 73.9774 318.404 73.817C318.552 73.7426 318.839 73.6852 319.251 73.7367L338.856 76.1822ZM345.417 114.589C345.302 115.505 345.039 116.123 344.621 116.49C344.209 116.81 343.493 116.954 342.531 116.834L339.646 116.474C338.638 116.348 338.025 116.039 337.704 115.627C337.389 115.169 337.286 114.505 337.4 113.589L339.577 96.1361L334.768 95.5361C334.31 95.479 334.04 95.3989 333.972 95.2043C333.806 95.044 333.788 94.8092 333.834 94.4428L333.994 93.1602C334.034 92.8395 334.108 92.6162 334.314 92.4558C334.423 92.3298 334.709 92.2725 335.168 92.3296L339.977 92.9296L341.754 78.6836C341.869 77.7674 342.132 77.149 342.55 76.7824C342.962 76.4617 343.632 76.3127 344.639 76.4384L347.525 76.7983C348.487 76.9183 349.146 77.2331 349.467 77.6452C349.782 78.1032 349.885 78.7674 349.771 79.6835L345.417 114.589ZM355.632 115.863C355.517 116.779 355.254 117.397 354.836 117.764C354.424 118.085 353.708 118.228 352.746 118.108L349.861 117.748C348.853 117.622 348.24 117.313 347.919 116.901C347.604 116.443 347.501 115.779 347.615 114.863L351.969 79.9578C352.084 79.0416 352.347 78.4232 352.765 78.0566C353.177 77.7359 353.847 77.5868 354.854 77.7126L357.74 78.0725C358.702 78.1925 359.361 78.5073 359.682 78.9194C359.997 79.3774 360.1 80.0416 359.986 80.9577L355.632 115.863Z" fill="#FF7500"/>
<path d="M310.185 97.5874C310.071 98.5035 309.802 99.1678 309.39 99.4885C308.972 99.8551 308.262 99.9526 307.3 99.8326L303.086 99.3069C302.078 99.1812 301.459 98.918 301.144 98.46C300.824 98.0479 300.726 97.3379 300.84 96.4218L301.789 88.8178L296.887 88.2064L296.419 91.9626C296.305 92.8787 296.036 93.543 295.624 93.8637C295.206 94.2303 294.496 94.3278 293.534 94.2078L289.503 93.705C288.495 93.5793 287.877 93.316 287.562 92.8581C287.241 92.4459 287.143 91.7359 287.258 90.8198L287.343 90.1327C285.66 90.9462 283.868 91.5135 282.059 91.846C280.147 92.2588 278.372 92.3165 276.723 92.1108C275.806 91.9965 274.993 91.8021 274.289 91.4816C273.487 91.1955 272.84 90.7892 272.348 90.2625C271.809 89.7302 271.425 89.0775 271.196 88.3046C270.916 87.5718 270.841 86.6786 270.972 85.6251L272.852 70.5545C272.966 69.6384 273.23 69.0199 273.648 68.6534C274.06 68.3326 274.73 68.1836 275.737 68.3093L296.442 70.892C297.404 71.012 298.063 71.3267 298.383 71.7389C298.698 72.1968 298.802 72.861 298.687 73.7771L298.259 77.2127L303.16 77.8241L303.646 73.9305C303.76 73.0143 304.023 72.3959 304.441 72.0293C304.853 71.7086 305.523 71.5595 306.531 71.6852L310.745 72.2109C311.707 72.3309 312.366 72.6456 312.687 73.0578C313.002 73.5158 313.105 74.1799 312.991 75.0961L310.185 97.5874ZM280.069 104.065C279.984 104.752 280.064 105.228 280.356 105.497C280.608 105.714 281.055 105.863 281.696 105.943L307.669 109.183C308.081 109.234 308.35 109.314 308.51 109.52C308.585 109.669 308.648 109.909 308.602 110.276L308.442 111.559C308.402 111.879 308.282 112.097 308.168 112.269C307.967 112.383 307.681 112.441 307.269 112.389L275.891 108.475C273.692 108.201 272.278 107.606 271.556 106.678C270.794 105.699 270.553 104.274 270.793 102.35L271.485 96.8072C271.599 95.8911 271.862 95.2727 272.28 94.9061C272.692 94.5854 273.362 94.4363 274.37 94.562L278.584 95.0877C279.546 95.2077 280.205 95.5224 280.525 95.9346C280.84 96.3926 280.944 97.0567 280.829 97.9729L280.069 104.065ZM283.354 72.5157C282.804 72.4472 282.426 72.4931 282.22 72.6534C281.968 72.8081 281.825 73.2089 281.756 73.7586L280.299 85.4394C280.208 86.1723 280.288 86.6476 280.575 86.9624C280.815 87.2715 281.348 87.4775 282.172 87.5804C282.951 87.6775 283.838 87.6486 284.84 87.448C285.791 87.2874 286.804 86.9951 287.789 86.5597L289.269 74.6957C289.337 74.146 289.297 73.7223 289.137 73.5162C288.976 73.3101 288.576 73.1671 287.98 73.0928L283.354 72.5157ZM297.287 84.9999L302.189 85.6113L302.76 81.0306L297.859 80.4192L297.287 84.9999Z" fill="#FF7500"/>
<path d="M229.328 61.5956C233.175 62.0755 236.079 63.0424 238.049 64.4046C240.013 65.8127 241.055 67.5244 241.262 69.597L245.064 70.0713L245.487 66.6816C245.601 65.7654 245.864 65.147 246.282 64.7804C246.694 64.4597 247.364 64.3106 248.372 64.4363L252.586 64.962C253.548 65.082 254.207 65.3967 254.528 65.8089C254.843 66.2669 254.946 66.931 254.832 67.8472L252.677 85.1165C252.563 86.0326 252.294 86.6969 251.882 87.0176C251.464 87.3842 250.754 87.4817 249.792 87.3617L245.578 86.836C244.57 86.7103 243.952 86.4471 243.637 85.9891C243.316 85.5769 243.219 84.867 243.333 83.9508L244.664 73.2778L240.771 72.7921C240.072 74.6589 238.601 76.0105 236.363 76.8012C234.119 77.6378 231.118 77.8218 227.362 77.3532C223.056 76.8161 219.89 75.7233 217.96 74.0405C215.978 72.3977 215.165 70.3424 215.473 67.8688C215.782 65.3952 217.075 63.6027 219.405 62.4513C221.684 61.3399 225.022 61.0585 229.328 61.5956ZM249.51 101.934C249.922 101.985 250.191 102.065 250.352 102.271C250.426 102.42 250.489 102.661 250.443 103.027L250.283 104.31C250.243 104.63 250.123 104.848 250.009 105.02C249.808 105.134 249.522 105.192 249.11 105.14L216.816 101.112C215.808 100.986 215.041 100.797 214.462 100.586C213.844 100.323 213.369 100.031 213.042 99.6643C212.721 99.2521 212.504 98.7598 212.481 98.1986C212.372 97.5803 212.417 96.8417 212.52 96.0171L212.817 93.6352C212.932 92.719 213.195 92.1006 213.613 91.734C214.025 91.4133 214.695 91.2642 215.702 91.3899L240.805 94.5211C241.309 94.584 241.641 94.5324 241.847 94.372C241.956 94.246 242.087 93.9368 242.144 93.4787L242.219 92.8832C242.276 92.4252 242.224 92.0931 242.155 91.8984C241.989 91.7381 241.68 91.6065 241.176 91.5437L214.562 88.2239C214.104 88.1668 213.835 88.0867 213.766 87.892C213.6 87.7318 213.583 87.497 213.629 87.1306L213.789 85.848C213.829 85.5273 213.903 85.304 214.109 85.1436C214.218 85.0176 214.504 84.9603 214.962 85.0174L221.558 85.8402L222.004 82.2673L212.934 81.1359C212.522 81.0845 212.253 81.0044 212.138 80.804C211.967 80.6896 211.955 80.409 212.001 80.0426L212.161 78.76C212.206 78.3935 212.281 78.1702 212.487 78.0098C212.636 77.9353 212.922 77.878 213.334 77.9294L240.819 81.3577C241.185 81.4035 241.448 81.5294 241.62 81.6438C241.735 81.8442 241.798 82.0847 241.752 82.4511L241.592 83.7337C241.546 84.1002 241.421 84.3636 241.272 84.4381C241.066 84.5984 240.785 84.61 240.419 84.5642L231.349 83.4329L230.903 87.0059L249.547 89.3314C250.509 89.4514 251.167 89.7661 251.488 90.1783C251.803 90.6363 251.906 91.3004 251.792 92.2166L251.26 96.4766C251.146 97.3928 250.877 98.057 250.465 98.3778C250.047 98.7443 249.337 98.8418 248.375 98.7219L223.273 95.5907C222.723 95.5221 222.391 95.5737 222.282 95.6997C222.076 95.8601 221.991 96.175 221.933 96.6331L221.853 97.2744C221.796 97.7325 221.802 98.0588 221.962 98.2649C222.037 98.4138 222.346 98.5454 222.896 98.6139L249.51 101.934ZM227.762 74.1467C230.098 74.4381 231.484 73.0293 231.872 69.9144C232.261 66.7995 231.264 65.0935 228.928 64.8021C226.546 64.505 225.206 65.9195 224.818 69.0344C224.429 72.1493 225.38 73.8496 227.762 74.1467Z" fill="#FF7500"/>
<path d="M197.322 75.136L199.978 75.4675L201.755 61.2214C201.87 60.3053 202.133 59.6868 202.551 59.3203C202.963 58.9995 203.633 58.8505 204.641 58.9762L207.526 59.3362C208.488 59.4562 209.147 59.7709 209.468 60.1831C209.783 60.6411 209.886 61.3052 209.772 62.2214L205.418 97.1264C205.303 98.0425 205.04 98.661 204.622 99.0275C204.21 99.3483 203.495 99.4916 202.533 99.3716L199.647 99.0116C198.639 98.8859 198.026 98.5769 197.705 98.1647C197.39 97.7068 197.287 97.0426 197.401 96.1265L199.578 78.6739L196.922 78.3425L194.745 95.7951C194.63 96.7112 194.367 97.3296 193.949 97.6962C193.537 98.0169 192.821 98.1603 191.86 98.0403L188.974 97.6803C187.966 97.5546 187.353 97.2456 187.032 96.8334C186.717 96.3754 186.614 95.7113 186.728 94.7951L191.082 59.8901C191.197 58.974 191.46 58.3555 191.878 57.989C192.29 57.6682 192.96 57.5192 193.968 57.6449L196.853 58.0049C197.815 58.1248 198.474 58.4396 198.795 58.8518C199.11 59.3097 199.213 59.9739 199.099 60.89L197.322 75.136ZM169.416 58.304C168.958 58.2468 168.689 58.1667 168.62 57.9721C168.454 57.8118 168.437 57.577 168.482 57.2106L168.642 55.928C168.682 55.6073 168.757 55.384 168.963 55.2236C169.072 55.0977 169.358 55.0403 169.816 55.0975L186.123 57.1316C187.131 57.2573 187.744 57.5663 188.064 57.9785C188.328 58.4766 188.431 59.1407 188.323 60.0111L187.277 68.3938C186.306 76.181 183.879 82.205 180.056 86.3801C176.175 90.641 170.931 93.1502 164.352 94.0508C163.648 94.1026 163.207 93.908 163.081 93.4271L162.749 92.3622C162.542 91.7782 162.823 91.3945 163.55 91.1596C165.737 90.4089 167.672 89.4408 169.309 88.2494C170.901 87.0523 172.297 85.5518 173.459 83.6964C174.569 81.8811 175.502 79.6249 176.297 76.9794C176.995 74.3683 177.613 71.282 178.064 67.6633L178.904 60.9296C178.973 60.3799 178.927 60.002 178.772 59.7501C178.566 59.5383 178.211 59.401 177.707 59.3382L169.416 58.304Z" fill="#FF7500"/>
<path d="M146.949 68.9445C146.216 68.8531 145.512 68.9048 144.837 69.0996C144.069 69.2831 143.371 69.6611 142.753 70.1423C142.237 70.5432 141.739 70.8067 141.304 70.9385C140.823 71.0646 140.079 71.0648 139.071 70.9391L134.949 70.4248C133.941 70.2991 133.322 70.0359 133.007 69.5779C132.687 69.1658 132.589 68.4558 132.703 67.5397L134.366 54.2098C134.48 53.2936 134.749 52.6294 135.167 52.2628C135.579 51.9421 136.244 51.8389 137.205 51.9589L161.163 54.9472C161.575 54.9986 161.838 55.1245 162.004 55.2848C162.073 55.4795 162.136 55.7199 162.096 56.0406L161.936 57.3232C161.89 57.6896 161.77 57.9072 161.662 58.0332C161.455 58.1936 161.175 58.2051 160.763 58.1537L144.822 56.1653C144.272 56.0967 143.94 56.1483 143.734 56.3087C143.476 56.5092 143.339 56.8642 143.27 57.4139L142.11 66.7127C142.998 66.3117 143.965 66.0137 144.962 65.8589C145.912 65.6983 146.937 65.6866 147.991 65.818C152.525 66.3837 155.915 67.923 158.121 70.3845C160.32 72.8918 161.151 76.2984 160.608 80.65C160.351 82.7114 159.802 84.5036 159.052 86.0383C158.251 87.6131 157.169 88.8272 155.835 89.8239C154.461 90.769 152.795 91.445 150.883 91.8578C148.936 92.1732 146.698 92.2196 144.132 91.8996C141.75 91.6025 139.678 91.0648 137.908 90.3324C136.099 89.5484 134.638 88.5754 133.522 87.4592C132.365 86.2914 131.597 84.9862 131.133 83.4862C130.617 82.0262 130.491 80.4288 130.708 78.6881C130.822 77.772 131.04 77.1478 131.458 76.7813C131.778 76.4491 132.448 76.3001 133.364 76.4143L137.853 76.9743C138.769 77.0886 139.336 77.3919 139.657 77.8041C139.88 78.2506 139.984 78.9148 139.869 79.8309C139.515 82.6709 139.762 84.7951 140.61 86.2034C141.457 87.6117 142.746 88.4702 144.532 88.6931C146.456 88.9331 147.973 88.3315 149.13 86.894C150.234 85.4967 151.007 83.0344 151.447 79.5073C151.881 76.0259 151.691 73.4437 150.969 71.772C150.196 70.1403 148.873 69.1845 146.949 68.9445Z" fill="#FF7500"/>
<path d="M103.044 63.381L105.701 63.7124L107.478 49.4664C107.592 48.5502 107.855 47.9318 108.273 47.5652C108.685 47.2445 109.355 47.0954 110.363 47.2212L113.249 47.5811C114.211 47.7011 114.869 48.0159 115.19 48.428C115.505 48.886 115.608 49.5502 115.494 50.4663L111.14 85.3713C111.026 86.2875 110.762 86.9059 110.345 87.2725C109.932 87.5932 109.217 87.7365 108.255 87.6166L105.369 87.2566C104.361 87.1309 103.748 86.8218 103.428 86.4097C103.113 85.9517 103.009 85.2875 103.124 84.3714L105.301 66.9189L102.644 66.5875L100.467 84.04C100.353 84.9561 100.089 85.5746 99.6715 85.9411C99.2593 86.2619 98.5436 86.4052 97.5817 86.2852L94.6958 85.9252C93.6881 85.7995 93.0753 85.4905 92.7546 85.0783C92.4395 84.6204 92.3363 83.9562 92.4506 83.0401L96.8046 48.135C96.9188 47.2189 97.1821 46.6005 97.5999 46.2339C98.0121 45.9132 98.682 45.7641 99.6897 45.8898L102.576 46.2498C103.538 46.3698 104.196 46.6845 104.517 47.0967C104.832 47.5547 104.935 48.2188 104.821 49.135L103.044 63.381ZM80.0986 76.5217C80.0071 77.2546 80.0874 77.7298 80.3738 78.0447C80.6143 78.3538 81.1469 78.5598 81.9714 78.6626C83.1166 78.8055 84.3304 78.7708 85.5786 78.4613C86.7694 78.2377 87.8401 77.8595 88.8362 77.3325C89.2312 77.1492 89.5232 77.046 89.7522 77.0746C89.9298 77.1432 90.1417 77.3092 90.2963 77.5611L90.7947 78.4141C91.0124 78.9065 90.9209 79.2672 90.5087 79.588C88.6138 80.9798 86.3925 82.0053 83.8906 82.6701C81.3485 83.2834 78.7205 83.4673 76.0636 83.1359C72.3533 82.6731 70.761 80.5206 71.2295 76.7645L75.0806 45.8905C75.1949 44.9743 75.4639 44.3101 75.8817 43.9435C76.2939 43.6228 76.9581 43.5195 77.92 43.6395L92.8531 45.5022C93.2196 45.548 93.483 45.6738 93.6548 45.7883C93.7694 45.9887 93.8324 46.2292 93.7867 46.5956L93.6267 47.8782C93.581 48.2447 93.4551 48.5081 93.3063 48.5826C93.1002 48.7429 92.8196 48.7544 92.4532 48.7087L85.0782 47.7888C84.5285 47.7202 84.1965 47.7719 83.9904 47.9322C83.7328 48.1327 83.5954 48.4877 83.5269 49.0374L80.0986 76.5217Z" fill="#FF7500"/>
<path d="M55.648 43.1816C56.0144 43.2274 56.2779 43.3532 56.4497 43.4677C56.5642 43.6681 56.6273 43.9086 56.5816 44.275L56.4216 45.5576C56.3759 45.9241 56.25 46.1875 56.1011 46.262C55.895 46.4223 55.6145 46.4338 55.248 46.3881L47.6898 45.4454L47.2956 48.606C46.867 52.0416 45.757 54.9734 44.0113 57.4073C44.4123 58.2947 44.9851 58.9244 45.7696 59.3479C46.4568 59.8057 47.3214 59.9601 48.3635 59.811C48.6955 59.7594 49.1192 59.7192 49.5887 59.6847C50.0582 59.6502 50.4762 59.6558 50.8885 59.7073C52.4459 59.9015 53.5912 60.4165 54.3243 61.2523C55.0116 62.0824 55.2924 63.1873 55.1325 64.4699C54.9668 65.7984 54.4231 66.8005 53.5529 67.4363C52.6255 68.1579 51.343 68.3701 49.694 68.1644C47.6327 67.9073 45.9262 67.0432 44.5344 65.5205C43.137 64.0436 42.1574 62.2002 41.6301 60.0875C39.9529 61.5996 38.0351 62.8025 35.8309 63.6905C33.5752 64.6187 31.0389 65.1862 28.2162 65.4388C27.4604 65.5306 27.0252 65.2903 26.9105 64.7177L26.6469 63.8475C26.4406 63.2635 26.7325 62.7882 27.5111 62.5132C30.6256 61.413 33.0414 59.5745 34.81 56.9573C36.527 54.3803 37.6656 51.2195 38.1399 47.4175L38.5284 44.3026L30.9702 43.3598C30.558 43.3084 30.2888 43.2283 30.1743 43.0279C30.0025 42.9134 29.991 42.6329 30.0367 42.2664L30.1967 40.9838C30.2424 40.6174 30.3167 40.394 30.5228 40.2337C30.6717 40.1592 30.9579 40.1019 31.3702 40.1533L38.8368 41.0847L38.9682 40.0311C39.0825 39.1149 39.3457 38.4965 39.7636 38.1299C40.1757 37.8092 40.8456 37.6602 41.8534 37.7859L46.0676 38.3115C47.0296 38.4315 47.6881 38.7463 48.0089 39.1584C48.3239 39.6164 48.4271 40.2806 48.3128 41.1967L48.1814 42.2503L55.648 43.1816ZM65.059 79.6176C64.9447 80.5337 64.6815 81.1522 64.2636 81.5187C63.8515 81.8395 63.1358 81.9828 62.1738 81.8628L57.9596 81.3371C56.9518 81.2114 56.3391 80.9024 56.0183 80.4902C55.7033 80.0323 55.6001 79.3681 55.7144 78.452L60.0683 43.5469C60.1826 42.6308 60.4458 42.0124 60.8637 41.6458C61.2759 41.3251 61.9457 41.176 62.9535 41.3017L67.1678 41.8274C68.1297 41.9474 68.7882 42.2621 69.109 42.6743C69.424 43.1323 69.5273 43.7964 69.413 44.7126L65.059 79.6176ZM53.1715 76.0879C53.538 76.1336 53.8071 76.2137 53.9675 76.4198C54.0935 76.5286 54.1508 76.8148 54.1051 77.1813L53.9451 78.4639C53.8994 78.8303 53.7792 79.0479 53.6189 79.214C53.4243 79.2828 53.138 79.3401 52.7716 79.2944L25.2873 75.8661C24.875 75.8147 24.6116 75.6888 24.4856 75.58C24.3252 75.3739 24.308 75.1392 24.3537 74.7727L24.5137 73.4901C24.5594 73.1237 24.6395 72.8545 24.8342 72.7858C24.9944 72.6197 25.275 72.6082 25.6873 72.6596L34.8487 73.8024L35.3744 69.5881C35.4886 68.672 35.7576 68.0077 36.1755 67.6412C36.5876 67.3204 37.2518 67.2172 38.2137 67.3372L42.3364 67.8514C43.2525 67.9657 43.9168 68.2346 44.2375 68.6468C44.5525 69.1048 44.6501 69.8147 44.5358 70.7309L44.0101 74.9451L53.1715 76.0879Z" fill="#FF7500"/>
<rect x="16.7499" y="3.91196" width="380.781" height="102.193" transform="rotate(7.21684 16.7499 3.91196)" stroke="#FF7500" stroke-width="7"/>
</svg>
