<svg width="100" height="100" viewBox="0 0 100 100" fill="none" xmlns="http://www.w3.org/2000/svg">
<g filter="url(#filter0_d_430_5615)">
<circle cx="50" cy="50" r="40" fill="white"/>
</g>
<mask id="mask0_430_5615" style="mask-type:alpha" maskUnits="userSpaceOnUse" x="22" y="22" width="56" height="56">
<rect x="22" y="22" width="55.5938" height="55.5938" fill="#D9D9D9"/>
</mask>
<g mask="url(#mask0_430_5615)">
<path d="M70.7035 47.5924V66.0078C70.7035 67.2818 70.2498 68.3725 69.3426 69.2797C68.4353 70.187 67.3447 70.6406 66.0706 70.6406H33.641C32.3669 70.6406 31.2763 70.187 30.369 69.2797C29.4618 68.3725 29.0081 67.2818 29.0081 66.0078V47.5924C28.1202 46.7816 27.4349 45.7393 26.9523 44.4652C26.4697 43.1912 26.4601 41.8014 26.9234 40.2957L29.3556 32.4199C29.6645 31.4161 30.2146 30.5861 31.006 29.9298C31.7975 29.2735 32.7144 28.9453 33.7568 28.9453H65.9548C66.9972 28.9453 67.9045 29.2638 68.6766 29.9008C69.4487 30.5378 70.0085 31.3775 70.356 32.4199L72.7882 40.2957C73.2515 41.8014 73.2419 43.1719 72.7593 44.4073C72.2767 45.6427 71.5914 46.7044 70.7035 47.5924ZM54.9519 45.1602C55.9943 45.1602 56.7857 44.803 57.3262 44.0888C57.8667 43.3746 58.079 42.5735 57.9632 41.6855L56.6892 33.5781H52.1722V42.1488C52.1722 42.9596 52.4425 43.6641 52.9829 44.2625C53.5234 44.861 54.1798 45.1602 54.9519 45.1602ZM44.5281 45.1602C45.416 45.1602 46.1399 44.861 46.6997 44.2625C47.2595 43.6641 47.5394 42.9596 47.5394 42.1488V33.5781H43.0224L41.7484 41.6855C41.594 42.6121 41.7966 43.4229 42.3564 44.1178C42.9162 44.8127 43.6401 45.1602 44.5281 45.1602ZM34.2201 45.1602C34.915 45.1602 35.523 44.9092 36.0442 44.4073C36.5654 43.9054 36.8839 43.2684 36.9997 42.4963L38.2738 33.5781H33.7568L31.4404 41.3381C31.2087 42.1102 31.3342 42.9403 31.8168 43.8282C32.2994 44.7162 33.1005 45.1602 34.2201 45.1602ZM65.4915 45.1602C66.6111 45.1602 67.4219 44.7162 67.9238 43.8282C68.4257 42.9403 68.5415 42.1102 68.2712 41.3381L65.839 33.5781H61.4378L62.7119 42.4963C62.8277 43.2684 63.1462 43.9054 63.6674 44.4073C64.1886 44.9092 64.7966 45.1602 65.4915 45.1602ZM33.641 66.0078H66.0706V49.6771C65.8776 49.7544 65.7521 49.793 65.6942 49.793H65.4915C64.4492 49.793 63.5322 49.6192 62.7408 49.2718C61.9494 48.9243 61.1676 48.3645 60.3954 47.5924C59.7005 48.2873 58.9091 48.8278 58.0211 49.2139C57.1332 49.5999 56.1873 49.793 55.1835 49.793C54.1412 49.793 53.1663 49.5999 52.2591 49.2139C51.3518 48.8278 50.5507 48.2873 49.8558 47.5924C49.1995 48.2873 48.437 48.8278 47.5684 49.2139C46.6997 49.5999 45.7635 49.793 44.7597 49.793C43.6401 49.793 42.6267 49.5999 41.7194 49.2139C40.8122 48.8278 40.0111 48.2873 39.3162 47.5924C38.5054 48.4031 37.7043 48.9726 36.9129 49.3007C36.1214 49.6289 35.2238 49.793 34.2201 49.793H33.9595C33.8629 49.793 33.7568 49.7544 33.641 49.6771V66.0078Z" fill="#F88B23"/>
</g>
<defs>
<filter id="filter0_d_430_5615" x="0" y="0" width="100" height="100" filterUnits="userSpaceOnUse" color-interpolation-filters="sRGB">
<feFlood flood-opacity="0" result="BackgroundImageFix"/>
<feColorMatrix in="SourceAlpha" type="matrix" values="0 0 0 0 0 0 0 0 0 0 0 0 0 0 0 0 0 0 127 0" result="hardAlpha"/>
<feOffset/>
<feGaussianBlur stdDeviation="5"/>
<feComposite in2="hardAlpha" operator="out"/>
<feColorMatrix type="matrix" values="0 0 0 0 0 0 0 0 0 0 0 0 0 0 0 0 0 0 0.1 0"/>
<feBlend mode="normal" in2="BackgroundImageFix" result="effect1_dropShadow_430_5615"/>
<feBlend mode="normal" in="SourceGraphic" in2="effect1_dropShadow_430_5615" result="shape"/>
</filter>
</defs>
</svg>
