<svg width="40" height="40" viewBox="0 0 40 40" fill="none" xmlns="http://www.w3.org/2000/svg">
<path d="M31.9818 14.7996C31.6986 13.7377 30.8668 12.9058 29.8225 12.6226C27.911 12.1094 20.2827 12.1094 20.2827 12.1094C20.2827 12.1094 12.6367 12.1094 10.7429 12.6226C9.69863 12.9058 8.86677 13.7377 8.58359 14.7996C8.07031 16.7111 8.07031 20.7111 8.07031 20.7111C8.07031 20.7111 8.07031 24.7112 8.58359 26.6227C8.86677 27.6846 9.69863 28.5165 10.7429 28.7997C12.6544 29.3129 20.2827 29.3129 20.2827 29.3129C20.2827 29.3129 27.9287 29.3129 29.8225 28.7997C30.8668 28.5165 31.6986 27.6846 31.9818 26.6227C32.4951 24.7112 32.4951 20.7111 32.4951 20.7111C32.4951 20.7111 32.4951 16.7111 31.9818 14.7996ZM17.7871 24.3395V17.0828L24.1765 20.7111L17.7871 24.3395Z" fill="white"/>
<path fill-rule="evenodd" clip-rule="evenodd" d="M33.9469 2.0177H6.0531C3.8244 2.0177 2.0177 3.8244 2.0177 6.05309V33.9469C2.0177 36.1756 3.8244 37.9823 6.05309 37.9823H33.9469C36.1756 37.9823 37.9823 36.1756 37.9823 33.9469V6.0531C37.9823 3.82441 36.1756 2.0177 33.9469 2.0177ZM6.0531 0H33.9469C37.2899 0 40 2.71006 40 6.0531V33.9469C40 37.2899 37.2899 40 33.9469 40H6.05309C2.71006 40 0 37.2899 0 33.9469V6.05309C0 2.71006 2.71006 0 6.0531 0Z" fill="white"/>
</svg>
