<svg width="80" height="57" viewBox="0 0 80 57" fill="none" xmlns="http://www.w3.org/2000/svg">
<path d="M4.85627 54.1059V45.3153H0V26.854C0 22.8092 2.75396 19.4364 6.39842 18.6736L10.8711 3.88827C12.1573 1.36752 14.2881 -0.216608 17.0902 0.0240685H48.2852C51.0867 -0.216542 53.2174 1.3675 54.502 3.88827L59.0163 18.7756C62.4515 19.7003 64.9961 22.9686 64.9961 26.854V45.3153H60.2543V54.1059C60.2543 57.1935 57.8585 56.6133 54.9074 56.6133H55.6182C52.6647 56.6133 51.112 57.1935 51.112 54.1059V45.3153H13.9956V54.1059C13.9956 57.1935 12.4453 56.6133 9.49273 56.6133H9.35699C6.40584 56.6133 4.85627 57.1935 4.85627 54.1059ZM53.9991 18.5095L53.9443 18.3553L51.1277 7.58825C50.3132 5.60607 49.1737 4.66331 47.1777 4.83209H18.1974C16.203 4.66342 15.0601 5.60611 14.2407 7.58825L11.3741 18.5095H53.9991Z" fill="#F88B23"/>
<ellipse cx="18.0525" cy="33.1155" rx="3.61111" ry="4.38889" fill="white"/>
<ellipse cx="46.9412" cy="33.1155" rx="3.61111" ry="4.38889" fill="white"/>
<path d="M80 9.70131C80 9.70131 80 12.9309 80 17.7583C80 39.1515 61.5015 42.6098 61.5015 42.6098C61.5015 42.6098 43 39.1487 43 17.7555C43 12.5498 43 9.69849 43 9.69849L61.4985 2L80 9.70131Z" fill="#99C28A"/>
<path d="M61.2018 9.98174L71.7261 14.5012V18.7662C71.7261 22.0083 71.1261 24.87 69.9373 27.2675C69.019 29.1245 67.7372 30.7272 66.1344 32.0256C64.1878 33.602 62.2046 34.3653 61.199 34.6801C60.1961 34.3653 58.2129 33.602 56.2636 32.0256C54.6579 30.7272 53.379 29.1272 52.4606 27.2675C51.2747 24.87 50.6718 22.0083 50.6718 18.7662V14.5038L61.2018 9.98174ZM61.2018 8.89844L49.6211 13.8743V18.7689C49.6211 22.1552 50.2549 25.1533 51.5057 27.6819C52.4888 29.6675 53.8579 31.3803 55.5762 32.7705C57.889 34.6408 60.2496 35.446 61.2046 35.7162C62.1596 35.446 64.5202 34.6434 66.833 32.7705C68.5513 31.3803 69.9204 29.6675 70.9035 27.6819C72.1543 25.1533 72.7881 22.1552 72.7881 18.7689V13.8743L61.2018 8.89844Z" fill="white" stroke="white" stroke-width="2" stroke-miterlimit="10"/>
<path d="M60.8736 24.5633C60.731 24.5633 60.5909 24.5087 60.4883 24.4138L58.5013 22.5467C58.2886 22.3475 58.2886 22.0224 58.5013 21.8232C58.714 21.6239 59.0569 21.6239 59.2696 21.8232L60.8161 23.2774L65.4881 17.5434C65.6708 17.3204 66.0111 17.2777 66.2514 17.4485C66.4891 17.6193 66.5341 17.9419 66.3515 18.1649L61.3041 24.3616C61.209 24.4779 61.0638 24.5514 60.9087 24.5609C60.8962 24.5609 60.8836 24.5633 60.8736 24.5633Z" fill="white" stroke="white" stroke-miterlimit="10"/>
</svg>
