<svg width="59" height="59" viewBox="0 0 59 59" fill="none" xmlns="http://www.w3.org/2000/svg">
<circle cx="29.51" cy="29.5813" r="29.3616" fill="white"/>
<rect x="5.51172" y="5.58105" width="48" height="48" rx="24" fill="#FFDBBD"/>
<path d="M29.5117 36.5811C27.5543 36.5811 25.8983 36.2797 24.5437 35.6769C23.189 35.0741 22.5117 34.3385 22.5117 33.4699V25.6922C22.5117 24.8366 23.1955 24.1042 24.5631 23.4949C25.9307 22.8857 27.5802 22.5811 29.5117 22.5811C31.4432 22.5811 33.0927 22.8857 34.4603 23.4949C35.8279 24.1042 36.5117 24.8366 36.5117 25.6922V33.4699C36.5117 34.3385 35.8344 35.0741 34.4798 35.6769C33.1251 36.2797 31.4691 36.5811 29.5117 36.5811ZM29.5117 27.2672C30.6654 27.2672 31.8256 27.1019 32.9923 26.7713C34.1589 26.4408 34.8136 26.0875 34.9562 25.7116C34.8136 25.3357 34.1622 24.9792 33.002 24.6422C31.8418 24.3051 30.6784 24.1366 29.5117 24.1366C28.3321 24.1366 27.1751 24.3019 26.0409 24.6324C24.9066 24.963 24.2488 25.3227 24.0673 25.7116C24.2488 26.1005 24.9066 26.457 26.0409 26.7811C27.1751 27.1051 28.3321 27.2672 29.5117 27.2672ZM29.5117 31.1366C30.0562 31.1366 30.5812 31.1107 31.0867 31.0588C31.5923 31.007 32.0751 30.9324 32.5353 30.8352C32.9955 30.738 33.4298 30.6181 33.8381 30.4755C34.2464 30.3329 34.6191 30.1709 34.9562 29.9894V27.6561C34.6191 27.8375 34.2464 27.9996 33.8381 28.1422C33.4298 28.2848 32.9955 28.4047 32.5353 28.5019C32.0751 28.5991 31.5923 28.6736 31.0867 28.7255C30.5812 28.7774 30.0562 28.8033 29.5117 28.8033C28.9673 28.8033 28.4358 28.7774 27.9173 28.7255C27.3988 28.6736 26.9094 28.5991 26.4492 28.5019C25.989 28.4047 25.558 28.2848 25.1562 28.1422C24.7543 27.9996 24.3913 27.8375 24.0673 27.6561V29.9894C24.3913 30.1709 24.7543 30.3329 25.1562 30.4755C25.558 30.6181 25.989 30.738 26.4492 30.8352C26.9094 30.9324 27.3988 31.007 27.9173 31.0588C28.4358 31.1107 28.9673 31.1366 29.5117 31.1366ZM29.5117 35.0255C30.108 35.0255 30.714 34.9801 31.3298 34.8894C31.9455 34.7986 32.5126 34.6787 33.0312 34.5297C33.5497 34.3806 33.9839 34.2121 34.3339 34.0241C34.6839 33.8361 34.8913 33.6449 34.9562 33.4505V31.5449C34.6191 31.7264 34.2464 31.8885 33.8381 32.0311C33.4298 32.1736 32.9955 32.2936 32.5353 32.3908C32.0751 32.488 31.5923 32.5625 31.0867 32.6144C30.5812 32.6662 30.0562 32.6922 29.5117 32.6922C28.9673 32.6922 28.4358 32.6662 27.9173 32.6144C27.3988 32.5625 26.9094 32.488 26.4492 32.3908C25.989 32.2936 25.558 32.1736 25.1562 32.0311C24.7543 31.8885 24.3913 31.7264 24.0673 31.5449V33.4699C24.1321 33.6644 24.3363 33.8524 24.6798 34.0338C25.0233 34.2153 25.4543 34.3806 25.9728 34.5297C26.4913 34.6787 27.0617 34.7986 27.6839 34.8894C28.3062 34.9801 28.9154 35.0255 29.5117 35.0255Z" fill="white"/>
</svg>
